%TF.GenerationSoftware,KiCad,Pcbnew,9.0.7*%
%TF.CreationDate,2026-04-23T16:24:15-04:00*%
%TF.ProjectId,RFID_bikelock,52464944-5f62-4696-9b65-6c6f636b2e6b,rev?*%
%TF.SameCoordinates,Original*%
%TF.FileFunction,Copper,L1,Top*%
%TF.FilePolarity,Positive*%
%FSLAX46Y46*%
G04 Gerber Fmt 4.6, Leading zero omitted, Abs format (unit mm)*
G04 Created by KiCad (PCBNEW 9.0.7) date 2026-04-23 16:24:15*
%MOMM*%
%LPD*%
G01*
G04 APERTURE LIST*
G04 Aperture macros list*
%AMRoundRect*
0 Rectangle with rounded corners*
0 $1 Rounding radius*
0 $2 $3 $4 $5 $6 $7 $8 $9 X,Y pos of 4 corners*
0 Add a 4 corners polygon primitive as box body*
4,1,4,$2,$3,$4,$5,$6,$7,$8,$9,$2,$3,0*
0 Add four circle primitives for the rounded corners*
1,1,$1+$1,$2,$3*
1,1,$1+$1,$4,$5*
1,1,$1+$1,$6,$7*
1,1,$1+$1,$8,$9*
0 Add four rect primitives between the rounded corners*
20,1,$1+$1,$2,$3,$4,$5,0*
20,1,$1+$1,$4,$5,$6,$7,0*
20,1,$1+$1,$6,$7,$8,$9,0*
20,1,$1+$1,$8,$9,$2,$3,0*%
%AMFreePoly0*
4,1,21,-0.125000,1.200000,0.125000,1.200000,0.125000,1.700000,0.375000,1.700000,0.375000,1.200000,0.825000,1.200000,0.825000,-1.200000,0.375000,-1.200000,0.375000,-1.700000,0.125000,-1.700000,0.125000,-1.200000,-0.125000,-1.200000,-0.125000,-1.700000,-0.375000,-1.700000,-0.375000,-1.200000,-0.825000,-1.200000,-0.825000,1.200000,-0.375000,1.200000,-0.375000,1.700000,-0.125000,1.700000,
-0.125000,1.200000,-0.125000,1.200000,$1*%
G04 Aperture macros list end*
%TA.AperFunction,SMDPad,CuDef*%
%ADD10RoundRect,0.237500X-0.250000X-0.237500X0.250000X-0.237500X0.250000X0.237500X-0.250000X0.237500X0*%
%TD*%
%TA.AperFunction,ComponentPad*%
%ADD11R,1.700000X1.700000*%
%TD*%
%TA.AperFunction,ComponentPad*%
%ADD12C,1.700000*%
%TD*%
%TA.AperFunction,SMDPad,CuDef*%
%ADD13RoundRect,0.100000X-0.575000X0.100000X-0.575000X-0.100000X0.575000X-0.100000X0.575000X0.100000X0*%
%TD*%
%TA.AperFunction,HeatsinkPad*%
%ADD14O,1.550000X0.890000*%
%TD*%
%TA.AperFunction,SMDPad,CuDef*%
%ADD15RoundRect,0.250000X-0.525000X0.475000X-0.525000X-0.475000X0.525000X-0.475000X0.525000X0.475000X0*%
%TD*%
%TA.AperFunction,HeatsinkPad*%
%ADD16O,0.950000X1.250000*%
%TD*%
%TA.AperFunction,SMDPad,CuDef*%
%ADD17RoundRect,0.250000X-0.525000X0.500000X-0.525000X-0.500000X0.525000X-0.500000X0.525000X0.500000X0*%
%TD*%
%TA.AperFunction,SMDPad,CuDef*%
%ADD18RoundRect,0.237500X0.300000X0.237500X-0.300000X0.237500X-0.300000X-0.237500X0.300000X-0.237500X0*%
%TD*%
%TA.AperFunction,SMDPad,CuDef*%
%ADD19RoundRect,0.250000X0.337500X0.475000X-0.337500X0.475000X-0.337500X-0.475000X0.337500X-0.475000X0*%
%TD*%
%TA.AperFunction,SMDPad,CuDef*%
%ADD20RoundRect,0.237500X-0.237500X0.300000X-0.237500X-0.300000X0.237500X-0.300000X0.237500X0.300000X0*%
%TD*%
%TA.AperFunction,SMDPad,CuDef*%
%ADD21R,1.500000X0.900000*%
%TD*%
%TA.AperFunction,SMDPad,CuDef*%
%ADD22R,0.900000X1.500000*%
%TD*%
%TA.AperFunction,HeatsinkPad*%
%ADD23C,0.600000*%
%TD*%
%TA.AperFunction,HeatsinkPad*%
%ADD24R,3.900000X3.900000*%
%TD*%
%TA.AperFunction,SMDPad,CuDef*%
%ADD25RoundRect,0.062500X0.062500X-0.350000X0.062500X0.350000X-0.062500X0.350000X-0.062500X-0.350000X0*%
%TD*%
%TA.AperFunction,SMDPad,CuDef*%
%ADD26RoundRect,0.062500X0.350000X-0.062500X0.350000X0.062500X-0.350000X0.062500X-0.350000X-0.062500X0*%
%TD*%
%TA.AperFunction,HeatsinkPad*%
%ADD27R,2.500000X2.500000*%
%TD*%
%TA.AperFunction,SMDPad,CuDef*%
%ADD28RoundRect,0.250000X-0.325000X-0.450000X0.325000X-0.450000X0.325000X0.450000X-0.325000X0.450000X0*%
%TD*%
%TA.AperFunction,SMDPad,CuDef*%
%ADD29C,3.000000*%
%TD*%
%TA.AperFunction,SMDPad,CuDef*%
%ADD30RoundRect,0.237500X-0.300000X-0.237500X0.300000X-0.237500X0.300000X0.237500X-0.300000X0.237500X0*%
%TD*%
%TA.AperFunction,SMDPad,CuDef*%
%ADD31RoundRect,0.250000X-0.475000X0.337500X-0.475000X-0.337500X0.475000X-0.337500X0.475000X0.337500X0*%
%TD*%
%TA.AperFunction,SMDPad,CuDef*%
%ADD32RoundRect,0.237500X0.237500X-0.300000X0.237500X0.300000X-0.237500X0.300000X-0.237500X-0.300000X0*%
%TD*%
%TA.AperFunction,SMDPad,CuDef*%
%ADD33RoundRect,0.250000X0.475000X-0.337500X0.475000X0.337500X-0.475000X0.337500X-0.475000X-0.337500X0*%
%TD*%
%TA.AperFunction,SMDPad,CuDef*%
%ADD34RoundRect,0.250000X-0.850000X0.375000X-0.850000X-0.375000X0.850000X-0.375000X0.850000X0.375000X0*%
%TD*%
%TA.AperFunction,ComponentPad*%
%ADD35C,2.000000*%
%TD*%
%TA.AperFunction,ComponentPad*%
%ADD36RoundRect,0.250000X-0.950000X-0.550000X0.950000X-0.550000X0.950000X0.550000X-0.950000X0.550000X0*%
%TD*%
%TA.AperFunction,ComponentPad*%
%ADD37O,2.400000X1.600000*%
%TD*%
%TA.AperFunction,SMDPad,CuDef*%
%ADD38RoundRect,0.237500X-0.237500X0.250000X-0.237500X-0.250000X0.237500X-0.250000X0.237500X0.250000X0*%
%TD*%
%TA.AperFunction,ComponentPad*%
%ADD39C,6.400000*%
%TD*%
%TA.AperFunction,SMDPad,CuDef*%
%ADD40RoundRect,0.237500X0.237500X-0.250000X0.237500X0.250000X-0.237500X0.250000X-0.237500X-0.250000X0*%
%TD*%
%TA.AperFunction,SMDPad,CuDef*%
%ADD41R,1.003300X0.508000*%
%TD*%
%TA.AperFunction,SMDPad,CuDef*%
%ADD42RoundRect,0.060000X-0.240000X-0.060000X0.240000X-0.060000X0.240000X0.060000X-0.240000X0.060000X0*%
%TD*%
%TA.AperFunction,ComponentPad*%
%ADD43C,0.500000*%
%TD*%
%TA.AperFunction,SMDPad,CuDef*%
%ADD44FreePoly0,0.000000*%
%TD*%
%TA.AperFunction,ViaPad*%
%ADD45C,0.600000*%
%TD*%
%TA.AperFunction,Conductor*%
%ADD46C,0.200000*%
%TD*%
G04 APERTURE END LIST*
D10*
%TO.P,R11,1*%
%TO.N,Net-(D7-A)*%
X104204500Y-114226000D03*
%TO.P,R11,2*%
%TO.N,/Vin*%
X106029500Y-114226000D03*
%TD*%
D11*
%TO.P,J6,1,Pin_1*%
%TO.N,Net-(J6-Pin_1)*%
X63250000Y-97475000D03*
D12*
%TO.P,J6,2,Pin_2*%
%TO.N,Net-(J6-Pin_2)*%
X65790000Y-97475000D03*
%TD*%
D13*
%TO.P,J2,1,VBUS*%
%TO.N,/Vin*%
X83200000Y-94450000D03*
%TO.P,J2,2,D-*%
%TO.N,/USB-D-*%
X83200000Y-95100000D03*
%TO.P,J2,3,D+*%
%TO.N,/USB-D+*%
X83200000Y-95750000D03*
%TO.P,J2,4,ID*%
%TO.N,unconnected-(J2-ID-Pad4)*%
X83200000Y-96400000D03*
%TO.P,J2,5,GND*%
%TO.N,GND*%
X83200000Y-97050000D03*
D14*
%TO.P,J2,6,Shield*%
X80500000Y-92250000D03*
D15*
X80500000Y-92725000D03*
D16*
X83200000Y-93250000D03*
D17*
X80500000Y-94750000D03*
X80500000Y-96750000D03*
D16*
X83200000Y-98250000D03*
D15*
X80500000Y-98775000D03*
D14*
X80500000Y-99250000D03*
%TD*%
D18*
%TO.P,C8,1*%
%TO.N,GND*%
X122234500Y-134112000D03*
%TO.P,C8,2*%
%TO.N,Net-(C8-Pad2)*%
X120509500Y-134112000D03*
%TD*%
D19*
%TO.P,C6,1*%
%TO.N,/Vsys*%
X95080500Y-131048000D03*
%TO.P,C6,2*%
%TO.N,GND*%
X93005500Y-131048000D03*
%TD*%
D20*
%TO.P,C12,1*%
%TO.N,Net-(J6-Pin_2)*%
X72000000Y-105637500D03*
%TO.P,C12,2*%
%TO.N,Net-(C12-Pad2)*%
X72000000Y-107362500D03*
%TD*%
D10*
%TO.P,R2,1*%
%TO.N,/Vsys*%
X97194500Y-131048000D03*
%TO.P,R2,2*%
%TO.N,Net-(U4-PS{slash}SYNC)*%
X99019500Y-131048000D03*
%TD*%
D21*
%TO.P,U2,1,GND*%
%TO.N,GND*%
X98030000Y-79380000D03*
%TO.P,U2,2,3V3*%
%TO.N,+3V3*%
X98030000Y-80650000D03*
%TO.P,U2,3,EN*%
%TO.N,/EN*%
X98030000Y-81920000D03*
%TO.P,U2,4,IO4*%
%TO.N,/IO4*%
X98030000Y-83190000D03*
%TO.P,U2,5,IO5*%
%TO.N,/IO5*%
X98030000Y-84460000D03*
%TO.P,U2,6,IO6*%
%TO.N,/IO6*%
X98030000Y-85730000D03*
%TO.P,U2,7,IO7*%
%TO.N,/IO7*%
X98030000Y-87000000D03*
%TO.P,U2,8,IO15*%
%TO.N,/Boost_EN*%
X98030000Y-88270000D03*
%TO.P,U2,9,IO16*%
%TO.N,/STEP1*%
X98030000Y-89540000D03*
%TO.P,U2,10,IO17*%
%TO.N,/STEP2*%
X98030000Y-90810000D03*
%TO.P,U2,11,IO18*%
%TO.N,/STEP3*%
X98030000Y-92080000D03*
%TO.P,U2,12,IO8*%
%TO.N,unconnected-(U2-IO8-Pad12)*%
X98030000Y-93350000D03*
%TO.P,U2,13,USB_D-*%
%TO.N,/USB-D-*%
X98030000Y-94620000D03*
%TO.P,U2,14,USB_D+*%
%TO.N,/USB-D+*%
X98030000Y-95890000D03*
D22*
%TO.P,U2,15,IO3*%
%TO.N,unconnected-(U2-IO3-Pad15)*%
X99795000Y-97140000D03*
%TO.P,U2,16,IO46*%
%TO.N,unconnected-(U2-IO46-Pad16)*%
X101065000Y-97140000D03*
%TO.P,U2,17,IO9*%
%TO.N,unconnected-(U2-IO9-Pad17)*%
X102335000Y-97140000D03*
%TO.P,U2,18,IO10*%
%TO.N,unconnected-(U2-IO10-Pad18)*%
X103605000Y-97140000D03*
%TO.P,U2,19,IO11*%
%TO.N,unconnected-(U2-IO11-Pad19)*%
X104875000Y-97140000D03*
%TO.P,U2,20,IO12*%
%TO.N,unconnected-(U2-IO12-Pad20)*%
X106145000Y-97140000D03*
%TO.P,U2,21,IO13*%
%TO.N,unconnected-(U2-IO13-Pad21)*%
X107415000Y-97140000D03*
%TO.P,U2,22,IO14*%
%TO.N,unconnected-(U2-IO14-Pad22)*%
X108685000Y-97140000D03*
%TO.P,U2,23,IO21*%
%TO.N,/STEP4*%
X109955000Y-97140000D03*
%TO.P,U2,24,IO47*%
%TO.N,unconnected-(U2-IO47-Pad24)*%
X111225000Y-97140000D03*
%TO.P,U2,25,IO48*%
%TO.N,unconnected-(U2-IO48-Pad25)*%
X112495000Y-97140000D03*
%TO.P,U2,26,IO45*%
%TO.N,unconnected-(U2-IO45-Pad26)*%
X113765000Y-97140000D03*
D21*
%TO.P,U2,27,IO0*%
%TO.N,/BOOT*%
X115530000Y-95890000D03*
%TO.P,U2,28,IO35*%
%TO.N,unconnected-(U2-IO35-Pad28)*%
X115530000Y-94620000D03*
%TO.P,U2,29,IO36*%
%TO.N,unconnected-(U2-IO36-Pad29)*%
X115530000Y-93350000D03*
%TO.P,U2,30,IO37*%
%TO.N,unconnected-(U2-IO37-Pad30)*%
X115530000Y-92080000D03*
%TO.P,U2,31,IO38*%
%TO.N,/IO38*%
X115530000Y-90810000D03*
%TO.P,U2,32,IO39*%
%TO.N,/IO39*%
X115530000Y-89540000D03*
%TO.P,U2,33,IO40*%
%TO.N,unconnected-(U2-IO40-Pad33)*%
X115530000Y-88270000D03*
%TO.P,U2,34,IO41*%
%TO.N,unconnected-(U2-IO41-Pad34)*%
X115530000Y-87000000D03*
%TO.P,U2,35,IO42*%
%TO.N,unconnected-(U2-IO42-Pad35)*%
X115530000Y-85730000D03*
%TO.P,U2,36,RXD0*%
%TO.N,unconnected-(U2-RXD0-Pad36)*%
X115530000Y-84460000D03*
%TO.P,U2,37,TXD0*%
%TO.N,unconnected-(U2-TXD0-Pad37)*%
X115530000Y-83190000D03*
%TO.P,U2,38,IO2*%
%TO.N,unconnected-(U2-IO2-Pad38)*%
X115530000Y-81920000D03*
%TO.P,U2,39,IO1*%
%TO.N,unconnected-(U2-IO1-Pad39)*%
X115530000Y-80650000D03*
%TO.P,U2,40,GND*%
%TO.N,GND*%
X115530000Y-79380000D03*
D23*
%TO.P,U2,41,GND*%
X103880000Y-86400000D03*
X103880000Y-87800000D03*
X104580000Y-85700000D03*
X104580000Y-87100000D03*
X104580000Y-88500000D03*
X105280000Y-86400000D03*
D24*
X105280000Y-87100000D03*
D23*
X105280000Y-87800000D03*
X105980000Y-85700000D03*
X105980000Y-87100000D03*
X105980000Y-88500000D03*
X106680000Y-86400000D03*
X106680000Y-87800000D03*
%TD*%
D25*
%TO.P,U6,1,OUT*%
%TO.N,/Vsys*%
X91179000Y-115815000D03*
%TO.P,U6,2,VPCC*%
%TO.N,/Vin*%
X91679000Y-115815000D03*
%TO.P,U6,3,SEL*%
%TO.N,GND*%
X92179000Y-115815000D03*
%TO.P,U6,4,PROG2*%
%TO.N,/Vin*%
X92679000Y-115815000D03*
%TO.P,U6,5,THERM*%
%TO.N,Net-(U6-THERM)*%
X93179000Y-115815000D03*
D26*
%TO.P,U6,6,~{PG}*%
%TO.N,Net-(D5-K)*%
X94116500Y-114877500D03*
%TO.P,U6,7,STAT2*%
%TO.N,Net-(D7-K)*%
X94116500Y-114377500D03*
%TO.P,U6,8,STAT1/~{LBO}*%
%TO.N,Net-(D6-K)*%
X94116500Y-113877500D03*
%TO.P,U6,9,~{TE}*%
%TO.N,GND*%
X94116500Y-113377500D03*
%TO.P,U6,10,V_{SS}*%
X94116500Y-112877500D03*
D25*
%TO.P,U6,11,V_{SS}*%
X93179000Y-111940000D03*
%TO.P,U6,12,PROG3*%
%TO.N,Net-(U6-PROG3)*%
X92679000Y-111940000D03*
%TO.P,U6,13,PROG1*%
%TO.N,Net-(U6-PROG1)*%
X92179000Y-111940000D03*
%TO.P,U6,14,V_{BAT}*%
%TO.N,Net-(J1-Pin_2)*%
X91679000Y-111940000D03*
%TO.P,U6,15,V_{BAT}*%
X91179000Y-111940000D03*
D26*
%TO.P,U6,16,V_{BAT_SENSE}*%
X90241500Y-112877500D03*
%TO.P,U6,17,CE*%
%TO.N,/Vin*%
X90241500Y-113377500D03*
%TO.P,U6,18,IN*%
X90241500Y-113877500D03*
%TO.P,U6,19,IN*%
X90241500Y-114377500D03*
%TO.P,U6,20,OUT*%
%TO.N,/Vsys*%
X90241500Y-114877500D03*
D27*
%TO.P,U6,21,V_{SS}*%
%TO.N,GND*%
X92179000Y-113877500D03*
%TD*%
D10*
%TO.P,R9,1*%
%TO.N,Net-(D5-A)*%
X104204500Y-116004000D03*
%TO.P,R9,2*%
%TO.N,/Vin*%
X106029500Y-116004000D03*
%TD*%
D28*
%TO.P,D5,1,K*%
%TO.N,Net-(D5-K)*%
X98250000Y-115750000D03*
%TO.P,D5,2,A*%
%TO.N,Net-(D5-A)*%
X100300000Y-115750000D03*
%TD*%
D29*
%TO.P,TP3,1,1*%
%TO.N,+3V3*%
X122507459Y-92000000D03*
%TD*%
D30*
%TO.P,C7,1*%
%TO.N,Net-(U4-PS{slash}SYNC)*%
X101308500Y-131048000D03*
%TO.P,C7,2*%
%TO.N,GND*%
X103033500Y-131048000D03*
%TD*%
D28*
%TO.P,D3,1,K*%
%TO.N,Net-(D3-K)*%
X107941000Y-105664000D03*
%TO.P,D3,2,A*%
%TO.N,+3V3*%
X109991000Y-105664000D03*
%TD*%
D29*
%TO.P,TP1,1,1*%
%TO.N,/Vsys*%
X122507459Y-86750000D03*
%TD*%
D31*
%TO.P,C10,1*%
%TO.N,+5V*%
X103441000Y-126708500D03*
%TO.P,C10,2*%
%TO.N,GND*%
X103441000Y-128783500D03*
%TD*%
D32*
%TO.P,C3,1*%
%TO.N,+3V3*%
X91968000Y-82112500D03*
%TO.P,C3,2*%
%TO.N,GND*%
X91968000Y-80387500D03*
%TD*%
D31*
%TO.P,C13,1*%
%TO.N,/Vin*%
X91147000Y-118014500D03*
%TO.P,C13,2*%
%TO.N,GND*%
X91147000Y-120089500D03*
%TD*%
D33*
%TO.P,C1,1*%
%TO.N,+3V3*%
X94000000Y-82287500D03*
%TO.P,C1,2*%
%TO.N,GND*%
X94000000Y-80212500D03*
%TD*%
D28*
%TO.P,D6,1,K*%
%TO.N,Net-(D6-K)*%
X98250000Y-111178000D03*
%TO.P,D6,2,A*%
%TO.N,Net-(D6-A)*%
X100300000Y-111178000D03*
%TD*%
D34*
%TO.P,L1,1,1*%
%TO.N,Net-(U4-L2)*%
X93535000Y-126671000D03*
%TO.P,L1,2,2*%
%TO.N,Net-(U4-L1)*%
X93535000Y-128821000D03*
%TD*%
D20*
%TO.P,C5,1*%
%TO.N,+3V3*%
X109474000Y-101145000D03*
%TO.P,C5,2*%
%TO.N,GND*%
X109474000Y-102870000D03*
%TD*%
D35*
%TO.P,SW1,1,1*%
%TO.N,GND*%
X123502000Y-124766000D03*
X123502000Y-131266000D03*
%TO.P,SW1,2,2*%
%TO.N,Net-(C8-Pad2)*%
X119002000Y-124766000D03*
X119002000Y-131266000D03*
%TD*%
D11*
%TO.P,J1,1,Pin_1*%
%TO.N,GND*%
X83014000Y-115242000D03*
D12*
%TO.P,J1,2,Pin_2*%
%TO.N,Net-(J1-Pin_2)*%
X85554000Y-115242000D03*
%TD*%
D36*
%TO.P,U1,1,I1*%
%TO.N,/STEP1*%
X115570000Y-102616000D03*
D37*
%TO.P,U1,2,I2*%
%TO.N,/STEP2*%
X115570000Y-105156000D03*
%TO.P,U1,3,I3*%
%TO.N,/STEP3*%
X115570000Y-107696000D03*
%TO.P,U1,4,I4*%
%TO.N,/STEP4*%
X115570000Y-110236000D03*
%TO.P,U1,5,I5*%
%TO.N,unconnected-(U1-I5-Pad5)*%
X115570000Y-112776000D03*
%TO.P,U1,6,I6*%
%TO.N,unconnected-(U1-I6-Pad6)*%
X115570000Y-115316000D03*
%TO.P,U1,7,I7*%
%TO.N,unconnected-(U1-I7-Pad7)*%
X115570000Y-117856000D03*
%TO.P,U1,8,GND*%
%TO.N,GND*%
X115570000Y-120396000D03*
%TO.P,U1,9,COM*%
%TO.N,+5V*%
X123190000Y-120396000D03*
%TO.P,U1,10,O7*%
%TO.N,unconnected-(U1-O7-Pad10)*%
X123190000Y-117856000D03*
%TO.P,U1,11,O6*%
%TO.N,unconnected-(U1-O6-Pad11)*%
X123190000Y-115316000D03*
%TO.P,U1,12,O5*%
%TO.N,unconnected-(U1-O5-Pad12)*%
X123190000Y-112776000D03*
%TO.P,U1,13,O4*%
%TO.N,Net-(J3-Pin_2)*%
X123190000Y-110236000D03*
%TO.P,U1,14,O3*%
%TO.N,Net-(J3-Pin_3)*%
X123190000Y-107696000D03*
%TO.P,U1,15,O2*%
%TO.N,Net-(J3-Pin_4)*%
X123190000Y-105156000D03*
%TO.P,U1,16,O1*%
%TO.N,Net-(J3-Pin_5)*%
X123190000Y-102616000D03*
%TD*%
D10*
%TO.P,R1,1*%
%TO.N,+3V3*%
X90500000Y-84298000D03*
%TO.P,R1,2*%
%TO.N,/EN*%
X92325000Y-84298000D03*
%TD*%
D31*
%TO.P,C11,1*%
%TO.N,+5V*%
X101155000Y-126708500D03*
%TO.P,C11,2*%
%TO.N,GND*%
X101155000Y-128783500D03*
%TD*%
D10*
%TO.P,R10,1*%
%TO.N,Net-(D6-A)*%
X104204500Y-112448000D03*
%TO.P,R10,2*%
%TO.N,/Vin*%
X106029500Y-112448000D03*
%TD*%
D38*
%TO.P,R_Prog3,1*%
%TO.N,GND*%
X93179000Y-108233500D03*
%TO.P,R_Prog3,2*%
%TO.N,Net-(U6-PROG3)*%
X93179000Y-110058500D03*
%TD*%
D20*
%TO.P,C14,1*%
%TO.N,/Vsys*%
X88607000Y-117935500D03*
%TO.P,C14,2*%
%TO.N,GND*%
X88607000Y-119660500D03*
%TD*%
D18*
%TO.P,C2,1*%
%TO.N,/EN*%
X92362500Y-87750000D03*
%TO.P,C2,2*%
%TO.N,GND*%
X90637500Y-87750000D03*
%TD*%
D10*
%TO.P,R4,1*%
%TO.N,Net-(C8-Pad2)*%
X90500000Y-86076000D03*
%TO.P,R4,2*%
%TO.N,/EN*%
X92325000Y-86076000D03*
%TD*%
D20*
%TO.P,C4,1*%
%TO.N,/Vsys*%
X102362000Y-101245500D03*
%TO.P,C4,2*%
%TO.N,GND*%
X102362000Y-102970500D03*
%TD*%
D39*
%TO.P,H2,1,1*%
%TO.N,GND*%
X132250000Y-133250000D03*
%TD*%
D35*
%TO.P,SW2,1,1*%
%TO.N,GND*%
X113502000Y-124766000D03*
X113502000Y-131266000D03*
%TO.P,SW2,2,2*%
%TO.N,/BOOT*%
X109002000Y-124766000D03*
X109002000Y-131266000D03*
%TD*%
D10*
%TO.P,R6,1*%
%TO.N,GND*%
X103989500Y-105664000D03*
%TO.P,R6,2*%
%TO.N,Net-(D3-K)*%
X105814500Y-105664000D03*
%TD*%
D40*
%TO.P,R_TH1,1*%
%TO.N,GND*%
X93941000Y-119710500D03*
%TO.P,R_TH1,2*%
%TO.N,Net-(U6-THERM)*%
X93941000Y-117885500D03*
%TD*%
D11*
%TO.P,J5,1,Pin_1*%
%TO.N,+3V3*%
X133604000Y-87884000D03*
D12*
%TO.P,J5,2,Pin_2*%
%TO.N,GND*%
X133604000Y-90424000D03*
%TO.P,J5,3,Pin_3*%
%TO.N,/IO4*%
X133604000Y-92964000D03*
%TO.P,J5,4,Pin_4*%
%TO.N,/IO5*%
X133604000Y-95504000D03*
%TO.P,J5,5,Pin_5*%
%TO.N,/IO6*%
X133604000Y-98044000D03*
%TO.P,J5,6,Pin_6*%
%TO.N,/IO7*%
X133604000Y-100584000D03*
%TO.P,J5,7,Pin_7*%
%TO.N,/IO38*%
X133604000Y-103124000D03*
%TO.P,J5,8,Pin_8*%
%TO.N,/IO39*%
X133604000Y-105664000D03*
%TD*%
D38*
%TO.P,R_Prog1,1*%
%TO.N,GND*%
X91401000Y-108233500D03*
%TO.P,R_Prog1,2*%
%TO.N,Net-(U6-PROG1)*%
X91401000Y-110058500D03*
%TD*%
D39*
%TO.P,H4,1,1*%
%TO.N,GND*%
X82750000Y-133250000D03*
%TD*%
D18*
%TO.P,C9,1*%
%TO.N,GND*%
X112114500Y-134112000D03*
%TO.P,C9,2*%
%TO.N,/BOOT*%
X110389500Y-134112000D03*
%TD*%
D40*
%TO.P,R8,1*%
%TO.N,Net-(C12-Pad2)*%
X56750000Y-108662500D03*
%TO.P,R8,2*%
%TO.N,Net-(J6-Pin_1)*%
X56750000Y-106837500D03*
%TD*%
D29*
%TO.P,TP2,1,1*%
%TO.N,GND*%
X122507459Y-81750000D03*
%TD*%
D28*
%TO.P,D7,1,K*%
%TO.N,Net-(D7-K)*%
X98250000Y-113464000D03*
%TO.P,D7,2,A*%
%TO.N,Net-(D7-A)*%
X100300000Y-113464000D03*
%TD*%
D39*
%TO.P,H3,1,1*%
%TO.N,GND*%
X132250000Y-81750000D03*
%TD*%
%TO.P,H1,1,1*%
%TO.N,GND*%
X82750000Y-81750000D03*
%TD*%
D11*
%TO.P,J3,1,Pin_1*%
%TO.N,+5V*%
X133858000Y-124206000D03*
D12*
%TO.P,J3,2,Pin_2*%
%TO.N,Net-(J3-Pin_2)*%
X133858000Y-121666000D03*
%TO.P,J3,3,Pin_3*%
%TO.N,Net-(J3-Pin_3)*%
X133858000Y-119126000D03*
%TO.P,J3,4,Pin_4*%
%TO.N,Net-(J3-Pin_4)*%
X133858000Y-116586000D03*
%TO.P,J3,5,Pin_5*%
%TO.N,Net-(J3-Pin_5)*%
X133858000Y-114046000D03*
%TD*%
D29*
%TO.P,TP4,1,1*%
%TO.N,+5V*%
X122507459Y-97500000D03*
%TD*%
D35*
%TO.P,SW3,1,1*%
%TO.N,Net-(J6-Pin_2)*%
X61000000Y-104000000D03*
X67500000Y-104000000D03*
%TO.P,SW3,2,2*%
%TO.N,Net-(C12-Pad2)*%
X61000000Y-108500000D03*
X67500000Y-108500000D03*
%TD*%
D41*
%TO.P,U3,1,VIN*%
%TO.N,/Vsys*%
X104634050Y-101269999D03*
%TO.P,U3,2,GND*%
%TO.N,GND*%
X104634050Y-102220000D03*
%TO.P,U3,3,EN*%
%TO.N,/Vsys*%
X104634050Y-103170001D03*
%TO.P,U3,4,NC*%
%TO.N,unconnected-(U3-NC-Pad4)*%
X107389950Y-103170001D03*
%TO.P,U3,5,VOUT*%
%TO.N,+3V3*%
X107389950Y-101269999D03*
%TD*%
D42*
%TO.P,U4,1,VOUT*%
%TO.N,+5V*%
X96069000Y-126762000D03*
%TO.P,U4,2,L2*%
%TO.N,Net-(U4-L2)*%
X96069000Y-127262000D03*
%TO.P,U4,3,PGND*%
%TO.N,GND*%
X96069000Y-127762000D03*
%TO.P,U4,4,L1*%
%TO.N,Net-(U4-L1)*%
X96069000Y-128262000D03*
%TO.P,U4,5,VIN*%
%TO.N,/Vsys*%
X96069000Y-128762000D03*
%TO.P,U4,6,EN*%
%TO.N,/Boost_EN*%
X98869000Y-128762000D03*
%TO.P,U4,7,PS/SYNC*%
%TO.N,Net-(U4-PS{slash}SYNC)*%
X98869000Y-128262000D03*
%TO.P,U4,8,VINA*%
X98869000Y-127762000D03*
%TO.P,U4,9,GND*%
%TO.N,GND*%
X98869000Y-127262000D03*
%TO.P,U4,10,FB*%
%TO.N,+5V*%
X98869000Y-126762000D03*
D43*
%TO.P,U4,11,PGND*%
%TO.N,GND*%
X96894000Y-127762000D03*
X97469000Y-126812000D03*
D44*
X97469000Y-127762000D03*
D43*
X97469000Y-128712000D03*
X98044000Y-127762000D03*
%TD*%
D45*
%TO.N,GND*%
X94250000Y-108250000D03*
X123500000Y-134500000D03*
X102000000Y-104000000D03*
X113250000Y-134500000D03*
X120000000Y-80500000D03*
X95000000Y-120000000D03*
X99850000Y-127362000D03*
X103500000Y-102250000D03*
X92500000Y-120250000D03*
X85000000Y-97250000D03*
X94000000Y-111250000D03*
X109250000Y-104000000D03*
X80750000Y-115250000D03*
X117250000Y-79000000D03*
X113750000Y-120500000D03*
X95198139Y-127551861D03*
X125500000Y-123250000D03*
X96500000Y-79250000D03*
X90500000Y-89000000D03*
X94750000Y-112250000D03*
X95250000Y-79250000D03*
X103250000Y-129750000D03*
X114250000Y-133000000D03*
X81750000Y-96750000D03*
X103000000Y-132000000D03*
X92184669Y-115103067D03*
X103750000Y-104750000D03*
X124500000Y-133000000D03*
X113250000Y-123000000D03*
X90750000Y-80000000D03*
X87500000Y-120000000D03*
X95000000Y-112750000D03*
X81750000Y-94750000D03*
X90250000Y-108250000D03*
X101000000Y-129750000D03*
X93000000Y-132750000D03*
X92179000Y-113877500D03*
%TO.N,+3V3*%
X114856459Y-99651000D03*
X108750000Y-95500000D03*
%TO.N,Net-(C8-Pad2)*%
X92500000Y-102250000D03*
X87000000Y-86250000D03*
%TO.N,/BOOT*%
X116750000Y-95250000D03*
X109500000Y-123500000D03*
%TO.N,/STEP4*%
X110000000Y-95500000D03*
X112750000Y-100750000D03*
%TO.N,/STEP1*%
X100750000Y-89750000D03*
X113750000Y-102750000D03*
%TO.N,/STEP3*%
X100750000Y-92250000D03*
X114000000Y-107750000D03*
%TO.N,/STEP2*%
X114000000Y-105250000D03*
X100750000Y-90750000D03*
%TO.N,/Boost_EN*%
X98500000Y-130000000D03*
X99250000Y-88250000D03*
%TO.N,/IO4*%
X99500000Y-83250000D03*
X132250000Y-93000000D03*
%TO.N,/IO39*%
X116750000Y-89750000D03*
X132000000Y-105750000D03*
%TO.N,/IO5*%
X132250000Y-95500000D03*
X101250000Y-84000000D03*
%TO.N,/IO38*%
X129500000Y-104250000D03*
X116761907Y-91496707D03*
%TO.N,/IO7*%
X132250000Y-100500000D03*
X99250000Y-87250000D03*
%TO.N,/IO6*%
X132250000Y-98000000D03*
X96750000Y-85750000D03*
%TO.N,/Vin*%
X89250000Y-114500000D03*
X86000000Y-93750000D03*
X91250000Y-116750000D03*
%TD*%
D46*
%TO.N,GND*%
X112862000Y-134112000D02*
X113250000Y-134500000D01*
X90637500Y-87750000D02*
X90637500Y-88862500D01*
X91147000Y-120089500D02*
X92339500Y-120089500D01*
X109474000Y-102870000D02*
X109474000Y-103776000D01*
X98869000Y-127262000D02*
X99750000Y-127262000D01*
X99750000Y-127262000D02*
X99850000Y-127362000D01*
X123502000Y-124766000D02*
X125018000Y-123250000D01*
X103989500Y-104989500D02*
X103750000Y-104750000D01*
X92179000Y-115108736D02*
X92184669Y-115103067D01*
X103441000Y-128783500D02*
X103441000Y-129559000D01*
X94372500Y-113377500D02*
X95000000Y-112750000D01*
X88607000Y-119660500D02*
X87839500Y-119660500D01*
X87839500Y-119660500D02*
X87500000Y-120000000D01*
X103989500Y-105664000D02*
X103989500Y-104989500D01*
X92339500Y-120089500D02*
X92500000Y-120250000D01*
X98030000Y-79380000D02*
X96630000Y-79380000D01*
X125018000Y-123250000D02*
X125500000Y-123250000D01*
X80500000Y-96750000D02*
X81750000Y-96750000D01*
X92179000Y-115815000D02*
X92179000Y-115108736D01*
X96069000Y-127762000D02*
X95408278Y-127762000D01*
X103441000Y-129559000D02*
X103250000Y-129750000D01*
X83200000Y-97050000D02*
X84800000Y-97050000D01*
X91968000Y-80387500D02*
X91137500Y-80387500D01*
X116870000Y-79380000D02*
X117250000Y-79000000D01*
X101155000Y-128783500D02*
X101155000Y-129595000D01*
X112114500Y-134112000D02*
X112862000Y-134112000D01*
X121250000Y-81750000D02*
X120000000Y-80500000D01*
X113854000Y-120396000D02*
X113750000Y-120500000D01*
X104634050Y-102220000D02*
X103530000Y-102220000D01*
X93179000Y-111940000D02*
X93310000Y-111940000D01*
X93005500Y-132744500D02*
X93000000Y-132750000D01*
X123502000Y-131266000D02*
X123502000Y-132002000D01*
X95408278Y-127762000D02*
X95198139Y-127551861D01*
X103033500Y-131966500D02*
X103000000Y-132000000D01*
X113502000Y-123252000D02*
X113250000Y-123000000D01*
X93941000Y-119710500D02*
X94710500Y-119710500D01*
X94287500Y-80212500D02*
X95250000Y-79250000D01*
X122234500Y-134112000D02*
X123112000Y-134112000D01*
X80500000Y-94750000D02*
X81750000Y-94750000D01*
X96630000Y-79380000D02*
X96500000Y-79250000D01*
X94116500Y-113377500D02*
X94372500Y-113377500D01*
X94710500Y-119710500D02*
X95000000Y-120000000D01*
X91137500Y-80387500D02*
X90750000Y-80000000D01*
X93005500Y-131048000D02*
X93005500Y-132744500D01*
X90637500Y-88862500D02*
X90500000Y-89000000D01*
X94233500Y-108233500D02*
X94250000Y-108250000D01*
X91401000Y-108233500D02*
X90266500Y-108233500D01*
X103530000Y-102220000D02*
X103500000Y-102250000D01*
X80758000Y-115242000D02*
X80750000Y-115250000D01*
X113502000Y-124766000D02*
X113502000Y-123252000D01*
X115530000Y-79380000D02*
X116870000Y-79380000D01*
X90266500Y-108233500D02*
X90250000Y-108250000D01*
X94122500Y-112877500D02*
X94750000Y-112250000D01*
X115570000Y-120396000D02*
X113854000Y-120396000D01*
X101155000Y-129595000D02*
X101000000Y-129750000D01*
X103033500Y-131048000D02*
X103033500Y-131966500D01*
X123112000Y-134112000D02*
X123500000Y-134500000D01*
X93179000Y-108233500D02*
X94233500Y-108233500D01*
X122507459Y-81750000D02*
X121250000Y-81750000D01*
X84800000Y-97050000D02*
X85000000Y-97250000D01*
X113502000Y-131266000D02*
X113502000Y-132252000D01*
X83014000Y-115242000D02*
X80758000Y-115242000D01*
X102362000Y-103638000D02*
X102000000Y-104000000D01*
X123502000Y-132002000D02*
X124500000Y-133000000D01*
X93310000Y-111940000D02*
X94000000Y-111250000D01*
X109474000Y-103776000D02*
X109250000Y-104000000D01*
X102362000Y-102970500D02*
X102362000Y-103638000D01*
X94000000Y-80212500D02*
X94287500Y-80212500D01*
X94116500Y-112877500D02*
X94122500Y-112877500D01*
X113502000Y-132252000D02*
X114250000Y-133000000D01*
%TO.N,+3V3*%
X91968000Y-82282000D02*
X90500000Y-83750000D01*
X94000000Y-82287500D02*
X95637500Y-80650000D01*
X107389950Y-101269999D02*
X109349001Y-101269999D01*
X108750000Y-86000000D02*
X108750000Y-95500000D01*
X110968000Y-99651000D02*
X109474000Y-101145000D01*
X110250000Y-105405000D02*
X109991000Y-105664000D01*
X91968000Y-82112500D02*
X91968000Y-82282000D01*
X133604000Y-87884000D02*
X126623459Y-87884000D01*
X122507459Y-92000000D02*
X114856459Y-99651000D01*
X98030000Y-80650000D02*
X103400000Y-80650000D01*
X110250000Y-101921000D02*
X110250000Y-105405000D01*
X126623459Y-87884000D02*
X122507459Y-92000000D01*
X109349001Y-101269999D02*
X109474000Y-101145000D01*
X114856459Y-99651000D02*
X110968000Y-99651000D01*
X103400000Y-80650000D02*
X108750000Y-86000000D01*
X94000000Y-82287500D02*
X92143000Y-82287500D01*
X92143000Y-82287500D02*
X91968000Y-82112500D01*
X109474000Y-101145000D02*
X110250000Y-101921000D01*
X90500000Y-83750000D02*
X90500000Y-84298000D01*
X95637500Y-80650000D02*
X98030000Y-80650000D01*
%TO.N,/EN*%
X92362500Y-87750000D02*
X92362500Y-86113500D01*
X92325000Y-84298000D02*
X92325000Y-86076000D01*
X92362500Y-86113500D02*
X92325000Y-86076000D01*
X95120000Y-84298000D02*
X97498000Y-81920000D01*
X92325000Y-84298000D02*
X95120000Y-84298000D01*
X97498000Y-81920000D02*
X98030000Y-81920000D01*
%TO.N,+5V*%
X104500000Y-132899000D02*
X104500000Y-127767500D01*
X96955001Y-125756000D02*
X97982999Y-125756000D01*
X127750000Y-134750000D02*
X126101000Y-136399000D01*
X98869000Y-126762000D02*
X101101500Y-126762000D01*
X122507459Y-97500000D02*
X121007459Y-99000000D01*
X97982999Y-125756000D02*
X98869000Y-126642001D01*
X127750000Y-124556000D02*
X127750000Y-134750000D01*
X121007459Y-118213459D02*
X123190000Y-120396000D01*
X123590000Y-120396000D02*
X127750000Y-124556000D01*
X101155000Y-126708500D02*
X103441000Y-126708500D01*
X104500000Y-127767500D02*
X103441000Y-126708500D01*
X108000000Y-136399000D02*
X104500000Y-132899000D01*
X96069000Y-126642001D02*
X96955001Y-125756000D01*
X101101500Y-126762000D02*
X101155000Y-126708500D01*
X126101000Y-136399000D02*
X108000000Y-136399000D01*
X121007459Y-99000000D02*
X121007459Y-118213459D01*
X130048000Y-120396000D02*
X133858000Y-124206000D01*
X123190000Y-120396000D02*
X130048000Y-120396000D01*
X98869000Y-126642001D02*
X98869000Y-126762000D01*
X123190000Y-120396000D02*
X123590000Y-120396000D01*
X96069000Y-126762000D02*
X96069000Y-126642001D01*
%TO.N,Net-(C8-Pad2)*%
X119002000Y-124766000D02*
X119002000Y-131266000D01*
X116426049Y-118957000D02*
X113794134Y-118957000D01*
X97087134Y-102250000D02*
X92500000Y-102250000D01*
X120509500Y-132773500D02*
X120509500Y-134112000D01*
X87000000Y-86250000D02*
X87500000Y-86250000D01*
X113794134Y-118957000D02*
X97087134Y-102250000D01*
X87674000Y-86076000D02*
X90500000Y-86076000D01*
X87500000Y-86250000D02*
X87674000Y-86076000D01*
X119002000Y-131266000D02*
X120509500Y-132773500D01*
X119002000Y-124766000D02*
X119002000Y-121532951D01*
X119002000Y-121532951D02*
X116426049Y-118957000D01*
%TO.N,/BOOT*%
X109002000Y-131266000D02*
X110389500Y-132653500D01*
X109002000Y-124766000D02*
X109002000Y-123998000D01*
X116750000Y-95250000D02*
X116110000Y-95890000D01*
X109002000Y-123998000D02*
X109500000Y-123500000D01*
X109002000Y-131266000D02*
X109002000Y-124766000D01*
X110389500Y-132653500D02*
X110389500Y-134112000D01*
X116110000Y-95890000D02*
X115530000Y-95890000D01*
%TO.N,Net-(U4-PS{slash}SYNC)*%
X99470000Y-130597500D02*
X99470000Y-128550808D01*
X99470000Y-128550808D02*
X99181192Y-128262000D01*
X99019500Y-131048000D02*
X99470000Y-130597500D01*
X101308500Y-131048000D02*
X99019500Y-131048000D01*
X99181192Y-128262000D02*
X98869000Y-128262000D01*
X98869000Y-128262000D02*
X98869000Y-127762000D01*
%TO.N,Net-(D3-K)*%
X107941000Y-105664000D02*
X105814500Y-105664000D01*
%TO.N,Net-(U4-L1)*%
X93535000Y-128821000D02*
X94094000Y-128262000D01*
X94094000Y-128262000D02*
X96069000Y-128262000D01*
%TO.N,/USB-D-*%
X83200000Y-95100000D02*
X83213603Y-95100000D01*
X84176000Y-94718870D02*
X84176000Y-94620000D01*
X83362603Y-94951000D02*
X83943870Y-94951000D01*
X83943870Y-94951000D02*
X84176000Y-94718870D01*
X84176000Y-94620000D02*
X98030000Y-94620000D01*
X83213603Y-95100000D02*
X83362603Y-94951000D01*
%TO.N,/USB-D+*%
X83943870Y-95601000D02*
X84474869Y-95070001D01*
X97511000Y-95371000D02*
X98030000Y-95890000D01*
X83200000Y-95750000D02*
X83349000Y-95601000D01*
X84474869Y-95070001D02*
X96979000Y-95070001D01*
X96979000Y-95070001D02*
X96979000Y-95371000D01*
X83349000Y-95601000D02*
X83943870Y-95601000D01*
X96979000Y-95371000D02*
X97511000Y-95371000D01*
%TO.N,Net-(J3-Pin_3)*%
X123190000Y-107696000D02*
X133858000Y-118364000D01*
X133858000Y-118364000D02*
X133858000Y-119126000D01*
%TO.N,Net-(U4-L2)*%
X95165808Y-126671000D02*
X93535000Y-126671000D01*
X95756808Y-127262000D02*
X95165808Y-126671000D01*
X96069000Y-127262000D02*
X95756808Y-127262000D01*
%TO.N,/STEP4*%
X110000000Y-97095000D02*
X109955000Y-97140000D01*
X110000000Y-95500000D02*
X110000000Y-97095000D01*
X112750000Y-107416000D02*
X112750000Y-100750000D01*
X115570000Y-110236000D02*
X112750000Y-107416000D01*
%TO.N,/STEP1*%
X115570000Y-102616000D02*
X113884000Y-102616000D01*
X100750000Y-89750000D02*
X100540000Y-89540000D01*
X113884000Y-102616000D02*
X113750000Y-102750000D01*
X100540000Y-89540000D02*
X98030000Y-89540000D01*
%TO.N,/STEP3*%
X100330000Y-92080000D02*
X98030000Y-92080000D01*
X100500000Y-92250000D02*
X100330000Y-92080000D01*
X115570000Y-107696000D02*
X114054000Y-107696000D01*
X100750000Y-92250000D02*
X100500000Y-92250000D01*
X114054000Y-107696000D02*
X114000000Y-107750000D01*
%TO.N,/STEP2*%
X100750000Y-90750000D02*
X100690000Y-90810000D01*
X100690000Y-90810000D02*
X98030000Y-90810000D01*
X115570000Y-105156000D02*
X114094000Y-105156000D01*
X114094000Y-105156000D02*
X114000000Y-105250000D01*
%TO.N,/Boost_EN*%
X99250000Y-88250000D02*
X98050000Y-88250000D01*
X98869000Y-128762000D02*
X98869000Y-129631000D01*
X98869000Y-129631000D02*
X98500000Y-130000000D01*
X98050000Y-88250000D02*
X98030000Y-88270000D01*
%TO.N,Net-(C12-Pad2)*%
X60837500Y-108662500D02*
X61000000Y-108500000D01*
X56750000Y-108662500D02*
X60837500Y-108662500D01*
X68637500Y-107362500D02*
X72000000Y-107362500D01*
X67500000Y-108500000D02*
X68637500Y-107362500D01*
X67500000Y-108500000D02*
X61000000Y-108500000D01*
%TO.N,Net-(J6-Pin_2)*%
X72000000Y-105637500D02*
X69137500Y-105637500D01*
X67500000Y-104000000D02*
X61000000Y-104000000D01*
X65790000Y-102290000D02*
X65790000Y-97475000D01*
X69137500Y-105637500D02*
X67500000Y-104000000D01*
X67500000Y-104000000D02*
X65790000Y-102290000D01*
%TO.N,/IO4*%
X133604000Y-92964000D02*
X132286000Y-92964000D01*
X99500000Y-83250000D02*
X98090000Y-83250000D01*
X132286000Y-92964000D02*
X132250000Y-93000000D01*
X98090000Y-83250000D02*
X98030000Y-83190000D01*
%TO.N,/IO39*%
X133604000Y-105664000D02*
X132086000Y-105664000D01*
X116750000Y-89750000D02*
X115740000Y-89750000D01*
X132086000Y-105664000D02*
X132000000Y-105750000D01*
X115740000Y-89750000D02*
X115530000Y-89540000D01*
%TO.N,/IO5*%
X132254000Y-95504000D02*
X132250000Y-95500000D01*
X100790000Y-84460000D02*
X98030000Y-84460000D01*
X101250000Y-84000000D02*
X100790000Y-84460000D01*
X133604000Y-95504000D02*
X132254000Y-95504000D01*
%TO.N,/IO38*%
X132478000Y-104250000D02*
X129500000Y-104250000D01*
X116075200Y-90810000D02*
X115530000Y-90810000D01*
X116761907Y-91496707D02*
X116075200Y-90810000D01*
X133604000Y-103124000D02*
X132478000Y-104250000D01*
%TO.N,/IO7*%
X133604000Y-100584000D02*
X132334000Y-100584000D01*
X98280000Y-87250000D02*
X98030000Y-87000000D01*
X99250000Y-87250000D02*
X98280000Y-87250000D01*
X132334000Y-100584000D02*
X132250000Y-100500000D01*
%TO.N,/IO6*%
X98010000Y-85750000D02*
X98030000Y-85730000D01*
X132294000Y-98044000D02*
X132250000Y-98000000D01*
X133604000Y-98044000D02*
X132294000Y-98044000D01*
X96750000Y-85750000D02*
X98010000Y-85750000D01*
%TO.N,Net-(J6-Pin_1)*%
X63250000Y-97475000D02*
X56750000Y-103975000D01*
X56750000Y-103975000D02*
X56750000Y-106837500D01*
%TO.N,/Vsys*%
X89058500Y-117935500D02*
X91179000Y-115815000D01*
X86792500Y-119750000D02*
X88607000Y-117935500D01*
X95080500Y-131048000D02*
X97194500Y-131048000D01*
X94054500Y-130022000D02*
X95080500Y-131048000D01*
X102362000Y-101245500D02*
X104609551Y-101245500D01*
X88607000Y-117935500D02*
X89058500Y-117935500D01*
X104634050Y-103170001D02*
X105041699Y-103170001D01*
X91179000Y-115815000D02*
X90241500Y-114877500D01*
X105436700Y-101824999D02*
X104881700Y-101269999D01*
X117500000Y-95722000D02*
X117500000Y-89500000D01*
X89383000Y-126680160D02*
X92724840Y-130022000D01*
X95032500Y-131000000D02*
X95032500Y-129798500D01*
X104609551Y-101245500D02*
X104634050Y-101269999D01*
X102362000Y-101245500D02*
X92004500Y-101245500D01*
X105041699Y-103170001D02*
X105436700Y-102775000D01*
X88607000Y-117935500D02*
X89383000Y-118711500D01*
X120250000Y-86750000D02*
X122507459Y-86750000D01*
X117500000Y-89500000D02*
X120250000Y-86750000D01*
X104634050Y-101269999D02*
X106654049Y-99250000D01*
X92004500Y-101245500D02*
X79750000Y-113500000D01*
X105436700Y-102775000D02*
X105436700Y-101824999D01*
X113972000Y-99250000D02*
X117500000Y-95722000D01*
X79750000Y-113500000D02*
X79750000Y-118750000D01*
X104881700Y-101269999D02*
X104634050Y-101269999D01*
X106654049Y-99250000D02*
X113972000Y-99250000D01*
X95032500Y-129798500D02*
X96069000Y-128762000D01*
X95080500Y-131048000D02*
X95032500Y-131000000D01*
X89383000Y-118711500D02*
X89383000Y-126680160D01*
X79750000Y-118750000D02*
X80750000Y-119750000D01*
X92724840Y-130022000D02*
X94054500Y-130022000D01*
X80750000Y-119750000D02*
X86792500Y-119750000D01*
%TO.N,/Vin*%
X93473866Y-118674000D02*
X92679000Y-117879134D01*
X91679000Y-116321000D02*
X91250000Y-116750000D01*
X91679000Y-116250000D02*
X91679000Y-115815000D01*
X83947430Y-93750000D02*
X86000000Y-93750000D01*
X91679000Y-115815000D02*
X91679000Y-116321000D01*
X90241500Y-113377500D02*
X90241500Y-113877500D01*
X91957500Y-116528500D02*
X91679000Y-116250000D01*
X106029500Y-116004000D02*
X103359500Y-118674000D01*
X106029500Y-114226000D02*
X106029500Y-116004000D01*
X91679000Y-117482500D02*
X91679000Y-115815000D01*
X106029500Y-112448000D02*
X106029500Y-114226000D01*
X89250000Y-114500000D02*
X89372500Y-114377500D01*
X92679000Y-116243298D02*
X92393798Y-116528500D01*
X103359500Y-118674000D02*
X93473866Y-118674000D01*
X92679000Y-115815000D02*
X92679000Y-116243298D01*
X91147000Y-118014500D02*
X91679000Y-117482500D01*
X89372500Y-114377500D02*
X90241500Y-114377500D01*
X90241500Y-113877500D02*
X90241500Y-114377500D01*
X92679000Y-117879134D02*
X92679000Y-115815000D01*
X83200000Y-94450000D02*
X83247430Y-94450000D01*
X83247430Y-94450000D02*
X83947430Y-93750000D01*
X92393798Y-116528500D02*
X91957500Y-116528500D01*
%TO.N,Net-(D5-A)*%
X103950500Y-115750000D02*
X104204500Y-116004000D01*
X100300000Y-115750000D02*
X103950500Y-115750000D01*
%TO.N,Net-(D5-K)*%
X97377500Y-114877500D02*
X98250000Y-115750000D01*
X94116500Y-114877500D02*
X97377500Y-114877500D01*
%TO.N,Net-(D6-K)*%
X97572000Y-111178000D02*
X98250000Y-111178000D01*
X94872500Y-113877500D02*
X97572000Y-111178000D01*
X94116500Y-113877500D02*
X94872500Y-113877500D01*
%TO.N,Net-(D6-A)*%
X102934500Y-111178000D02*
X104204500Y-112448000D01*
X100300000Y-111178000D02*
X102934500Y-111178000D01*
%TO.N,Net-(D7-K)*%
X97336500Y-114377500D02*
X98250000Y-113464000D01*
X94116500Y-114377500D02*
X97336500Y-114377500D01*
%TO.N,Net-(D7-A)*%
X103442500Y-113464000D02*
X104204500Y-114226000D01*
X100300000Y-113464000D02*
X103442500Y-113464000D01*
%TO.N,Net-(J1-Pin_2)*%
X91679000Y-111940000D02*
X91179000Y-111940000D01*
X91179000Y-111940000D02*
X90241500Y-112877500D01*
X85554000Y-115242000D02*
X87918500Y-112877500D01*
X87918500Y-112877500D02*
X90241500Y-112877500D01*
%TO.N,Net-(U6-PROG1)*%
X92179000Y-110836500D02*
X92179000Y-111940000D01*
X91401000Y-110058500D02*
X92179000Y-110836500D01*
%TO.N,Net-(U6-PROG3)*%
X93179000Y-110058500D02*
X92679000Y-110558500D01*
X92679000Y-110558500D02*
X92679000Y-111940000D01*
%TO.N,Net-(U6-THERM)*%
X93179000Y-117123500D02*
X93941000Y-117885500D01*
X93179000Y-115815000D02*
X93179000Y-117123500D01*
%TO.N,Net-(J3-Pin_2)*%
X123190000Y-110236000D02*
X133858000Y-120904000D01*
X133858000Y-120904000D02*
X133858000Y-121666000D01*
%TO.N,Net-(J3-Pin_4)*%
X123190000Y-105156000D02*
X124691000Y-106657000D01*
X124691000Y-106657000D02*
X124691000Y-107419000D01*
X124691000Y-107419000D02*
X133858000Y-116586000D01*
%TO.N,Net-(J3-Pin_5)*%
X123190000Y-102616000D02*
X133858000Y-113284000D01*
X133858000Y-113284000D02*
X133858000Y-114046000D01*
%TD*%
M02*
