%TF.GenerationSoftware,KiCad,Pcbnew,9.0.7*%
%TF.CreationDate,2026-04-23T16:24:15-04:00*%
%TF.ProjectId,RFID_bikelock,52464944-5f62-4696-9b65-6c6f636b2e6b,rev?*%
%TF.SameCoordinates,Original*%
%TF.FileFunction,Legend,Top*%
%TF.FilePolarity,Positive*%
%FSLAX46Y46*%
G04 Gerber Fmt 4.6, Leading zero omitted, Abs format (unit mm)*
G04 Created by KiCad (PCBNEW 9.0.7) date 2026-04-23 16:24:15*
%MOMM*%
%LPD*%
G01*
G04 APERTURE LIST*
%ADD10C,0.150000*%
%ADD11C,0.100000*%
%ADD12C,0.125000*%
%ADD13C,0.200000*%
%ADD14C,0.187500*%
%ADD15C,0.120000*%
%ADD16C,0.152400*%
G04 APERTURE END LIST*
D10*
X93007779Y-107237819D02*
X93007779Y-106237819D01*
X93007779Y-106237819D02*
X93388731Y-106237819D01*
X93388731Y-106237819D02*
X93483969Y-106285438D01*
X93483969Y-106285438D02*
X93531588Y-106333057D01*
X93531588Y-106333057D02*
X93579207Y-106428295D01*
X93579207Y-106428295D02*
X93579207Y-106571152D01*
X93579207Y-106571152D02*
X93531588Y-106666390D01*
X93531588Y-106666390D02*
X93483969Y-106714009D01*
X93483969Y-106714009D02*
X93388731Y-106761628D01*
X93388731Y-106761628D02*
X93007779Y-106761628D01*
X94579207Y-107237819D02*
X94245874Y-106761628D01*
X94007779Y-107237819D02*
X94007779Y-106237819D01*
X94007779Y-106237819D02*
X94388731Y-106237819D01*
X94388731Y-106237819D02*
X94483969Y-106285438D01*
X94483969Y-106285438D02*
X94531588Y-106333057D01*
X94531588Y-106333057D02*
X94579207Y-106428295D01*
X94579207Y-106428295D02*
X94579207Y-106571152D01*
X94579207Y-106571152D02*
X94531588Y-106666390D01*
X94531588Y-106666390D02*
X94483969Y-106714009D01*
X94483969Y-106714009D02*
X94388731Y-106761628D01*
X94388731Y-106761628D02*
X94007779Y-106761628D01*
X95198255Y-106237819D02*
X95388731Y-106237819D01*
X95388731Y-106237819D02*
X95483969Y-106285438D01*
X95483969Y-106285438D02*
X95579207Y-106380676D01*
X95579207Y-106380676D02*
X95626826Y-106571152D01*
X95626826Y-106571152D02*
X95626826Y-106904485D01*
X95626826Y-106904485D02*
X95579207Y-107094961D01*
X95579207Y-107094961D02*
X95483969Y-107190200D01*
X95483969Y-107190200D02*
X95388731Y-107237819D01*
X95388731Y-107237819D02*
X95198255Y-107237819D01*
X95198255Y-107237819D02*
X95103017Y-107190200D01*
X95103017Y-107190200D02*
X95007779Y-107094961D01*
X95007779Y-107094961D02*
X94960160Y-106904485D01*
X94960160Y-106904485D02*
X94960160Y-106571152D01*
X94960160Y-106571152D02*
X95007779Y-106380676D01*
X95007779Y-106380676D02*
X95103017Y-106285438D01*
X95103017Y-106285438D02*
X95198255Y-106237819D01*
X96579207Y-106285438D02*
X96483969Y-106237819D01*
X96483969Y-106237819D02*
X96341112Y-106237819D01*
X96341112Y-106237819D02*
X96198255Y-106285438D01*
X96198255Y-106285438D02*
X96103017Y-106380676D01*
X96103017Y-106380676D02*
X96055398Y-106475914D01*
X96055398Y-106475914D02*
X96007779Y-106666390D01*
X96007779Y-106666390D02*
X96007779Y-106809247D01*
X96007779Y-106809247D02*
X96055398Y-106999723D01*
X96055398Y-106999723D02*
X96103017Y-107094961D01*
X96103017Y-107094961D02*
X96198255Y-107190200D01*
X96198255Y-107190200D02*
X96341112Y-107237819D01*
X96341112Y-107237819D02*
X96436350Y-107237819D01*
X96436350Y-107237819D02*
X96579207Y-107190200D01*
X96579207Y-107190200D02*
X96626826Y-107142580D01*
X96626826Y-107142580D02*
X96626826Y-106809247D01*
X96626826Y-106809247D02*
X96436350Y-106809247D01*
X96960160Y-106237819D02*
X97579207Y-106237819D01*
X97579207Y-106237819D02*
X97245874Y-106618771D01*
X97245874Y-106618771D02*
X97388731Y-106618771D01*
X97388731Y-106618771D02*
X97483969Y-106666390D01*
X97483969Y-106666390D02*
X97531588Y-106714009D01*
X97531588Y-106714009D02*
X97579207Y-106809247D01*
X97579207Y-106809247D02*
X97579207Y-107047342D01*
X97579207Y-107047342D02*
X97531588Y-107142580D01*
X97531588Y-107142580D02*
X97483969Y-107190200D01*
X97483969Y-107190200D02*
X97388731Y-107237819D01*
X97388731Y-107237819D02*
X97103017Y-107237819D01*
X97103017Y-107237819D02*
X97007779Y-107190200D01*
X97007779Y-107190200D02*
X96960160Y-107142580D01*
D11*
X101563265Y-112939657D02*
X101610884Y-112892038D01*
X101610884Y-112892038D02*
X101706122Y-112844419D01*
X101706122Y-112844419D02*
X101944217Y-112844419D01*
X101944217Y-112844419D02*
X102039455Y-112892038D01*
X102039455Y-112892038D02*
X102087074Y-112939657D01*
X102087074Y-112939657D02*
X102134693Y-113034895D01*
X102134693Y-113034895D02*
X102134693Y-113130133D01*
X102134693Y-113130133D02*
X102087074Y-113272990D01*
X102087074Y-113272990D02*
X101515646Y-113844419D01*
X101515646Y-113844419D02*
X102134693Y-113844419D01*
X118271027Y-78374419D02*
X118842455Y-78374419D01*
X118556741Y-79374419D02*
X118556741Y-78374419D01*
X119556741Y-79326800D02*
X119461503Y-79374419D01*
X119461503Y-79374419D02*
X119271027Y-79374419D01*
X119271027Y-79374419D02*
X119175789Y-79326800D01*
X119175789Y-79326800D02*
X119128170Y-79231561D01*
X119128170Y-79231561D02*
X119128170Y-78850609D01*
X119128170Y-78850609D02*
X119175789Y-78755371D01*
X119175789Y-78755371D02*
X119271027Y-78707752D01*
X119271027Y-78707752D02*
X119461503Y-78707752D01*
X119461503Y-78707752D02*
X119556741Y-78755371D01*
X119556741Y-78755371D02*
X119604360Y-78850609D01*
X119604360Y-78850609D02*
X119604360Y-78945847D01*
X119604360Y-78945847D02*
X119128170Y-79041085D01*
X119985313Y-79326800D02*
X120080551Y-79374419D01*
X120080551Y-79374419D02*
X120271027Y-79374419D01*
X120271027Y-79374419D02*
X120366265Y-79326800D01*
X120366265Y-79326800D02*
X120413884Y-79231561D01*
X120413884Y-79231561D02*
X120413884Y-79183942D01*
X120413884Y-79183942D02*
X120366265Y-79088704D01*
X120366265Y-79088704D02*
X120271027Y-79041085D01*
X120271027Y-79041085D02*
X120128170Y-79041085D01*
X120128170Y-79041085D02*
X120032932Y-78993466D01*
X120032932Y-78993466D02*
X119985313Y-78898228D01*
X119985313Y-78898228D02*
X119985313Y-78850609D01*
X119985313Y-78850609D02*
X120032932Y-78755371D01*
X120032932Y-78755371D02*
X120128170Y-78707752D01*
X120128170Y-78707752D02*
X120271027Y-78707752D01*
X120271027Y-78707752D02*
X120366265Y-78755371D01*
X120699599Y-78707752D02*
X121080551Y-78707752D01*
X120842456Y-78374419D02*
X120842456Y-79231561D01*
X120842456Y-79231561D02*
X120890075Y-79326800D01*
X120890075Y-79326800D02*
X120985313Y-79374419D01*
X120985313Y-79374419D02*
X121080551Y-79374419D01*
X122175790Y-79374419D02*
X122175790Y-78374419D01*
X122175790Y-78374419D02*
X122556742Y-78374419D01*
X122556742Y-78374419D02*
X122651980Y-78422038D01*
X122651980Y-78422038D02*
X122699599Y-78469657D01*
X122699599Y-78469657D02*
X122747218Y-78564895D01*
X122747218Y-78564895D02*
X122747218Y-78707752D01*
X122747218Y-78707752D02*
X122699599Y-78802990D01*
X122699599Y-78802990D02*
X122651980Y-78850609D01*
X122651980Y-78850609D02*
X122556742Y-78898228D01*
X122556742Y-78898228D02*
X122175790Y-78898228D01*
X123318647Y-79374419D02*
X123223409Y-79326800D01*
X123223409Y-79326800D02*
X123175790Y-79279180D01*
X123175790Y-79279180D02*
X123128171Y-79183942D01*
X123128171Y-79183942D02*
X123128171Y-78898228D01*
X123128171Y-78898228D02*
X123175790Y-78802990D01*
X123175790Y-78802990D02*
X123223409Y-78755371D01*
X123223409Y-78755371D02*
X123318647Y-78707752D01*
X123318647Y-78707752D02*
X123461504Y-78707752D01*
X123461504Y-78707752D02*
X123556742Y-78755371D01*
X123556742Y-78755371D02*
X123604361Y-78802990D01*
X123604361Y-78802990D02*
X123651980Y-78898228D01*
X123651980Y-78898228D02*
X123651980Y-79183942D01*
X123651980Y-79183942D02*
X123604361Y-79279180D01*
X123604361Y-79279180D02*
X123556742Y-79326800D01*
X123556742Y-79326800D02*
X123461504Y-79374419D01*
X123461504Y-79374419D02*
X123318647Y-79374419D01*
X124080552Y-79374419D02*
X124080552Y-78707752D01*
X124080552Y-78374419D02*
X124032933Y-78422038D01*
X124032933Y-78422038D02*
X124080552Y-78469657D01*
X124080552Y-78469657D02*
X124128171Y-78422038D01*
X124128171Y-78422038D02*
X124080552Y-78374419D01*
X124080552Y-78374419D02*
X124080552Y-78469657D01*
X124556742Y-78707752D02*
X124556742Y-79374419D01*
X124556742Y-78802990D02*
X124604361Y-78755371D01*
X124604361Y-78755371D02*
X124699599Y-78707752D01*
X124699599Y-78707752D02*
X124842456Y-78707752D01*
X124842456Y-78707752D02*
X124937694Y-78755371D01*
X124937694Y-78755371D02*
X124985313Y-78850609D01*
X124985313Y-78850609D02*
X124985313Y-79374419D01*
X125318647Y-78707752D02*
X125699599Y-78707752D01*
X125461504Y-78374419D02*
X125461504Y-79231561D01*
X125461504Y-79231561D02*
X125509123Y-79326800D01*
X125509123Y-79326800D02*
X125604361Y-79374419D01*
X125604361Y-79374419D02*
X125699599Y-79374419D01*
X125985314Y-79326800D02*
X126080552Y-79374419D01*
X126080552Y-79374419D02*
X126271028Y-79374419D01*
X126271028Y-79374419D02*
X126366266Y-79326800D01*
X126366266Y-79326800D02*
X126413885Y-79231561D01*
X126413885Y-79231561D02*
X126413885Y-79183942D01*
X126413885Y-79183942D02*
X126366266Y-79088704D01*
X126366266Y-79088704D02*
X126271028Y-79041085D01*
X126271028Y-79041085D02*
X126128171Y-79041085D01*
X126128171Y-79041085D02*
X126032933Y-78993466D01*
X126032933Y-78993466D02*
X125985314Y-78898228D01*
X125985314Y-78898228D02*
X125985314Y-78850609D01*
X125985314Y-78850609D02*
X126032933Y-78755371D01*
X126032933Y-78755371D02*
X126128171Y-78707752D01*
X126128171Y-78707752D02*
X126271028Y-78707752D01*
X126271028Y-78707752D02*
X126366266Y-78755371D01*
X119287533Y-97122419D02*
X118811343Y-97122419D01*
X118811343Y-97122419D02*
X118763724Y-97598609D01*
X118763724Y-97598609D02*
X118811343Y-97550990D01*
X118811343Y-97550990D02*
X118906581Y-97503371D01*
X118906581Y-97503371D02*
X119144676Y-97503371D01*
X119144676Y-97503371D02*
X119239914Y-97550990D01*
X119239914Y-97550990D02*
X119287533Y-97598609D01*
X119287533Y-97598609D02*
X119335152Y-97693847D01*
X119335152Y-97693847D02*
X119335152Y-97931942D01*
X119335152Y-97931942D02*
X119287533Y-98027180D01*
X119287533Y-98027180D02*
X119239914Y-98074800D01*
X119239914Y-98074800D02*
X119144676Y-98122419D01*
X119144676Y-98122419D02*
X118906581Y-98122419D01*
X118906581Y-98122419D02*
X118811343Y-98074800D01*
X118811343Y-98074800D02*
X118763724Y-98027180D01*
X119620867Y-97122419D02*
X119954200Y-98122419D01*
X119954200Y-98122419D02*
X120287533Y-97122419D01*
D12*
X97970331Y-117431666D02*
X98732236Y-117431666D01*
X99970331Y-117431666D02*
X100732236Y-117431666D01*
X100351283Y-117812619D02*
X100351283Y-117050714D01*
X129424331Y-95915119D02*
X129424331Y-94915119D01*
X130090997Y-94915119D02*
X130281473Y-94915119D01*
X130281473Y-94915119D02*
X130376711Y-94962738D01*
X130376711Y-94962738D02*
X130471949Y-95057976D01*
X130471949Y-95057976D02*
X130519568Y-95248452D01*
X130519568Y-95248452D02*
X130519568Y-95581785D01*
X130519568Y-95581785D02*
X130471949Y-95772261D01*
X130471949Y-95772261D02*
X130376711Y-95867500D01*
X130376711Y-95867500D02*
X130281473Y-95915119D01*
X130281473Y-95915119D02*
X130090997Y-95915119D01*
X130090997Y-95915119D02*
X129995759Y-95867500D01*
X129995759Y-95867500D02*
X129900521Y-95772261D01*
X129900521Y-95772261D02*
X129852902Y-95581785D01*
X129852902Y-95581785D02*
X129852902Y-95248452D01*
X129852902Y-95248452D02*
X129900521Y-95057976D01*
X129900521Y-95057976D02*
X129995759Y-94962738D01*
X129995759Y-94962738D02*
X130090997Y-94915119D01*
X131424330Y-94915119D02*
X130948140Y-94915119D01*
X130948140Y-94915119D02*
X130900521Y-95391309D01*
X130900521Y-95391309D02*
X130948140Y-95343690D01*
X130948140Y-95343690D02*
X131043378Y-95296071D01*
X131043378Y-95296071D02*
X131281473Y-95296071D01*
X131281473Y-95296071D02*
X131376711Y-95343690D01*
X131376711Y-95343690D02*
X131424330Y-95391309D01*
X131424330Y-95391309D02*
X131471949Y-95486547D01*
X131471949Y-95486547D02*
X131471949Y-95724642D01*
X131471949Y-95724642D02*
X131424330Y-95819880D01*
X131424330Y-95819880D02*
X131376711Y-95867500D01*
X131376711Y-95867500D02*
X131281473Y-95915119D01*
X131281473Y-95915119D02*
X131043378Y-95915119D01*
X131043378Y-95915119D02*
X130948140Y-95867500D01*
X130948140Y-95867500D02*
X130900521Y-95819880D01*
X128829093Y-87415119D02*
X129448140Y-87415119D01*
X129448140Y-87415119D02*
X129114807Y-87796071D01*
X129114807Y-87796071D02*
X129257664Y-87796071D01*
X129257664Y-87796071D02*
X129352902Y-87843690D01*
X129352902Y-87843690D02*
X129400521Y-87891309D01*
X129400521Y-87891309D02*
X129448140Y-87986547D01*
X129448140Y-87986547D02*
X129448140Y-88224642D01*
X129448140Y-88224642D02*
X129400521Y-88319880D01*
X129400521Y-88319880D02*
X129352902Y-88367500D01*
X129352902Y-88367500D02*
X129257664Y-88415119D01*
X129257664Y-88415119D02*
X128971950Y-88415119D01*
X128971950Y-88415119D02*
X128876712Y-88367500D01*
X128876712Y-88367500D02*
X128829093Y-88319880D01*
X129781474Y-87748452D02*
X130019569Y-88415119D01*
X130019569Y-88415119D02*
X130257664Y-87748452D01*
X130543379Y-87415119D02*
X131162426Y-87415119D01*
X131162426Y-87415119D02*
X130829093Y-87796071D01*
X130829093Y-87796071D02*
X130971950Y-87796071D01*
X130971950Y-87796071D02*
X131067188Y-87843690D01*
X131067188Y-87843690D02*
X131114807Y-87891309D01*
X131114807Y-87891309D02*
X131162426Y-87986547D01*
X131162426Y-87986547D02*
X131162426Y-88224642D01*
X131162426Y-88224642D02*
X131114807Y-88319880D01*
X131114807Y-88319880D02*
X131067188Y-88367500D01*
X131067188Y-88367500D02*
X130971950Y-88415119D01*
X130971950Y-88415119D02*
X130686236Y-88415119D01*
X130686236Y-88415119D02*
X130590998Y-88367500D01*
X130590998Y-88367500D02*
X130543379Y-88319880D01*
X129424331Y-98415119D02*
X129424331Y-97415119D01*
X130090997Y-97415119D02*
X130281473Y-97415119D01*
X130281473Y-97415119D02*
X130376711Y-97462738D01*
X130376711Y-97462738D02*
X130471949Y-97557976D01*
X130471949Y-97557976D02*
X130519568Y-97748452D01*
X130519568Y-97748452D02*
X130519568Y-98081785D01*
X130519568Y-98081785D02*
X130471949Y-98272261D01*
X130471949Y-98272261D02*
X130376711Y-98367500D01*
X130376711Y-98367500D02*
X130281473Y-98415119D01*
X130281473Y-98415119D02*
X130090997Y-98415119D01*
X130090997Y-98415119D02*
X129995759Y-98367500D01*
X129995759Y-98367500D02*
X129900521Y-98272261D01*
X129900521Y-98272261D02*
X129852902Y-98081785D01*
X129852902Y-98081785D02*
X129852902Y-97748452D01*
X129852902Y-97748452D02*
X129900521Y-97557976D01*
X129900521Y-97557976D02*
X129995759Y-97462738D01*
X129995759Y-97462738D02*
X130090997Y-97415119D01*
X131376711Y-97415119D02*
X131186235Y-97415119D01*
X131186235Y-97415119D02*
X131090997Y-97462738D01*
X131090997Y-97462738D02*
X131043378Y-97510357D01*
X131043378Y-97510357D02*
X130948140Y-97653214D01*
X130948140Y-97653214D02*
X130900521Y-97843690D01*
X130900521Y-97843690D02*
X130900521Y-98224642D01*
X130900521Y-98224642D02*
X130948140Y-98319880D01*
X130948140Y-98319880D02*
X130995759Y-98367500D01*
X130995759Y-98367500D02*
X131090997Y-98415119D01*
X131090997Y-98415119D02*
X131281473Y-98415119D01*
X131281473Y-98415119D02*
X131376711Y-98367500D01*
X131376711Y-98367500D02*
X131424330Y-98319880D01*
X131424330Y-98319880D02*
X131471949Y-98224642D01*
X131471949Y-98224642D02*
X131471949Y-97986547D01*
X131471949Y-97986547D02*
X131424330Y-97891309D01*
X131424330Y-97891309D02*
X131376711Y-97843690D01*
X131376711Y-97843690D02*
X131281473Y-97796071D01*
X131281473Y-97796071D02*
X131090997Y-97796071D01*
X131090997Y-97796071D02*
X130995759Y-97843690D01*
X130995759Y-97843690D02*
X130948140Y-97891309D01*
X130948140Y-97891309D02*
X130900521Y-97986547D01*
X129448140Y-89962738D02*
X129352902Y-89915119D01*
X129352902Y-89915119D02*
X129210045Y-89915119D01*
X129210045Y-89915119D02*
X129067188Y-89962738D01*
X129067188Y-89962738D02*
X128971950Y-90057976D01*
X128971950Y-90057976D02*
X128924331Y-90153214D01*
X128924331Y-90153214D02*
X128876712Y-90343690D01*
X128876712Y-90343690D02*
X128876712Y-90486547D01*
X128876712Y-90486547D02*
X128924331Y-90677023D01*
X128924331Y-90677023D02*
X128971950Y-90772261D01*
X128971950Y-90772261D02*
X129067188Y-90867500D01*
X129067188Y-90867500D02*
X129210045Y-90915119D01*
X129210045Y-90915119D02*
X129305283Y-90915119D01*
X129305283Y-90915119D02*
X129448140Y-90867500D01*
X129448140Y-90867500D02*
X129495759Y-90819880D01*
X129495759Y-90819880D02*
X129495759Y-90486547D01*
X129495759Y-90486547D02*
X129305283Y-90486547D01*
X129924331Y-90915119D02*
X129924331Y-89915119D01*
X129924331Y-89915119D02*
X130495759Y-90915119D01*
X130495759Y-90915119D02*
X130495759Y-89915119D01*
X130971950Y-90915119D02*
X130971950Y-89915119D01*
X130971950Y-89915119D02*
X131210045Y-89915119D01*
X131210045Y-89915119D02*
X131352902Y-89962738D01*
X131352902Y-89962738D02*
X131448140Y-90057976D01*
X131448140Y-90057976D02*
X131495759Y-90153214D01*
X131495759Y-90153214D02*
X131543378Y-90343690D01*
X131543378Y-90343690D02*
X131543378Y-90486547D01*
X131543378Y-90486547D02*
X131495759Y-90677023D01*
X131495759Y-90677023D02*
X131448140Y-90772261D01*
X131448140Y-90772261D02*
X131352902Y-90867500D01*
X131352902Y-90867500D02*
X131210045Y-90915119D01*
X131210045Y-90915119D02*
X130971950Y-90915119D01*
D13*
X101620435Y-107071219D02*
X102239482Y-107071219D01*
X102239482Y-107071219D02*
X101906149Y-107452171D01*
X101906149Y-107452171D02*
X102049006Y-107452171D01*
X102049006Y-107452171D02*
X102144244Y-107499790D01*
X102144244Y-107499790D02*
X102191863Y-107547409D01*
X102191863Y-107547409D02*
X102239482Y-107642647D01*
X102239482Y-107642647D02*
X102239482Y-107880742D01*
X102239482Y-107880742D02*
X102191863Y-107975980D01*
X102191863Y-107975980D02*
X102144244Y-108023600D01*
X102144244Y-108023600D02*
X102049006Y-108071219D01*
X102049006Y-108071219D02*
X101763292Y-108071219D01*
X101763292Y-108071219D02*
X101668054Y-108023600D01*
X101668054Y-108023600D02*
X101620435Y-107975980D01*
X102668054Y-107975980D02*
X102715673Y-108023600D01*
X102715673Y-108023600D02*
X102668054Y-108071219D01*
X102668054Y-108071219D02*
X102620435Y-108023600D01*
X102620435Y-108023600D02*
X102668054Y-107975980D01*
X102668054Y-107975980D02*
X102668054Y-108071219D01*
X103049006Y-107071219D02*
X103668053Y-107071219D01*
X103668053Y-107071219D02*
X103334720Y-107452171D01*
X103334720Y-107452171D02*
X103477577Y-107452171D01*
X103477577Y-107452171D02*
X103572815Y-107499790D01*
X103572815Y-107499790D02*
X103620434Y-107547409D01*
X103620434Y-107547409D02*
X103668053Y-107642647D01*
X103668053Y-107642647D02*
X103668053Y-107880742D01*
X103668053Y-107880742D02*
X103620434Y-107975980D01*
X103620434Y-107975980D02*
X103572815Y-108023600D01*
X103572815Y-108023600D02*
X103477577Y-108071219D01*
X103477577Y-108071219D02*
X103191863Y-108071219D01*
X103191863Y-108071219D02*
X103096625Y-108023600D01*
X103096625Y-108023600D02*
X103049006Y-107975980D01*
X103953768Y-107071219D02*
X104287101Y-108071219D01*
X104287101Y-108071219D02*
X104620434Y-107071219D01*
X105715673Y-108071219D02*
X105715673Y-107071219D01*
X105715673Y-107071219D02*
X106096625Y-107071219D01*
X106096625Y-107071219D02*
X106191863Y-107118838D01*
X106191863Y-107118838D02*
X106239482Y-107166457D01*
X106239482Y-107166457D02*
X106287101Y-107261695D01*
X106287101Y-107261695D02*
X106287101Y-107404552D01*
X106287101Y-107404552D02*
X106239482Y-107499790D01*
X106239482Y-107499790D02*
X106191863Y-107547409D01*
X106191863Y-107547409D02*
X106096625Y-107595028D01*
X106096625Y-107595028D02*
X105715673Y-107595028D01*
X106858530Y-108071219D02*
X106763292Y-108023600D01*
X106763292Y-108023600D02*
X106715673Y-107975980D01*
X106715673Y-107975980D02*
X106668054Y-107880742D01*
X106668054Y-107880742D02*
X106668054Y-107595028D01*
X106668054Y-107595028D02*
X106715673Y-107499790D01*
X106715673Y-107499790D02*
X106763292Y-107452171D01*
X106763292Y-107452171D02*
X106858530Y-107404552D01*
X106858530Y-107404552D02*
X107001387Y-107404552D01*
X107001387Y-107404552D02*
X107096625Y-107452171D01*
X107096625Y-107452171D02*
X107144244Y-107499790D01*
X107144244Y-107499790D02*
X107191863Y-107595028D01*
X107191863Y-107595028D02*
X107191863Y-107880742D01*
X107191863Y-107880742D02*
X107144244Y-107975980D01*
X107144244Y-107975980D02*
X107096625Y-108023600D01*
X107096625Y-108023600D02*
X107001387Y-108071219D01*
X107001387Y-108071219D02*
X106858530Y-108071219D01*
X107525197Y-107404552D02*
X107715673Y-108071219D01*
X107715673Y-108071219D02*
X107906149Y-107595028D01*
X107906149Y-107595028D02*
X108096625Y-108071219D01*
X108096625Y-108071219D02*
X108287101Y-107404552D01*
X109049006Y-108023600D02*
X108953768Y-108071219D01*
X108953768Y-108071219D02*
X108763292Y-108071219D01*
X108763292Y-108071219D02*
X108668054Y-108023600D01*
X108668054Y-108023600D02*
X108620435Y-107928361D01*
X108620435Y-107928361D02*
X108620435Y-107547409D01*
X108620435Y-107547409D02*
X108668054Y-107452171D01*
X108668054Y-107452171D02*
X108763292Y-107404552D01*
X108763292Y-107404552D02*
X108953768Y-107404552D01*
X108953768Y-107404552D02*
X109049006Y-107452171D01*
X109049006Y-107452171D02*
X109096625Y-107547409D01*
X109096625Y-107547409D02*
X109096625Y-107642647D01*
X109096625Y-107642647D02*
X108620435Y-107737885D01*
X109525197Y-108071219D02*
X109525197Y-107404552D01*
X109525197Y-107595028D02*
X109572816Y-107499790D01*
X109572816Y-107499790D02*
X109620435Y-107452171D01*
X109620435Y-107452171D02*
X109715673Y-107404552D01*
X109715673Y-107404552D02*
X109810911Y-107404552D01*
D10*
X87419779Y-107237819D02*
X87419779Y-106237819D01*
X87419779Y-106237819D02*
X87800731Y-106237819D01*
X87800731Y-106237819D02*
X87895969Y-106285438D01*
X87895969Y-106285438D02*
X87943588Y-106333057D01*
X87943588Y-106333057D02*
X87991207Y-106428295D01*
X87991207Y-106428295D02*
X87991207Y-106571152D01*
X87991207Y-106571152D02*
X87943588Y-106666390D01*
X87943588Y-106666390D02*
X87895969Y-106714009D01*
X87895969Y-106714009D02*
X87800731Y-106761628D01*
X87800731Y-106761628D02*
X87419779Y-106761628D01*
X88991207Y-107237819D02*
X88657874Y-106761628D01*
X88419779Y-107237819D02*
X88419779Y-106237819D01*
X88419779Y-106237819D02*
X88800731Y-106237819D01*
X88800731Y-106237819D02*
X88895969Y-106285438D01*
X88895969Y-106285438D02*
X88943588Y-106333057D01*
X88943588Y-106333057D02*
X88991207Y-106428295D01*
X88991207Y-106428295D02*
X88991207Y-106571152D01*
X88991207Y-106571152D02*
X88943588Y-106666390D01*
X88943588Y-106666390D02*
X88895969Y-106714009D01*
X88895969Y-106714009D02*
X88800731Y-106761628D01*
X88800731Y-106761628D02*
X88419779Y-106761628D01*
X89610255Y-106237819D02*
X89800731Y-106237819D01*
X89800731Y-106237819D02*
X89895969Y-106285438D01*
X89895969Y-106285438D02*
X89991207Y-106380676D01*
X89991207Y-106380676D02*
X90038826Y-106571152D01*
X90038826Y-106571152D02*
X90038826Y-106904485D01*
X90038826Y-106904485D02*
X89991207Y-107094961D01*
X89991207Y-107094961D02*
X89895969Y-107190200D01*
X89895969Y-107190200D02*
X89800731Y-107237819D01*
X89800731Y-107237819D02*
X89610255Y-107237819D01*
X89610255Y-107237819D02*
X89515017Y-107190200D01*
X89515017Y-107190200D02*
X89419779Y-107094961D01*
X89419779Y-107094961D02*
X89372160Y-106904485D01*
X89372160Y-106904485D02*
X89372160Y-106571152D01*
X89372160Y-106571152D02*
X89419779Y-106380676D01*
X89419779Y-106380676D02*
X89515017Y-106285438D01*
X89515017Y-106285438D02*
X89610255Y-106237819D01*
X90991207Y-106285438D02*
X90895969Y-106237819D01*
X90895969Y-106237819D02*
X90753112Y-106237819D01*
X90753112Y-106237819D02*
X90610255Y-106285438D01*
X90610255Y-106285438D02*
X90515017Y-106380676D01*
X90515017Y-106380676D02*
X90467398Y-106475914D01*
X90467398Y-106475914D02*
X90419779Y-106666390D01*
X90419779Y-106666390D02*
X90419779Y-106809247D01*
X90419779Y-106809247D02*
X90467398Y-106999723D01*
X90467398Y-106999723D02*
X90515017Y-107094961D01*
X90515017Y-107094961D02*
X90610255Y-107190200D01*
X90610255Y-107190200D02*
X90753112Y-107237819D01*
X90753112Y-107237819D02*
X90848350Y-107237819D01*
X90848350Y-107237819D02*
X90991207Y-107190200D01*
X90991207Y-107190200D02*
X91038826Y-107142580D01*
X91038826Y-107142580D02*
X91038826Y-106809247D01*
X91038826Y-106809247D02*
X90848350Y-106809247D01*
X91991207Y-107237819D02*
X91419779Y-107237819D01*
X91705493Y-107237819D02*
X91705493Y-106237819D01*
X91705493Y-106237819D02*
X91610255Y-106380676D01*
X91610255Y-106380676D02*
X91515017Y-106475914D01*
X91515017Y-106475914D02*
X91419779Y-106523533D01*
X110826779Y-106930866D02*
X111588684Y-106930866D01*
X111207731Y-107311819D02*
X111207731Y-106549914D01*
D14*
X85233666Y-112222497D02*
X85233666Y-113365355D01*
X84662237Y-112793926D02*
X85805094Y-112793926D01*
X82818750Y-112222497D02*
X82818750Y-113365355D01*
D11*
X117966105Y-91622419D02*
X118585152Y-91622419D01*
X118585152Y-91622419D02*
X118251819Y-92003371D01*
X118251819Y-92003371D02*
X118394676Y-92003371D01*
X118394676Y-92003371D02*
X118489914Y-92050990D01*
X118489914Y-92050990D02*
X118537533Y-92098609D01*
X118537533Y-92098609D02*
X118585152Y-92193847D01*
X118585152Y-92193847D02*
X118585152Y-92431942D01*
X118585152Y-92431942D02*
X118537533Y-92527180D01*
X118537533Y-92527180D02*
X118489914Y-92574800D01*
X118489914Y-92574800D02*
X118394676Y-92622419D01*
X118394676Y-92622419D02*
X118108962Y-92622419D01*
X118108962Y-92622419D02*
X118013724Y-92574800D01*
X118013724Y-92574800D02*
X117966105Y-92527180D01*
X118870867Y-91622419D02*
X119204200Y-92622419D01*
X119204200Y-92622419D02*
X119537533Y-91622419D01*
X119775629Y-91622419D02*
X120394676Y-91622419D01*
X120394676Y-91622419D02*
X120061343Y-92003371D01*
X120061343Y-92003371D02*
X120204200Y-92003371D01*
X120204200Y-92003371D02*
X120299438Y-92050990D01*
X120299438Y-92050990D02*
X120347057Y-92098609D01*
X120347057Y-92098609D02*
X120394676Y-92193847D01*
X120394676Y-92193847D02*
X120394676Y-92431942D01*
X120394676Y-92431942D02*
X120347057Y-92527180D01*
X120347057Y-92527180D02*
X120299438Y-92574800D01*
X120299438Y-92574800D02*
X120204200Y-92622419D01*
X120204200Y-92622419D02*
X119918486Y-92622419D01*
X119918486Y-92622419D02*
X119823248Y-92574800D01*
X119823248Y-92574800D02*
X119775629Y-92527180D01*
X118085152Y-81420038D02*
X117989914Y-81372419D01*
X117989914Y-81372419D02*
X117847057Y-81372419D01*
X117847057Y-81372419D02*
X117704200Y-81420038D01*
X117704200Y-81420038D02*
X117608962Y-81515276D01*
X117608962Y-81515276D02*
X117561343Y-81610514D01*
X117561343Y-81610514D02*
X117513724Y-81800990D01*
X117513724Y-81800990D02*
X117513724Y-81943847D01*
X117513724Y-81943847D02*
X117561343Y-82134323D01*
X117561343Y-82134323D02*
X117608962Y-82229561D01*
X117608962Y-82229561D02*
X117704200Y-82324800D01*
X117704200Y-82324800D02*
X117847057Y-82372419D01*
X117847057Y-82372419D02*
X117942295Y-82372419D01*
X117942295Y-82372419D02*
X118085152Y-82324800D01*
X118085152Y-82324800D02*
X118132771Y-82277180D01*
X118132771Y-82277180D02*
X118132771Y-81943847D01*
X118132771Y-81943847D02*
X117942295Y-81943847D01*
X118561343Y-82372419D02*
X118561343Y-81372419D01*
X118561343Y-81372419D02*
X119132771Y-82372419D01*
X119132771Y-82372419D02*
X119132771Y-81372419D01*
X119608962Y-82372419D02*
X119608962Y-81372419D01*
X119608962Y-81372419D02*
X119847057Y-81372419D01*
X119847057Y-81372419D02*
X119989914Y-81420038D01*
X119989914Y-81420038D02*
X120085152Y-81515276D01*
X120085152Y-81515276D02*
X120132771Y-81610514D01*
X120132771Y-81610514D02*
X120180390Y-81800990D01*
X120180390Y-81800990D02*
X120180390Y-81943847D01*
X120180390Y-81943847D02*
X120132771Y-82134323D01*
X120132771Y-82134323D02*
X120085152Y-82229561D01*
X120085152Y-82229561D02*
X119989914Y-82324800D01*
X119989914Y-82324800D02*
X119847057Y-82372419D01*
X119847057Y-82372419D02*
X119608962Y-82372419D01*
X102134693Y-111558419D02*
X101563265Y-111558419D01*
X101848979Y-111558419D02*
X101848979Y-110558419D01*
X101848979Y-110558419D02*
X101753741Y-110701276D01*
X101753741Y-110701276D02*
X101658503Y-110796514D01*
X101658503Y-110796514D02*
X101563265Y-110844133D01*
D12*
X129424331Y-93415119D02*
X129424331Y-92415119D01*
X130090997Y-92415119D02*
X130281473Y-92415119D01*
X130281473Y-92415119D02*
X130376711Y-92462738D01*
X130376711Y-92462738D02*
X130471949Y-92557976D01*
X130471949Y-92557976D02*
X130519568Y-92748452D01*
X130519568Y-92748452D02*
X130519568Y-93081785D01*
X130519568Y-93081785D02*
X130471949Y-93272261D01*
X130471949Y-93272261D02*
X130376711Y-93367500D01*
X130376711Y-93367500D02*
X130281473Y-93415119D01*
X130281473Y-93415119D02*
X130090997Y-93415119D01*
X130090997Y-93415119D02*
X129995759Y-93367500D01*
X129995759Y-93367500D02*
X129900521Y-93272261D01*
X129900521Y-93272261D02*
X129852902Y-93081785D01*
X129852902Y-93081785D02*
X129852902Y-92748452D01*
X129852902Y-92748452D02*
X129900521Y-92557976D01*
X129900521Y-92557976D02*
X129995759Y-92462738D01*
X129995759Y-92462738D02*
X130090997Y-92415119D01*
X131376711Y-92748452D02*
X131376711Y-93415119D01*
X131138616Y-92367500D02*
X130900521Y-93081785D01*
X130900521Y-93081785D02*
X131519568Y-93081785D01*
D11*
X101356884Y-116384419D02*
X101356884Y-115384419D01*
X101356884Y-115384419D02*
X101737836Y-115384419D01*
X101737836Y-115384419D02*
X101833074Y-115432038D01*
X101833074Y-115432038D02*
X101880693Y-115479657D01*
X101880693Y-115479657D02*
X101928312Y-115574895D01*
X101928312Y-115574895D02*
X101928312Y-115717752D01*
X101928312Y-115717752D02*
X101880693Y-115812990D01*
X101880693Y-115812990D02*
X101833074Y-115860609D01*
X101833074Y-115860609D02*
X101737836Y-115908228D01*
X101737836Y-115908228D02*
X101356884Y-115908228D01*
X102880693Y-115432038D02*
X102785455Y-115384419D01*
X102785455Y-115384419D02*
X102642598Y-115384419D01*
X102642598Y-115384419D02*
X102499741Y-115432038D01*
X102499741Y-115432038D02*
X102404503Y-115527276D01*
X102404503Y-115527276D02*
X102356884Y-115622514D01*
X102356884Y-115622514D02*
X102309265Y-115812990D01*
X102309265Y-115812990D02*
X102309265Y-115955847D01*
X102309265Y-115955847D02*
X102356884Y-116146323D01*
X102356884Y-116146323D02*
X102404503Y-116241561D01*
X102404503Y-116241561D02*
X102499741Y-116336800D01*
X102499741Y-116336800D02*
X102642598Y-116384419D01*
X102642598Y-116384419D02*
X102737836Y-116384419D01*
X102737836Y-116384419D02*
X102880693Y-116336800D01*
X102880693Y-116336800D02*
X102928312Y-116289180D01*
X102928312Y-116289180D02*
X102928312Y-115955847D01*
X102928312Y-115955847D02*
X102737836Y-115955847D01*
D10*
X84207990Y-106912112D02*
X84160371Y-107054969D01*
X84160371Y-107054969D02*
X84112752Y-107102588D01*
X84112752Y-107102588D02*
X84017514Y-107150207D01*
X84017514Y-107150207D02*
X83874657Y-107150207D01*
X83874657Y-107150207D02*
X83779419Y-107102588D01*
X83779419Y-107102588D02*
X83731800Y-107054969D01*
X83731800Y-107054969D02*
X83684180Y-106959731D01*
X83684180Y-106959731D02*
X83684180Y-106578779D01*
X83684180Y-106578779D02*
X84684180Y-106578779D01*
X84684180Y-106578779D02*
X84684180Y-106912112D01*
X84684180Y-106912112D02*
X84636561Y-107007350D01*
X84636561Y-107007350D02*
X84588942Y-107054969D01*
X84588942Y-107054969D02*
X84493704Y-107102588D01*
X84493704Y-107102588D02*
X84398466Y-107102588D01*
X84398466Y-107102588D02*
X84303228Y-107054969D01*
X84303228Y-107054969D02*
X84255609Y-107007350D01*
X84255609Y-107007350D02*
X84207990Y-106912112D01*
X84207990Y-106912112D02*
X84207990Y-106578779D01*
X83684180Y-108007350D02*
X84207990Y-108007350D01*
X84207990Y-108007350D02*
X84303228Y-107959731D01*
X84303228Y-107959731D02*
X84350847Y-107864493D01*
X84350847Y-107864493D02*
X84350847Y-107674017D01*
X84350847Y-107674017D02*
X84303228Y-107578779D01*
X83731800Y-108007350D02*
X83684180Y-107912112D01*
X83684180Y-107912112D02*
X83684180Y-107674017D01*
X83684180Y-107674017D02*
X83731800Y-107578779D01*
X83731800Y-107578779D02*
X83827038Y-107531160D01*
X83827038Y-107531160D02*
X83922276Y-107531160D01*
X83922276Y-107531160D02*
X84017514Y-107578779D01*
X84017514Y-107578779D02*
X84065133Y-107674017D01*
X84065133Y-107674017D02*
X84065133Y-107912112D01*
X84065133Y-107912112D02*
X84112752Y-108007350D01*
X84350847Y-108340684D02*
X84350847Y-108721636D01*
X84684180Y-108483541D02*
X83827038Y-108483541D01*
X83827038Y-108483541D02*
X83731800Y-108531160D01*
X83731800Y-108531160D02*
X83684180Y-108626398D01*
X83684180Y-108626398D02*
X83684180Y-108721636D01*
X84350847Y-108912113D02*
X84350847Y-109293065D01*
X84684180Y-109054970D02*
X83827038Y-109054970D01*
X83827038Y-109054970D02*
X83731800Y-109102589D01*
X83731800Y-109102589D02*
X83684180Y-109197827D01*
X83684180Y-109197827D02*
X83684180Y-109293065D01*
X83684180Y-110388304D02*
X84684180Y-110388304D01*
X84350847Y-110864494D02*
X83684180Y-110864494D01*
X84255609Y-110864494D02*
X84303228Y-110912113D01*
X84303228Y-110912113D02*
X84350847Y-111007351D01*
X84350847Y-111007351D02*
X84350847Y-111150208D01*
X84350847Y-111150208D02*
X84303228Y-111245446D01*
X84303228Y-111245446D02*
X84207990Y-111293065D01*
X84207990Y-111293065D02*
X83684180Y-111293065D01*
D13*
X95396863Y-123057219D02*
X94920673Y-123057219D01*
X94920673Y-123057219D02*
X94873054Y-123533409D01*
X94873054Y-123533409D02*
X94920673Y-123485790D01*
X94920673Y-123485790D02*
X95015911Y-123438171D01*
X95015911Y-123438171D02*
X95254006Y-123438171D01*
X95254006Y-123438171D02*
X95349244Y-123485790D01*
X95349244Y-123485790D02*
X95396863Y-123533409D01*
X95396863Y-123533409D02*
X95444482Y-123628647D01*
X95444482Y-123628647D02*
X95444482Y-123866742D01*
X95444482Y-123866742D02*
X95396863Y-123961980D01*
X95396863Y-123961980D02*
X95349244Y-124009600D01*
X95349244Y-124009600D02*
X95254006Y-124057219D01*
X95254006Y-124057219D02*
X95015911Y-124057219D01*
X95015911Y-124057219D02*
X94920673Y-124009600D01*
X94920673Y-124009600D02*
X94873054Y-123961980D01*
X95730197Y-123057219D02*
X96063530Y-124057219D01*
X96063530Y-124057219D02*
X96396863Y-123057219D01*
X97492102Y-124057219D02*
X97492102Y-123057219D01*
X97492102Y-123057219D02*
X97873054Y-123057219D01*
X97873054Y-123057219D02*
X97968292Y-123104838D01*
X97968292Y-123104838D02*
X98015911Y-123152457D01*
X98015911Y-123152457D02*
X98063530Y-123247695D01*
X98063530Y-123247695D02*
X98063530Y-123390552D01*
X98063530Y-123390552D02*
X98015911Y-123485790D01*
X98015911Y-123485790D02*
X97968292Y-123533409D01*
X97968292Y-123533409D02*
X97873054Y-123581028D01*
X97873054Y-123581028D02*
X97492102Y-123581028D01*
X98634959Y-124057219D02*
X98539721Y-124009600D01*
X98539721Y-124009600D02*
X98492102Y-123961980D01*
X98492102Y-123961980D02*
X98444483Y-123866742D01*
X98444483Y-123866742D02*
X98444483Y-123581028D01*
X98444483Y-123581028D02*
X98492102Y-123485790D01*
X98492102Y-123485790D02*
X98539721Y-123438171D01*
X98539721Y-123438171D02*
X98634959Y-123390552D01*
X98634959Y-123390552D02*
X98777816Y-123390552D01*
X98777816Y-123390552D02*
X98873054Y-123438171D01*
X98873054Y-123438171D02*
X98920673Y-123485790D01*
X98920673Y-123485790D02*
X98968292Y-123581028D01*
X98968292Y-123581028D02*
X98968292Y-123866742D01*
X98968292Y-123866742D02*
X98920673Y-123961980D01*
X98920673Y-123961980D02*
X98873054Y-124009600D01*
X98873054Y-124009600D02*
X98777816Y-124057219D01*
X98777816Y-124057219D02*
X98634959Y-124057219D01*
X99301626Y-123390552D02*
X99492102Y-124057219D01*
X99492102Y-124057219D02*
X99682578Y-123581028D01*
X99682578Y-123581028D02*
X99873054Y-124057219D01*
X99873054Y-124057219D02*
X100063530Y-123390552D01*
X100825435Y-124009600D02*
X100730197Y-124057219D01*
X100730197Y-124057219D02*
X100539721Y-124057219D01*
X100539721Y-124057219D02*
X100444483Y-124009600D01*
X100444483Y-124009600D02*
X100396864Y-123914361D01*
X100396864Y-123914361D02*
X100396864Y-123533409D01*
X100396864Y-123533409D02*
X100444483Y-123438171D01*
X100444483Y-123438171D02*
X100539721Y-123390552D01*
X100539721Y-123390552D02*
X100730197Y-123390552D01*
X100730197Y-123390552D02*
X100825435Y-123438171D01*
X100825435Y-123438171D02*
X100873054Y-123533409D01*
X100873054Y-123533409D02*
X100873054Y-123628647D01*
X100873054Y-123628647D02*
X100396864Y-123723885D01*
X101301626Y-124057219D02*
X101301626Y-123390552D01*
X101301626Y-123581028D02*
X101349245Y-123485790D01*
X101349245Y-123485790D02*
X101396864Y-123438171D01*
X101396864Y-123438171D02*
X101492102Y-123390552D01*
X101492102Y-123390552D02*
X101587340Y-123390552D01*
D12*
X128424331Y-105915119D02*
X128424331Y-104915119D01*
X129090997Y-104915119D02*
X129281473Y-104915119D01*
X129281473Y-104915119D02*
X129376711Y-104962738D01*
X129376711Y-104962738D02*
X129471949Y-105057976D01*
X129471949Y-105057976D02*
X129519568Y-105248452D01*
X129519568Y-105248452D02*
X129519568Y-105581785D01*
X129519568Y-105581785D02*
X129471949Y-105772261D01*
X129471949Y-105772261D02*
X129376711Y-105867500D01*
X129376711Y-105867500D02*
X129281473Y-105915119D01*
X129281473Y-105915119D02*
X129090997Y-105915119D01*
X129090997Y-105915119D02*
X128995759Y-105867500D01*
X128995759Y-105867500D02*
X128900521Y-105772261D01*
X128900521Y-105772261D02*
X128852902Y-105581785D01*
X128852902Y-105581785D02*
X128852902Y-105248452D01*
X128852902Y-105248452D02*
X128900521Y-105057976D01*
X128900521Y-105057976D02*
X128995759Y-104962738D01*
X128995759Y-104962738D02*
X129090997Y-104915119D01*
X129852902Y-104915119D02*
X130471949Y-104915119D01*
X130471949Y-104915119D02*
X130138616Y-105296071D01*
X130138616Y-105296071D02*
X130281473Y-105296071D01*
X130281473Y-105296071D02*
X130376711Y-105343690D01*
X130376711Y-105343690D02*
X130424330Y-105391309D01*
X130424330Y-105391309D02*
X130471949Y-105486547D01*
X130471949Y-105486547D02*
X130471949Y-105724642D01*
X130471949Y-105724642D02*
X130424330Y-105819880D01*
X130424330Y-105819880D02*
X130376711Y-105867500D01*
X130376711Y-105867500D02*
X130281473Y-105915119D01*
X130281473Y-105915119D02*
X129995759Y-105915119D01*
X129995759Y-105915119D02*
X129900521Y-105867500D01*
X129900521Y-105867500D02*
X129852902Y-105819880D01*
X130948140Y-105915119D02*
X131138616Y-105915119D01*
X131138616Y-105915119D02*
X131233854Y-105867500D01*
X131233854Y-105867500D02*
X131281473Y-105819880D01*
X131281473Y-105819880D02*
X131376711Y-105677023D01*
X131376711Y-105677023D02*
X131424330Y-105486547D01*
X131424330Y-105486547D02*
X131424330Y-105105595D01*
X131424330Y-105105595D02*
X131376711Y-105010357D01*
X131376711Y-105010357D02*
X131329092Y-104962738D01*
X131329092Y-104962738D02*
X131233854Y-104915119D01*
X131233854Y-104915119D02*
X131043378Y-104915119D01*
X131043378Y-104915119D02*
X130948140Y-104962738D01*
X130948140Y-104962738D02*
X130900521Y-105010357D01*
X130900521Y-105010357D02*
X130852902Y-105105595D01*
X130852902Y-105105595D02*
X130852902Y-105343690D01*
X130852902Y-105343690D02*
X130900521Y-105438928D01*
X130900521Y-105438928D02*
X130948140Y-105486547D01*
X130948140Y-105486547D02*
X131043378Y-105534166D01*
X131043378Y-105534166D02*
X131233854Y-105534166D01*
X131233854Y-105534166D02*
X131329092Y-105486547D01*
X131329092Y-105486547D02*
X131376711Y-105438928D01*
X131376711Y-105438928D02*
X131424330Y-105343690D01*
D11*
X117168486Y-86122419D02*
X117501819Y-87122419D01*
X117501819Y-87122419D02*
X117835152Y-86122419D01*
X118120867Y-87074800D02*
X118216105Y-87122419D01*
X118216105Y-87122419D02*
X118406581Y-87122419D01*
X118406581Y-87122419D02*
X118501819Y-87074800D01*
X118501819Y-87074800D02*
X118549438Y-86979561D01*
X118549438Y-86979561D02*
X118549438Y-86931942D01*
X118549438Y-86931942D02*
X118501819Y-86836704D01*
X118501819Y-86836704D02*
X118406581Y-86789085D01*
X118406581Y-86789085D02*
X118263724Y-86789085D01*
X118263724Y-86789085D02*
X118168486Y-86741466D01*
X118168486Y-86741466D02*
X118120867Y-86646228D01*
X118120867Y-86646228D02*
X118120867Y-86598609D01*
X118120867Y-86598609D02*
X118168486Y-86503371D01*
X118168486Y-86503371D02*
X118263724Y-86455752D01*
X118263724Y-86455752D02*
X118406581Y-86455752D01*
X118406581Y-86455752D02*
X118501819Y-86503371D01*
X118882772Y-86455752D02*
X119120867Y-87122419D01*
X119358962Y-86455752D02*
X119120867Y-87122419D01*
X119120867Y-87122419D02*
X119025629Y-87360514D01*
X119025629Y-87360514D02*
X118978010Y-87408133D01*
X118978010Y-87408133D02*
X118882772Y-87455752D01*
X119692296Y-87074800D02*
X119787534Y-87122419D01*
X119787534Y-87122419D02*
X119978010Y-87122419D01*
X119978010Y-87122419D02*
X120073248Y-87074800D01*
X120073248Y-87074800D02*
X120120867Y-86979561D01*
X120120867Y-86979561D02*
X120120867Y-86931942D01*
X120120867Y-86931942D02*
X120073248Y-86836704D01*
X120073248Y-86836704D02*
X119978010Y-86789085D01*
X119978010Y-86789085D02*
X119835153Y-86789085D01*
X119835153Y-86789085D02*
X119739915Y-86741466D01*
X119739915Y-86741466D02*
X119692296Y-86646228D01*
X119692296Y-86646228D02*
X119692296Y-86598609D01*
X119692296Y-86598609D02*
X119739915Y-86503371D01*
X119739915Y-86503371D02*
X119835153Y-86455752D01*
X119835153Y-86455752D02*
X119978010Y-86455752D01*
X119978010Y-86455752D02*
X120073248Y-86503371D01*
D12*
X125580690Y-124132331D02*
X125580690Y-124465664D01*
X125056880Y-124608521D02*
X125056880Y-124132331D01*
X125056880Y-124132331D02*
X126056880Y-124132331D01*
X126056880Y-124132331D02*
X126056880Y-124608521D01*
X125056880Y-125037093D02*
X126056880Y-125037093D01*
X126056880Y-125037093D02*
X125056880Y-125608521D01*
X125056880Y-125608521D02*
X126056880Y-125608521D01*
X128424331Y-103415119D02*
X128424331Y-102415119D01*
X129090997Y-102415119D02*
X129281473Y-102415119D01*
X129281473Y-102415119D02*
X129376711Y-102462738D01*
X129376711Y-102462738D02*
X129471949Y-102557976D01*
X129471949Y-102557976D02*
X129519568Y-102748452D01*
X129519568Y-102748452D02*
X129519568Y-103081785D01*
X129519568Y-103081785D02*
X129471949Y-103272261D01*
X129471949Y-103272261D02*
X129376711Y-103367500D01*
X129376711Y-103367500D02*
X129281473Y-103415119D01*
X129281473Y-103415119D02*
X129090997Y-103415119D01*
X129090997Y-103415119D02*
X128995759Y-103367500D01*
X128995759Y-103367500D02*
X128900521Y-103272261D01*
X128900521Y-103272261D02*
X128852902Y-103081785D01*
X128852902Y-103081785D02*
X128852902Y-102748452D01*
X128852902Y-102748452D02*
X128900521Y-102557976D01*
X128900521Y-102557976D02*
X128995759Y-102462738D01*
X128995759Y-102462738D02*
X129090997Y-102415119D01*
X129852902Y-102415119D02*
X130471949Y-102415119D01*
X130471949Y-102415119D02*
X130138616Y-102796071D01*
X130138616Y-102796071D02*
X130281473Y-102796071D01*
X130281473Y-102796071D02*
X130376711Y-102843690D01*
X130376711Y-102843690D02*
X130424330Y-102891309D01*
X130424330Y-102891309D02*
X130471949Y-102986547D01*
X130471949Y-102986547D02*
X130471949Y-103224642D01*
X130471949Y-103224642D02*
X130424330Y-103319880D01*
X130424330Y-103319880D02*
X130376711Y-103367500D01*
X130376711Y-103367500D02*
X130281473Y-103415119D01*
X130281473Y-103415119D02*
X129995759Y-103415119D01*
X129995759Y-103415119D02*
X129900521Y-103367500D01*
X129900521Y-103367500D02*
X129852902Y-103319880D01*
X131043378Y-102843690D02*
X130948140Y-102796071D01*
X130948140Y-102796071D02*
X130900521Y-102748452D01*
X130900521Y-102748452D02*
X130852902Y-102653214D01*
X130852902Y-102653214D02*
X130852902Y-102605595D01*
X130852902Y-102605595D02*
X130900521Y-102510357D01*
X130900521Y-102510357D02*
X130948140Y-102462738D01*
X130948140Y-102462738D02*
X131043378Y-102415119D01*
X131043378Y-102415119D02*
X131233854Y-102415119D01*
X131233854Y-102415119D02*
X131329092Y-102462738D01*
X131329092Y-102462738D02*
X131376711Y-102510357D01*
X131376711Y-102510357D02*
X131424330Y-102605595D01*
X131424330Y-102605595D02*
X131424330Y-102653214D01*
X131424330Y-102653214D02*
X131376711Y-102748452D01*
X131376711Y-102748452D02*
X131329092Y-102796071D01*
X131329092Y-102796071D02*
X131233854Y-102843690D01*
X131233854Y-102843690D02*
X131043378Y-102843690D01*
X131043378Y-102843690D02*
X130948140Y-102891309D01*
X130948140Y-102891309D02*
X130900521Y-102938928D01*
X130900521Y-102938928D02*
X130852902Y-103034166D01*
X130852902Y-103034166D02*
X130852902Y-103224642D01*
X130852902Y-103224642D02*
X130900521Y-103319880D01*
X130900521Y-103319880D02*
X130948140Y-103367500D01*
X130948140Y-103367500D02*
X131043378Y-103415119D01*
X131043378Y-103415119D02*
X131233854Y-103415119D01*
X131233854Y-103415119D02*
X131329092Y-103367500D01*
X131329092Y-103367500D02*
X131376711Y-103319880D01*
X131376711Y-103319880D02*
X131424330Y-103224642D01*
X131424330Y-103224642D02*
X131424330Y-103034166D01*
X131424330Y-103034166D02*
X131376711Y-102938928D01*
X131376711Y-102938928D02*
X131329092Y-102891309D01*
X131329092Y-102891309D02*
X131233854Y-102843690D01*
X129424331Y-100915119D02*
X129424331Y-99915119D01*
X130090997Y-99915119D02*
X130281473Y-99915119D01*
X130281473Y-99915119D02*
X130376711Y-99962738D01*
X130376711Y-99962738D02*
X130471949Y-100057976D01*
X130471949Y-100057976D02*
X130519568Y-100248452D01*
X130519568Y-100248452D02*
X130519568Y-100581785D01*
X130519568Y-100581785D02*
X130471949Y-100772261D01*
X130471949Y-100772261D02*
X130376711Y-100867500D01*
X130376711Y-100867500D02*
X130281473Y-100915119D01*
X130281473Y-100915119D02*
X130090997Y-100915119D01*
X130090997Y-100915119D02*
X129995759Y-100867500D01*
X129995759Y-100867500D02*
X129900521Y-100772261D01*
X129900521Y-100772261D02*
X129852902Y-100581785D01*
X129852902Y-100581785D02*
X129852902Y-100248452D01*
X129852902Y-100248452D02*
X129900521Y-100057976D01*
X129900521Y-100057976D02*
X129995759Y-99962738D01*
X129995759Y-99962738D02*
X130090997Y-99915119D01*
X130852902Y-99915119D02*
X131519568Y-99915119D01*
X131519568Y-99915119D02*
X131090997Y-100915119D01*
X115674690Y-124211664D02*
X115627071Y-124354521D01*
X115627071Y-124354521D02*
X115579452Y-124402140D01*
X115579452Y-124402140D02*
X115484214Y-124449759D01*
X115484214Y-124449759D02*
X115341357Y-124449759D01*
X115341357Y-124449759D02*
X115246119Y-124402140D01*
X115246119Y-124402140D02*
X115198500Y-124354521D01*
X115198500Y-124354521D02*
X115150880Y-124259283D01*
X115150880Y-124259283D02*
X115150880Y-123878331D01*
X115150880Y-123878331D02*
X116150880Y-123878331D01*
X116150880Y-123878331D02*
X116150880Y-124211664D01*
X116150880Y-124211664D02*
X116103261Y-124306902D01*
X116103261Y-124306902D02*
X116055642Y-124354521D01*
X116055642Y-124354521D02*
X115960404Y-124402140D01*
X115960404Y-124402140D02*
X115865166Y-124402140D01*
X115865166Y-124402140D02*
X115769928Y-124354521D01*
X115769928Y-124354521D02*
X115722309Y-124306902D01*
X115722309Y-124306902D02*
X115674690Y-124211664D01*
X115674690Y-124211664D02*
X115674690Y-123878331D01*
X116150880Y-125068807D02*
X116150880Y-125259283D01*
X116150880Y-125259283D02*
X116103261Y-125354521D01*
X116103261Y-125354521D02*
X116008023Y-125449759D01*
X116008023Y-125449759D02*
X115817547Y-125497378D01*
X115817547Y-125497378D02*
X115484214Y-125497378D01*
X115484214Y-125497378D02*
X115293738Y-125449759D01*
X115293738Y-125449759D02*
X115198500Y-125354521D01*
X115198500Y-125354521D02*
X115150880Y-125259283D01*
X115150880Y-125259283D02*
X115150880Y-125068807D01*
X115150880Y-125068807D02*
X115198500Y-124973569D01*
X115198500Y-124973569D02*
X115293738Y-124878331D01*
X115293738Y-124878331D02*
X115484214Y-124830712D01*
X115484214Y-124830712D02*
X115817547Y-124830712D01*
X115817547Y-124830712D02*
X116008023Y-124878331D01*
X116008023Y-124878331D02*
X116103261Y-124973569D01*
X116103261Y-124973569D02*
X116150880Y-125068807D01*
X116150880Y-126116426D02*
X116150880Y-126306902D01*
X116150880Y-126306902D02*
X116103261Y-126402140D01*
X116103261Y-126402140D02*
X116008023Y-126497378D01*
X116008023Y-126497378D02*
X115817547Y-126544997D01*
X115817547Y-126544997D02*
X115484214Y-126544997D01*
X115484214Y-126544997D02*
X115293738Y-126497378D01*
X115293738Y-126497378D02*
X115198500Y-126402140D01*
X115198500Y-126402140D02*
X115150880Y-126306902D01*
X115150880Y-126306902D02*
X115150880Y-126116426D01*
X115150880Y-126116426D02*
X115198500Y-126021188D01*
X115198500Y-126021188D02*
X115293738Y-125925950D01*
X115293738Y-125925950D02*
X115484214Y-125878331D01*
X115484214Y-125878331D02*
X115817547Y-125878331D01*
X115817547Y-125878331D02*
X116008023Y-125925950D01*
X116008023Y-125925950D02*
X116103261Y-126021188D01*
X116103261Y-126021188D02*
X116150880Y-126116426D01*
X116150880Y-126830712D02*
X116150880Y-127402140D01*
X115150880Y-127116426D02*
X116150880Y-127116426D01*
D10*
X107522142Y-114680819D02*
X107188809Y-114204628D01*
X106950714Y-114680819D02*
X106950714Y-113680819D01*
X106950714Y-113680819D02*
X107331666Y-113680819D01*
X107331666Y-113680819D02*
X107426904Y-113728438D01*
X107426904Y-113728438D02*
X107474523Y-113776057D01*
X107474523Y-113776057D02*
X107522142Y-113871295D01*
X107522142Y-113871295D02*
X107522142Y-114014152D01*
X107522142Y-114014152D02*
X107474523Y-114109390D01*
X107474523Y-114109390D02*
X107426904Y-114157009D01*
X107426904Y-114157009D02*
X107331666Y-114204628D01*
X107331666Y-114204628D02*
X106950714Y-114204628D01*
X108474523Y-114680819D02*
X107903095Y-114680819D01*
X108188809Y-114680819D02*
X108188809Y-113680819D01*
X108188809Y-113680819D02*
X108093571Y-113823676D01*
X108093571Y-113823676D02*
X107998333Y-113918914D01*
X107998333Y-113918914D02*
X107903095Y-113966533D01*
X109426904Y-114680819D02*
X108855476Y-114680819D01*
X109141190Y-114680819D02*
X109141190Y-113680819D01*
X109141190Y-113680819D02*
X109045952Y-113823676D01*
X109045952Y-113823676D02*
X108950714Y-113918914D01*
X108950714Y-113918914D02*
X108855476Y-113966533D01*
X68166666Y-96954819D02*
X68166666Y-97669104D01*
X68166666Y-97669104D02*
X68119047Y-97811961D01*
X68119047Y-97811961D02*
X68023809Y-97907200D01*
X68023809Y-97907200D02*
X67880952Y-97954819D01*
X67880952Y-97954819D02*
X67785714Y-97954819D01*
X69071428Y-96954819D02*
X68880952Y-96954819D01*
X68880952Y-96954819D02*
X68785714Y-97002438D01*
X68785714Y-97002438D02*
X68738095Y-97050057D01*
X68738095Y-97050057D02*
X68642857Y-97192914D01*
X68642857Y-97192914D02*
X68595238Y-97383390D01*
X68595238Y-97383390D02*
X68595238Y-97764342D01*
X68595238Y-97764342D02*
X68642857Y-97859580D01*
X68642857Y-97859580D02*
X68690476Y-97907200D01*
X68690476Y-97907200D02*
X68785714Y-97954819D01*
X68785714Y-97954819D02*
X68976190Y-97954819D01*
X68976190Y-97954819D02*
X69071428Y-97907200D01*
X69071428Y-97907200D02*
X69119047Y-97859580D01*
X69119047Y-97859580D02*
X69166666Y-97764342D01*
X69166666Y-97764342D02*
X69166666Y-97526247D01*
X69166666Y-97526247D02*
X69119047Y-97431009D01*
X69119047Y-97431009D02*
X69071428Y-97383390D01*
X69071428Y-97383390D02*
X68976190Y-97335771D01*
X68976190Y-97335771D02*
X68785714Y-97335771D01*
X68785714Y-97335771D02*
X68690476Y-97383390D01*
X68690476Y-97383390D02*
X68642857Y-97431009D01*
X68642857Y-97431009D02*
X68595238Y-97526247D01*
X81466666Y-89900819D02*
X81466666Y-90615104D01*
X81466666Y-90615104D02*
X81419047Y-90757961D01*
X81419047Y-90757961D02*
X81323809Y-90853200D01*
X81323809Y-90853200D02*
X81180952Y-90900819D01*
X81180952Y-90900819D02*
X81085714Y-90900819D01*
X81895238Y-89996057D02*
X81942857Y-89948438D01*
X81942857Y-89948438D02*
X82038095Y-89900819D01*
X82038095Y-89900819D02*
X82276190Y-89900819D01*
X82276190Y-89900819D02*
X82371428Y-89948438D01*
X82371428Y-89948438D02*
X82419047Y-89996057D01*
X82419047Y-89996057D02*
X82466666Y-90091295D01*
X82466666Y-90091295D02*
X82466666Y-90186533D01*
X82466666Y-90186533D02*
X82419047Y-90329390D01*
X82419047Y-90329390D02*
X81847619Y-90900819D01*
X81847619Y-90900819D02*
X82466666Y-90900819D01*
X121205333Y-135901580D02*
X121157714Y-135949200D01*
X121157714Y-135949200D02*
X121014857Y-135996819D01*
X121014857Y-135996819D02*
X120919619Y-135996819D01*
X120919619Y-135996819D02*
X120776762Y-135949200D01*
X120776762Y-135949200D02*
X120681524Y-135853961D01*
X120681524Y-135853961D02*
X120633905Y-135758723D01*
X120633905Y-135758723D02*
X120586286Y-135568247D01*
X120586286Y-135568247D02*
X120586286Y-135425390D01*
X120586286Y-135425390D02*
X120633905Y-135234914D01*
X120633905Y-135234914D02*
X120681524Y-135139676D01*
X120681524Y-135139676D02*
X120776762Y-135044438D01*
X120776762Y-135044438D02*
X120919619Y-134996819D01*
X120919619Y-134996819D02*
X121014857Y-134996819D01*
X121014857Y-134996819D02*
X121157714Y-135044438D01*
X121157714Y-135044438D02*
X121205333Y-135092057D01*
X121776762Y-135425390D02*
X121681524Y-135377771D01*
X121681524Y-135377771D02*
X121633905Y-135330152D01*
X121633905Y-135330152D02*
X121586286Y-135234914D01*
X121586286Y-135234914D02*
X121586286Y-135187295D01*
X121586286Y-135187295D02*
X121633905Y-135092057D01*
X121633905Y-135092057D02*
X121681524Y-135044438D01*
X121681524Y-135044438D02*
X121776762Y-134996819D01*
X121776762Y-134996819D02*
X121967238Y-134996819D01*
X121967238Y-134996819D02*
X122062476Y-135044438D01*
X122062476Y-135044438D02*
X122110095Y-135092057D01*
X122110095Y-135092057D02*
X122157714Y-135187295D01*
X122157714Y-135187295D02*
X122157714Y-135234914D01*
X122157714Y-135234914D02*
X122110095Y-135330152D01*
X122110095Y-135330152D02*
X122062476Y-135377771D01*
X122062476Y-135377771D02*
X121967238Y-135425390D01*
X121967238Y-135425390D02*
X121776762Y-135425390D01*
X121776762Y-135425390D02*
X121681524Y-135473009D01*
X121681524Y-135473009D02*
X121633905Y-135520628D01*
X121633905Y-135520628D02*
X121586286Y-135615866D01*
X121586286Y-135615866D02*
X121586286Y-135806342D01*
X121586286Y-135806342D02*
X121633905Y-135901580D01*
X121633905Y-135901580D02*
X121681524Y-135949200D01*
X121681524Y-135949200D02*
X121776762Y-135996819D01*
X121776762Y-135996819D02*
X121967238Y-135996819D01*
X121967238Y-135996819D02*
X122062476Y-135949200D01*
X122062476Y-135949200D02*
X122110095Y-135901580D01*
X122110095Y-135901580D02*
X122157714Y-135806342D01*
X122157714Y-135806342D02*
X122157714Y-135615866D01*
X122157714Y-135615866D02*
X122110095Y-135520628D01*
X122110095Y-135520628D02*
X122062476Y-135473009D01*
X122062476Y-135473009D02*
X121967238Y-135425390D01*
X91082333Y-131407580D02*
X91034714Y-131455200D01*
X91034714Y-131455200D02*
X90891857Y-131502819D01*
X90891857Y-131502819D02*
X90796619Y-131502819D01*
X90796619Y-131502819D02*
X90653762Y-131455200D01*
X90653762Y-131455200D02*
X90558524Y-131359961D01*
X90558524Y-131359961D02*
X90510905Y-131264723D01*
X90510905Y-131264723D02*
X90463286Y-131074247D01*
X90463286Y-131074247D02*
X90463286Y-130931390D01*
X90463286Y-130931390D02*
X90510905Y-130740914D01*
X90510905Y-130740914D02*
X90558524Y-130645676D01*
X90558524Y-130645676D02*
X90653762Y-130550438D01*
X90653762Y-130550438D02*
X90796619Y-130502819D01*
X90796619Y-130502819D02*
X90891857Y-130502819D01*
X90891857Y-130502819D02*
X91034714Y-130550438D01*
X91034714Y-130550438D02*
X91082333Y-130598057D01*
X91939476Y-130502819D02*
X91749000Y-130502819D01*
X91749000Y-130502819D02*
X91653762Y-130550438D01*
X91653762Y-130550438D02*
X91606143Y-130598057D01*
X91606143Y-130598057D02*
X91510905Y-130740914D01*
X91510905Y-130740914D02*
X91463286Y-130931390D01*
X91463286Y-130931390D02*
X91463286Y-131312342D01*
X91463286Y-131312342D02*
X91510905Y-131407580D01*
X91510905Y-131407580D02*
X91558524Y-131455200D01*
X91558524Y-131455200D02*
X91653762Y-131502819D01*
X91653762Y-131502819D02*
X91844238Y-131502819D01*
X91844238Y-131502819D02*
X91939476Y-131455200D01*
X91939476Y-131455200D02*
X91987095Y-131407580D01*
X91987095Y-131407580D02*
X92034714Y-131312342D01*
X92034714Y-131312342D02*
X92034714Y-131074247D01*
X92034714Y-131074247D02*
X91987095Y-130979009D01*
X91987095Y-130979009D02*
X91939476Y-130931390D01*
X91939476Y-130931390D02*
X91844238Y-130883771D01*
X91844238Y-130883771D02*
X91653762Y-130883771D01*
X91653762Y-130883771D02*
X91558524Y-130931390D01*
X91558524Y-130931390D02*
X91510905Y-130979009D01*
X91510905Y-130979009D02*
X91463286Y-131074247D01*
X73789580Y-107142857D02*
X73837200Y-107190476D01*
X73837200Y-107190476D02*
X73884819Y-107333333D01*
X73884819Y-107333333D02*
X73884819Y-107428571D01*
X73884819Y-107428571D02*
X73837200Y-107571428D01*
X73837200Y-107571428D02*
X73741961Y-107666666D01*
X73741961Y-107666666D02*
X73646723Y-107714285D01*
X73646723Y-107714285D02*
X73456247Y-107761904D01*
X73456247Y-107761904D02*
X73313390Y-107761904D01*
X73313390Y-107761904D02*
X73122914Y-107714285D01*
X73122914Y-107714285D02*
X73027676Y-107666666D01*
X73027676Y-107666666D02*
X72932438Y-107571428D01*
X72932438Y-107571428D02*
X72884819Y-107428571D01*
X72884819Y-107428571D02*
X72884819Y-107333333D01*
X72884819Y-107333333D02*
X72932438Y-107190476D01*
X72932438Y-107190476D02*
X72980057Y-107142857D01*
X73884819Y-106190476D02*
X73884819Y-106761904D01*
X73884819Y-106476190D02*
X72884819Y-106476190D01*
X72884819Y-106476190D02*
X73027676Y-106571428D01*
X73027676Y-106571428D02*
X73122914Y-106666666D01*
X73122914Y-106666666D02*
X73170533Y-106761904D01*
X72980057Y-105809523D02*
X72932438Y-105761904D01*
X72932438Y-105761904D02*
X72884819Y-105666666D01*
X72884819Y-105666666D02*
X72884819Y-105428571D01*
X72884819Y-105428571D02*
X72932438Y-105333333D01*
X72932438Y-105333333D02*
X72980057Y-105285714D01*
X72980057Y-105285714D02*
X73075295Y-105238095D01*
X73075295Y-105238095D02*
X73170533Y-105238095D01*
X73170533Y-105238095D02*
X73313390Y-105285714D01*
X73313390Y-105285714D02*
X73884819Y-105857142D01*
X73884819Y-105857142D02*
X73884819Y-105238095D01*
X97940333Y-133026819D02*
X97607000Y-132550628D01*
X97368905Y-133026819D02*
X97368905Y-132026819D01*
X97368905Y-132026819D02*
X97749857Y-132026819D01*
X97749857Y-132026819D02*
X97845095Y-132074438D01*
X97845095Y-132074438D02*
X97892714Y-132122057D01*
X97892714Y-132122057D02*
X97940333Y-132217295D01*
X97940333Y-132217295D02*
X97940333Y-132360152D01*
X97940333Y-132360152D02*
X97892714Y-132455390D01*
X97892714Y-132455390D02*
X97845095Y-132503009D01*
X97845095Y-132503009D02*
X97749857Y-132550628D01*
X97749857Y-132550628D02*
X97368905Y-132550628D01*
X98321286Y-132122057D02*
X98368905Y-132074438D01*
X98368905Y-132074438D02*
X98464143Y-132026819D01*
X98464143Y-132026819D02*
X98702238Y-132026819D01*
X98702238Y-132026819D02*
X98797476Y-132074438D01*
X98797476Y-132074438D02*
X98845095Y-132122057D01*
X98845095Y-132122057D02*
X98892714Y-132217295D01*
X98892714Y-132217295D02*
X98892714Y-132312533D01*
X98892714Y-132312533D02*
X98845095Y-132455390D01*
X98845095Y-132455390D02*
X98273667Y-133026819D01*
X98273667Y-133026819D02*
X98892714Y-133026819D01*
X114488095Y-98204819D02*
X114488095Y-99014342D01*
X114488095Y-99014342D02*
X114535714Y-99109580D01*
X114535714Y-99109580D02*
X114583333Y-99157200D01*
X114583333Y-99157200D02*
X114678571Y-99204819D01*
X114678571Y-99204819D02*
X114869047Y-99204819D01*
X114869047Y-99204819D02*
X114964285Y-99157200D01*
X114964285Y-99157200D02*
X115011904Y-99109580D01*
X115011904Y-99109580D02*
X115059523Y-99014342D01*
X115059523Y-99014342D02*
X115059523Y-98204819D01*
X115488095Y-98300057D02*
X115535714Y-98252438D01*
X115535714Y-98252438D02*
X115630952Y-98204819D01*
X115630952Y-98204819D02*
X115869047Y-98204819D01*
X115869047Y-98204819D02*
X115964285Y-98252438D01*
X115964285Y-98252438D02*
X116011904Y-98300057D01*
X116011904Y-98300057D02*
X116059523Y-98395295D01*
X116059523Y-98395295D02*
X116059523Y-98490533D01*
X116059523Y-98490533D02*
X116011904Y-98633390D01*
X116011904Y-98633390D02*
X115440476Y-99204819D01*
X115440476Y-99204819D02*
X116059523Y-99204819D01*
X88333819Y-114639404D02*
X89143342Y-114639404D01*
X89143342Y-114639404D02*
X89238580Y-114591785D01*
X89238580Y-114591785D02*
X89286200Y-114544166D01*
X89286200Y-114544166D02*
X89333819Y-114448928D01*
X89333819Y-114448928D02*
X89333819Y-114258452D01*
X89333819Y-114258452D02*
X89286200Y-114163214D01*
X89286200Y-114163214D02*
X89238580Y-114115595D01*
X89238580Y-114115595D02*
X89143342Y-114067976D01*
X89143342Y-114067976D02*
X88333819Y-114067976D01*
X88333819Y-113163214D02*
X88333819Y-113353690D01*
X88333819Y-113353690D02*
X88381438Y-113448928D01*
X88381438Y-113448928D02*
X88429057Y-113496547D01*
X88429057Y-113496547D02*
X88571914Y-113591785D01*
X88571914Y-113591785D02*
X88762390Y-113639404D01*
X88762390Y-113639404D02*
X89143342Y-113639404D01*
X89143342Y-113639404D02*
X89238580Y-113591785D01*
X89238580Y-113591785D02*
X89286200Y-113544166D01*
X89286200Y-113544166D02*
X89333819Y-113448928D01*
X89333819Y-113448928D02*
X89333819Y-113258452D01*
X89333819Y-113258452D02*
X89286200Y-113163214D01*
X89286200Y-113163214D02*
X89238580Y-113115595D01*
X89238580Y-113115595D02*
X89143342Y-113067976D01*
X89143342Y-113067976D02*
X88905247Y-113067976D01*
X88905247Y-113067976D02*
X88810009Y-113115595D01*
X88810009Y-113115595D02*
X88762390Y-113163214D01*
X88762390Y-113163214D02*
X88714771Y-113258452D01*
X88714771Y-113258452D02*
X88714771Y-113448928D01*
X88714771Y-113448928D02*
X88762390Y-113544166D01*
X88762390Y-113544166D02*
X88810009Y-113591785D01*
X88810009Y-113591785D02*
X88905247Y-113639404D01*
X107744333Y-116458819D02*
X107411000Y-115982628D01*
X107172905Y-116458819D02*
X107172905Y-115458819D01*
X107172905Y-115458819D02*
X107553857Y-115458819D01*
X107553857Y-115458819D02*
X107649095Y-115506438D01*
X107649095Y-115506438D02*
X107696714Y-115554057D01*
X107696714Y-115554057D02*
X107744333Y-115649295D01*
X107744333Y-115649295D02*
X107744333Y-115792152D01*
X107744333Y-115792152D02*
X107696714Y-115887390D01*
X107696714Y-115887390D02*
X107649095Y-115935009D01*
X107649095Y-115935009D02*
X107553857Y-115982628D01*
X107553857Y-115982628D02*
X107172905Y-115982628D01*
X108220524Y-116458819D02*
X108411000Y-116458819D01*
X108411000Y-116458819D02*
X108506238Y-116411200D01*
X108506238Y-116411200D02*
X108553857Y-116363580D01*
X108553857Y-116363580D02*
X108649095Y-116220723D01*
X108649095Y-116220723D02*
X108696714Y-116030247D01*
X108696714Y-116030247D02*
X108696714Y-115649295D01*
X108696714Y-115649295D02*
X108649095Y-115554057D01*
X108649095Y-115554057D02*
X108601476Y-115506438D01*
X108601476Y-115506438D02*
X108506238Y-115458819D01*
X108506238Y-115458819D02*
X108315762Y-115458819D01*
X108315762Y-115458819D02*
X108220524Y-115506438D01*
X108220524Y-115506438D02*
X108172905Y-115554057D01*
X108172905Y-115554057D02*
X108125286Y-115649295D01*
X108125286Y-115649295D02*
X108125286Y-115887390D01*
X108125286Y-115887390D02*
X108172905Y-115982628D01*
X108172905Y-115982628D02*
X108220524Y-116030247D01*
X108220524Y-116030247D02*
X108315762Y-116077866D01*
X108315762Y-116077866D02*
X108506238Y-116077866D01*
X108506238Y-116077866D02*
X108601476Y-116030247D01*
X108601476Y-116030247D02*
X108649095Y-115982628D01*
X108649095Y-115982628D02*
X108696714Y-115887390D01*
X95488905Y-116204819D02*
X95488905Y-115204819D01*
X95488905Y-115204819D02*
X95727000Y-115204819D01*
X95727000Y-115204819D02*
X95869857Y-115252438D01*
X95869857Y-115252438D02*
X95965095Y-115347676D01*
X95965095Y-115347676D02*
X96012714Y-115442914D01*
X96012714Y-115442914D02*
X96060333Y-115633390D01*
X96060333Y-115633390D02*
X96060333Y-115776247D01*
X96060333Y-115776247D02*
X96012714Y-115966723D01*
X96012714Y-115966723D02*
X95965095Y-116061961D01*
X95965095Y-116061961D02*
X95869857Y-116157200D01*
X95869857Y-116157200D02*
X95727000Y-116204819D01*
X95727000Y-116204819D02*
X95488905Y-116204819D01*
X96965095Y-115204819D02*
X96488905Y-115204819D01*
X96488905Y-115204819D02*
X96441286Y-115681009D01*
X96441286Y-115681009D02*
X96488905Y-115633390D01*
X96488905Y-115633390D02*
X96584143Y-115585771D01*
X96584143Y-115585771D02*
X96822238Y-115585771D01*
X96822238Y-115585771D02*
X96917476Y-115633390D01*
X96917476Y-115633390D02*
X96965095Y-115681009D01*
X96965095Y-115681009D02*
X97012714Y-115776247D01*
X97012714Y-115776247D02*
X97012714Y-116014342D01*
X97012714Y-116014342D02*
X96965095Y-116109580D01*
X96965095Y-116109580D02*
X96917476Y-116157200D01*
X96917476Y-116157200D02*
X96822238Y-116204819D01*
X96822238Y-116204819D02*
X96584143Y-116204819D01*
X96584143Y-116204819D02*
X96488905Y-116157200D01*
X96488905Y-116157200D02*
X96441286Y-116109580D01*
X104798333Y-131407580D02*
X104750714Y-131455200D01*
X104750714Y-131455200D02*
X104607857Y-131502819D01*
X104607857Y-131502819D02*
X104512619Y-131502819D01*
X104512619Y-131502819D02*
X104369762Y-131455200D01*
X104369762Y-131455200D02*
X104274524Y-131359961D01*
X104274524Y-131359961D02*
X104226905Y-131264723D01*
X104226905Y-131264723D02*
X104179286Y-131074247D01*
X104179286Y-131074247D02*
X104179286Y-130931390D01*
X104179286Y-130931390D02*
X104226905Y-130740914D01*
X104226905Y-130740914D02*
X104274524Y-130645676D01*
X104274524Y-130645676D02*
X104369762Y-130550438D01*
X104369762Y-130550438D02*
X104512619Y-130502819D01*
X104512619Y-130502819D02*
X104607857Y-130502819D01*
X104607857Y-130502819D02*
X104750714Y-130550438D01*
X104750714Y-130550438D02*
X104798333Y-130598057D01*
X105131667Y-130502819D02*
X105798333Y-130502819D01*
X105798333Y-130502819D02*
X105369762Y-131502819D01*
X111275905Y-106118819D02*
X111275905Y-105118819D01*
X111275905Y-105118819D02*
X111514000Y-105118819D01*
X111514000Y-105118819D02*
X111656857Y-105166438D01*
X111656857Y-105166438D02*
X111752095Y-105261676D01*
X111752095Y-105261676D02*
X111799714Y-105356914D01*
X111799714Y-105356914D02*
X111847333Y-105547390D01*
X111847333Y-105547390D02*
X111847333Y-105690247D01*
X111847333Y-105690247D02*
X111799714Y-105880723D01*
X111799714Y-105880723D02*
X111752095Y-105975961D01*
X111752095Y-105975961D02*
X111656857Y-106071200D01*
X111656857Y-106071200D02*
X111514000Y-106118819D01*
X111514000Y-106118819D02*
X111275905Y-106118819D01*
X112180667Y-105118819D02*
X112799714Y-105118819D01*
X112799714Y-105118819D02*
X112466381Y-105499771D01*
X112466381Y-105499771D02*
X112609238Y-105499771D01*
X112609238Y-105499771D02*
X112704476Y-105547390D01*
X112704476Y-105547390D02*
X112752095Y-105595009D01*
X112752095Y-105595009D02*
X112799714Y-105690247D01*
X112799714Y-105690247D02*
X112799714Y-105928342D01*
X112799714Y-105928342D02*
X112752095Y-106023580D01*
X112752095Y-106023580D02*
X112704476Y-106071200D01*
X112704476Y-106071200D02*
X112609238Y-106118819D01*
X112609238Y-106118819D02*
X112323524Y-106118819D01*
X112323524Y-106118819D02*
X112228286Y-106071200D01*
X112228286Y-106071200D02*
X112180667Y-106023580D01*
X103306142Y-125565580D02*
X103258523Y-125613200D01*
X103258523Y-125613200D02*
X103115666Y-125660819D01*
X103115666Y-125660819D02*
X103020428Y-125660819D01*
X103020428Y-125660819D02*
X102877571Y-125613200D01*
X102877571Y-125613200D02*
X102782333Y-125517961D01*
X102782333Y-125517961D02*
X102734714Y-125422723D01*
X102734714Y-125422723D02*
X102687095Y-125232247D01*
X102687095Y-125232247D02*
X102687095Y-125089390D01*
X102687095Y-125089390D02*
X102734714Y-124898914D01*
X102734714Y-124898914D02*
X102782333Y-124803676D01*
X102782333Y-124803676D02*
X102877571Y-124708438D01*
X102877571Y-124708438D02*
X103020428Y-124660819D01*
X103020428Y-124660819D02*
X103115666Y-124660819D01*
X103115666Y-124660819D02*
X103258523Y-124708438D01*
X103258523Y-124708438D02*
X103306142Y-124756057D01*
X104258523Y-125660819D02*
X103687095Y-125660819D01*
X103972809Y-125660819D02*
X103972809Y-124660819D01*
X103972809Y-124660819D02*
X103877571Y-124803676D01*
X103877571Y-124803676D02*
X103782333Y-124898914D01*
X103782333Y-124898914D02*
X103687095Y-124946533D01*
X104877571Y-124660819D02*
X104972809Y-124660819D01*
X104972809Y-124660819D02*
X105068047Y-124708438D01*
X105068047Y-124708438D02*
X105115666Y-124756057D01*
X105115666Y-124756057D02*
X105163285Y-124851295D01*
X105163285Y-124851295D02*
X105210904Y-125041771D01*
X105210904Y-125041771D02*
X105210904Y-125279866D01*
X105210904Y-125279866D02*
X105163285Y-125470342D01*
X105163285Y-125470342D02*
X105115666Y-125565580D01*
X105115666Y-125565580D02*
X105068047Y-125613200D01*
X105068047Y-125613200D02*
X104972809Y-125660819D01*
X104972809Y-125660819D02*
X104877571Y-125660819D01*
X104877571Y-125660819D02*
X104782333Y-125613200D01*
X104782333Y-125613200D02*
X104734714Y-125565580D01*
X104734714Y-125565580D02*
X104687095Y-125470342D01*
X104687095Y-125470342D02*
X104639476Y-125279866D01*
X104639476Y-125279866D02*
X104639476Y-125041771D01*
X104639476Y-125041771D02*
X104687095Y-124851295D01*
X104687095Y-124851295D02*
X104734714Y-124756057D01*
X104734714Y-124756057D02*
X104782333Y-124708438D01*
X104782333Y-124708438D02*
X104877571Y-124660819D01*
X91801333Y-79323580D02*
X91753714Y-79371200D01*
X91753714Y-79371200D02*
X91610857Y-79418819D01*
X91610857Y-79418819D02*
X91515619Y-79418819D01*
X91515619Y-79418819D02*
X91372762Y-79371200D01*
X91372762Y-79371200D02*
X91277524Y-79275961D01*
X91277524Y-79275961D02*
X91229905Y-79180723D01*
X91229905Y-79180723D02*
X91182286Y-78990247D01*
X91182286Y-78990247D02*
X91182286Y-78847390D01*
X91182286Y-78847390D02*
X91229905Y-78656914D01*
X91229905Y-78656914D02*
X91277524Y-78561676D01*
X91277524Y-78561676D02*
X91372762Y-78466438D01*
X91372762Y-78466438D02*
X91515619Y-78418819D01*
X91515619Y-78418819D02*
X91610857Y-78418819D01*
X91610857Y-78418819D02*
X91753714Y-78466438D01*
X91753714Y-78466438D02*
X91801333Y-78514057D01*
X92134667Y-78418819D02*
X92753714Y-78418819D01*
X92753714Y-78418819D02*
X92420381Y-78799771D01*
X92420381Y-78799771D02*
X92563238Y-78799771D01*
X92563238Y-78799771D02*
X92658476Y-78847390D01*
X92658476Y-78847390D02*
X92706095Y-78895009D01*
X92706095Y-78895009D02*
X92753714Y-78990247D01*
X92753714Y-78990247D02*
X92753714Y-79228342D01*
X92753714Y-79228342D02*
X92706095Y-79323580D01*
X92706095Y-79323580D02*
X92658476Y-79371200D01*
X92658476Y-79371200D02*
X92563238Y-79418819D01*
X92563238Y-79418819D02*
X92277524Y-79418819D01*
X92277524Y-79418819D02*
X92182286Y-79371200D01*
X92182286Y-79371200D02*
X92134667Y-79323580D01*
X90504142Y-121951580D02*
X90456523Y-121999200D01*
X90456523Y-121999200D02*
X90313666Y-122046819D01*
X90313666Y-122046819D02*
X90218428Y-122046819D01*
X90218428Y-122046819D02*
X90075571Y-121999200D01*
X90075571Y-121999200D02*
X89980333Y-121903961D01*
X89980333Y-121903961D02*
X89932714Y-121808723D01*
X89932714Y-121808723D02*
X89885095Y-121618247D01*
X89885095Y-121618247D02*
X89885095Y-121475390D01*
X89885095Y-121475390D02*
X89932714Y-121284914D01*
X89932714Y-121284914D02*
X89980333Y-121189676D01*
X89980333Y-121189676D02*
X90075571Y-121094438D01*
X90075571Y-121094438D02*
X90218428Y-121046819D01*
X90218428Y-121046819D02*
X90313666Y-121046819D01*
X90313666Y-121046819D02*
X90456523Y-121094438D01*
X90456523Y-121094438D02*
X90504142Y-121142057D01*
X91456523Y-122046819D02*
X90885095Y-122046819D01*
X91170809Y-122046819D02*
X91170809Y-121046819D01*
X91170809Y-121046819D02*
X91075571Y-121189676D01*
X91075571Y-121189676D02*
X90980333Y-121284914D01*
X90980333Y-121284914D02*
X90885095Y-121332533D01*
X91789857Y-121046819D02*
X92408904Y-121046819D01*
X92408904Y-121046819D02*
X92075571Y-121427771D01*
X92075571Y-121427771D02*
X92218428Y-121427771D01*
X92218428Y-121427771D02*
X92313666Y-121475390D01*
X92313666Y-121475390D02*
X92361285Y-121523009D01*
X92361285Y-121523009D02*
X92408904Y-121618247D01*
X92408904Y-121618247D02*
X92408904Y-121856342D01*
X92408904Y-121856342D02*
X92361285Y-121951580D01*
X92361285Y-121951580D02*
X92313666Y-121999200D01*
X92313666Y-121999200D02*
X92218428Y-122046819D01*
X92218428Y-122046819D02*
X91932714Y-122046819D01*
X91932714Y-122046819D02*
X91837476Y-121999200D01*
X91837476Y-121999200D02*
X91789857Y-121951580D01*
X93833333Y-79069580D02*
X93785714Y-79117200D01*
X93785714Y-79117200D02*
X93642857Y-79164819D01*
X93642857Y-79164819D02*
X93547619Y-79164819D01*
X93547619Y-79164819D02*
X93404762Y-79117200D01*
X93404762Y-79117200D02*
X93309524Y-79021961D01*
X93309524Y-79021961D02*
X93261905Y-78926723D01*
X93261905Y-78926723D02*
X93214286Y-78736247D01*
X93214286Y-78736247D02*
X93214286Y-78593390D01*
X93214286Y-78593390D02*
X93261905Y-78402914D01*
X93261905Y-78402914D02*
X93309524Y-78307676D01*
X93309524Y-78307676D02*
X93404762Y-78212438D01*
X93404762Y-78212438D02*
X93547619Y-78164819D01*
X93547619Y-78164819D02*
X93642857Y-78164819D01*
X93642857Y-78164819D02*
X93785714Y-78212438D01*
X93785714Y-78212438D02*
X93833333Y-78260057D01*
X94785714Y-79164819D02*
X94214286Y-79164819D01*
X94500000Y-79164819D02*
X94500000Y-78164819D01*
X94500000Y-78164819D02*
X94404762Y-78307676D01*
X94404762Y-78307676D02*
X94309524Y-78402914D01*
X94309524Y-78402914D02*
X94214286Y-78450533D01*
X95488905Y-111632819D02*
X95488905Y-110632819D01*
X95488905Y-110632819D02*
X95727000Y-110632819D01*
X95727000Y-110632819D02*
X95869857Y-110680438D01*
X95869857Y-110680438D02*
X95965095Y-110775676D01*
X95965095Y-110775676D02*
X96012714Y-110870914D01*
X96012714Y-110870914D02*
X96060333Y-111061390D01*
X96060333Y-111061390D02*
X96060333Y-111204247D01*
X96060333Y-111204247D02*
X96012714Y-111394723D01*
X96012714Y-111394723D02*
X95965095Y-111489961D01*
X95965095Y-111489961D02*
X95869857Y-111585200D01*
X95869857Y-111585200D02*
X95727000Y-111632819D01*
X95727000Y-111632819D02*
X95488905Y-111632819D01*
X96917476Y-110632819D02*
X96727000Y-110632819D01*
X96727000Y-110632819D02*
X96631762Y-110680438D01*
X96631762Y-110680438D02*
X96584143Y-110728057D01*
X96584143Y-110728057D02*
X96488905Y-110870914D01*
X96488905Y-110870914D02*
X96441286Y-111061390D01*
X96441286Y-111061390D02*
X96441286Y-111442342D01*
X96441286Y-111442342D02*
X96488905Y-111537580D01*
X96488905Y-111537580D02*
X96536524Y-111585200D01*
X96536524Y-111585200D02*
X96631762Y-111632819D01*
X96631762Y-111632819D02*
X96822238Y-111632819D01*
X96822238Y-111632819D02*
X96917476Y-111585200D01*
X96917476Y-111585200D02*
X96965095Y-111537580D01*
X96965095Y-111537580D02*
X97012714Y-111442342D01*
X97012714Y-111442342D02*
X97012714Y-111204247D01*
X97012714Y-111204247D02*
X96965095Y-111109009D01*
X96965095Y-111109009D02*
X96917476Y-111061390D01*
X96917476Y-111061390D02*
X96822238Y-111013771D01*
X96822238Y-111013771D02*
X96631762Y-111013771D01*
X96631762Y-111013771D02*
X96536524Y-111061390D01*
X96536524Y-111061390D02*
X96488905Y-111109009D01*
X96488905Y-111109009D02*
X96441286Y-111204247D01*
X91957819Y-127912666D02*
X91957819Y-128388856D01*
X91957819Y-128388856D02*
X90957819Y-128388856D01*
X91957819Y-127055523D02*
X91957819Y-127626951D01*
X91957819Y-127341237D02*
X90957819Y-127341237D01*
X90957819Y-127341237D02*
X91100676Y-127436475D01*
X91100676Y-127436475D02*
X91195914Y-127531713D01*
X91195914Y-127531713D02*
X91243533Y-127626951D01*
X111263580Y-102174166D02*
X111311200Y-102221785D01*
X111311200Y-102221785D02*
X111358819Y-102364642D01*
X111358819Y-102364642D02*
X111358819Y-102459880D01*
X111358819Y-102459880D02*
X111311200Y-102602737D01*
X111311200Y-102602737D02*
X111215961Y-102697975D01*
X111215961Y-102697975D02*
X111120723Y-102745594D01*
X111120723Y-102745594D02*
X110930247Y-102793213D01*
X110930247Y-102793213D02*
X110787390Y-102793213D01*
X110787390Y-102793213D02*
X110596914Y-102745594D01*
X110596914Y-102745594D02*
X110501676Y-102697975D01*
X110501676Y-102697975D02*
X110406438Y-102602737D01*
X110406438Y-102602737D02*
X110358819Y-102459880D01*
X110358819Y-102459880D02*
X110358819Y-102364642D01*
X110358819Y-102364642D02*
X110406438Y-102221785D01*
X110406438Y-102221785D02*
X110454057Y-102174166D01*
X110358819Y-101269404D02*
X110358819Y-101745594D01*
X110358819Y-101745594D02*
X110835009Y-101793213D01*
X110835009Y-101793213D02*
X110787390Y-101745594D01*
X110787390Y-101745594D02*
X110739771Y-101650356D01*
X110739771Y-101650356D02*
X110739771Y-101412261D01*
X110739771Y-101412261D02*
X110787390Y-101317023D01*
X110787390Y-101317023D02*
X110835009Y-101269404D01*
X110835009Y-101269404D02*
X110930247Y-101221785D01*
X110930247Y-101221785D02*
X111168342Y-101221785D01*
X111168342Y-101221785D02*
X111263580Y-101269404D01*
X111263580Y-101269404D02*
X111311200Y-101317023D01*
X111311200Y-101317023D02*
X111358819Y-101412261D01*
X111358819Y-101412261D02*
X111358819Y-101650356D01*
X111358819Y-101650356D02*
X111311200Y-101745594D01*
X111311200Y-101745594D02*
X111263580Y-101793213D01*
X125843200Y-132765332D02*
X125890819Y-132622475D01*
X125890819Y-132622475D02*
X125890819Y-132384380D01*
X125890819Y-132384380D02*
X125843200Y-132289142D01*
X125843200Y-132289142D02*
X125795580Y-132241523D01*
X125795580Y-132241523D02*
X125700342Y-132193904D01*
X125700342Y-132193904D02*
X125605104Y-132193904D01*
X125605104Y-132193904D02*
X125509866Y-132241523D01*
X125509866Y-132241523D02*
X125462247Y-132289142D01*
X125462247Y-132289142D02*
X125414628Y-132384380D01*
X125414628Y-132384380D02*
X125367009Y-132574856D01*
X125367009Y-132574856D02*
X125319390Y-132670094D01*
X125319390Y-132670094D02*
X125271771Y-132717713D01*
X125271771Y-132717713D02*
X125176533Y-132765332D01*
X125176533Y-132765332D02*
X125081295Y-132765332D01*
X125081295Y-132765332D02*
X124986057Y-132717713D01*
X124986057Y-132717713D02*
X124938438Y-132670094D01*
X124938438Y-132670094D02*
X124890819Y-132574856D01*
X124890819Y-132574856D02*
X124890819Y-132336761D01*
X124890819Y-132336761D02*
X124938438Y-132193904D01*
X124890819Y-131860570D02*
X125890819Y-131622475D01*
X125890819Y-131622475D02*
X125176533Y-131431999D01*
X125176533Y-131431999D02*
X125890819Y-131241523D01*
X125890819Y-131241523D02*
X124890819Y-131003428D01*
X125890819Y-130098666D02*
X125890819Y-130670094D01*
X125890819Y-130384380D02*
X124890819Y-130384380D01*
X124890819Y-130384380D02*
X125033676Y-130479618D01*
X125033676Y-130479618D02*
X125128914Y-130574856D01*
X125128914Y-130574856D02*
X125176533Y-130670094D01*
X81415666Y-117169159D02*
X81415666Y-117883444D01*
X81415666Y-117883444D02*
X81368047Y-118026301D01*
X81368047Y-118026301D02*
X81272809Y-118121540D01*
X81272809Y-118121540D02*
X81129952Y-118169159D01*
X81129952Y-118169159D02*
X81034714Y-118169159D01*
X82415666Y-118169159D02*
X81844238Y-118169159D01*
X82129952Y-118169159D02*
X82129952Y-117169159D01*
X82129952Y-117169159D02*
X82034714Y-117312016D01*
X82034714Y-117312016D02*
X81939476Y-117407254D01*
X81939476Y-117407254D02*
X81844238Y-117454873D01*
X118618095Y-99740819D02*
X118618095Y-100550342D01*
X118618095Y-100550342D02*
X118665714Y-100645580D01*
X118665714Y-100645580D02*
X118713333Y-100693200D01*
X118713333Y-100693200D02*
X118808571Y-100740819D01*
X118808571Y-100740819D02*
X118999047Y-100740819D01*
X118999047Y-100740819D02*
X119094285Y-100693200D01*
X119094285Y-100693200D02*
X119141904Y-100645580D01*
X119141904Y-100645580D02*
X119189523Y-100550342D01*
X119189523Y-100550342D02*
X119189523Y-99740819D01*
X120189523Y-100740819D02*
X119618095Y-100740819D01*
X119903809Y-100740819D02*
X119903809Y-99740819D01*
X119903809Y-99740819D02*
X119808571Y-99883676D01*
X119808571Y-99883676D02*
X119713333Y-99978914D01*
X119713333Y-99978914D02*
X119618095Y-100026533D01*
X88705833Y-84752819D02*
X88372500Y-84276628D01*
X88134405Y-84752819D02*
X88134405Y-83752819D01*
X88134405Y-83752819D02*
X88515357Y-83752819D01*
X88515357Y-83752819D02*
X88610595Y-83800438D01*
X88610595Y-83800438D02*
X88658214Y-83848057D01*
X88658214Y-83848057D02*
X88705833Y-83943295D01*
X88705833Y-83943295D02*
X88705833Y-84086152D01*
X88705833Y-84086152D02*
X88658214Y-84181390D01*
X88658214Y-84181390D02*
X88610595Y-84229009D01*
X88610595Y-84229009D02*
X88515357Y-84276628D01*
X88515357Y-84276628D02*
X88134405Y-84276628D01*
X89658214Y-84752819D02*
X89086786Y-84752819D01*
X89372500Y-84752819D02*
X89372500Y-83752819D01*
X89372500Y-83752819D02*
X89277262Y-83895676D01*
X89277262Y-83895676D02*
X89182024Y-83990914D01*
X89182024Y-83990914D02*
X89086786Y-84038533D01*
X100004142Y-125565580D02*
X99956523Y-125613200D01*
X99956523Y-125613200D02*
X99813666Y-125660819D01*
X99813666Y-125660819D02*
X99718428Y-125660819D01*
X99718428Y-125660819D02*
X99575571Y-125613200D01*
X99575571Y-125613200D02*
X99480333Y-125517961D01*
X99480333Y-125517961D02*
X99432714Y-125422723D01*
X99432714Y-125422723D02*
X99385095Y-125232247D01*
X99385095Y-125232247D02*
X99385095Y-125089390D01*
X99385095Y-125089390D02*
X99432714Y-124898914D01*
X99432714Y-124898914D02*
X99480333Y-124803676D01*
X99480333Y-124803676D02*
X99575571Y-124708438D01*
X99575571Y-124708438D02*
X99718428Y-124660819D01*
X99718428Y-124660819D02*
X99813666Y-124660819D01*
X99813666Y-124660819D02*
X99956523Y-124708438D01*
X99956523Y-124708438D02*
X100004142Y-124756057D01*
X100956523Y-125660819D02*
X100385095Y-125660819D01*
X100670809Y-125660819D02*
X100670809Y-124660819D01*
X100670809Y-124660819D02*
X100575571Y-124803676D01*
X100575571Y-124803676D02*
X100480333Y-124898914D01*
X100480333Y-124898914D02*
X100385095Y-124946533D01*
X101908904Y-125660819D02*
X101337476Y-125660819D01*
X101623190Y-125660819D02*
X101623190Y-124660819D01*
X101623190Y-124660819D02*
X101527952Y-124803676D01*
X101527952Y-124803676D02*
X101432714Y-124898914D01*
X101432714Y-124898914D02*
X101337476Y-124946533D01*
X107776142Y-112902819D02*
X107442809Y-112426628D01*
X107204714Y-112902819D02*
X107204714Y-111902819D01*
X107204714Y-111902819D02*
X107585666Y-111902819D01*
X107585666Y-111902819D02*
X107680904Y-111950438D01*
X107680904Y-111950438D02*
X107728523Y-111998057D01*
X107728523Y-111998057D02*
X107776142Y-112093295D01*
X107776142Y-112093295D02*
X107776142Y-112236152D01*
X107776142Y-112236152D02*
X107728523Y-112331390D01*
X107728523Y-112331390D02*
X107680904Y-112379009D01*
X107680904Y-112379009D02*
X107585666Y-112426628D01*
X107585666Y-112426628D02*
X107204714Y-112426628D01*
X108728523Y-112902819D02*
X108157095Y-112902819D01*
X108442809Y-112902819D02*
X108442809Y-111902819D01*
X108442809Y-111902819D02*
X108347571Y-112045676D01*
X108347571Y-112045676D02*
X108252333Y-112140914D01*
X108252333Y-112140914D02*
X108157095Y-112188533D01*
X109347571Y-111902819D02*
X109442809Y-111902819D01*
X109442809Y-111902819D02*
X109538047Y-111950438D01*
X109538047Y-111950438D02*
X109585666Y-111998057D01*
X109585666Y-111998057D02*
X109633285Y-112093295D01*
X109633285Y-112093295D02*
X109680904Y-112283771D01*
X109680904Y-112283771D02*
X109680904Y-112521866D01*
X109680904Y-112521866D02*
X109633285Y-112712342D01*
X109633285Y-112712342D02*
X109585666Y-112807580D01*
X109585666Y-112807580D02*
X109538047Y-112855200D01*
X109538047Y-112855200D02*
X109442809Y-112902819D01*
X109442809Y-112902819D02*
X109347571Y-112902819D01*
X109347571Y-112902819D02*
X109252333Y-112855200D01*
X109252333Y-112855200D02*
X109204714Y-112807580D01*
X109204714Y-112807580D02*
X109157095Y-112712342D01*
X109157095Y-112712342D02*
X109109476Y-112521866D01*
X109109476Y-112521866D02*
X109109476Y-112283771D01*
X109109476Y-112283771D02*
X109157095Y-112093295D01*
X109157095Y-112093295D02*
X109204714Y-111998057D01*
X109204714Y-111998057D02*
X109252333Y-111950438D01*
X109252333Y-111950438D02*
X109347571Y-111902819D01*
X87456142Y-121697580D02*
X87408523Y-121745200D01*
X87408523Y-121745200D02*
X87265666Y-121792819D01*
X87265666Y-121792819D02*
X87170428Y-121792819D01*
X87170428Y-121792819D02*
X87027571Y-121745200D01*
X87027571Y-121745200D02*
X86932333Y-121649961D01*
X86932333Y-121649961D02*
X86884714Y-121554723D01*
X86884714Y-121554723D02*
X86837095Y-121364247D01*
X86837095Y-121364247D02*
X86837095Y-121221390D01*
X86837095Y-121221390D02*
X86884714Y-121030914D01*
X86884714Y-121030914D02*
X86932333Y-120935676D01*
X86932333Y-120935676D02*
X87027571Y-120840438D01*
X87027571Y-120840438D02*
X87170428Y-120792819D01*
X87170428Y-120792819D02*
X87265666Y-120792819D01*
X87265666Y-120792819D02*
X87408523Y-120840438D01*
X87408523Y-120840438D02*
X87456142Y-120888057D01*
X88408523Y-121792819D02*
X87837095Y-121792819D01*
X88122809Y-121792819D02*
X88122809Y-120792819D01*
X88122809Y-120792819D02*
X88027571Y-120935676D01*
X88027571Y-120935676D02*
X87932333Y-121030914D01*
X87932333Y-121030914D02*
X87837095Y-121078533D01*
X89265666Y-121126152D02*
X89265666Y-121792819D01*
X89027571Y-120745200D02*
X88789476Y-121459485D01*
X88789476Y-121459485D02*
X89408523Y-121459485D01*
X88583333Y-88109580D02*
X88535714Y-88157200D01*
X88535714Y-88157200D02*
X88392857Y-88204819D01*
X88392857Y-88204819D02*
X88297619Y-88204819D01*
X88297619Y-88204819D02*
X88154762Y-88157200D01*
X88154762Y-88157200D02*
X88059524Y-88061961D01*
X88059524Y-88061961D02*
X88011905Y-87966723D01*
X88011905Y-87966723D02*
X87964286Y-87776247D01*
X87964286Y-87776247D02*
X87964286Y-87633390D01*
X87964286Y-87633390D02*
X88011905Y-87442914D01*
X88011905Y-87442914D02*
X88059524Y-87347676D01*
X88059524Y-87347676D02*
X88154762Y-87252438D01*
X88154762Y-87252438D02*
X88297619Y-87204819D01*
X88297619Y-87204819D02*
X88392857Y-87204819D01*
X88392857Y-87204819D02*
X88535714Y-87252438D01*
X88535714Y-87252438D02*
X88583333Y-87300057D01*
X88964286Y-87300057D02*
X89011905Y-87252438D01*
X89011905Y-87252438D02*
X89107143Y-87204819D01*
X89107143Y-87204819D02*
X89345238Y-87204819D01*
X89345238Y-87204819D02*
X89440476Y-87252438D01*
X89440476Y-87252438D02*
X89488095Y-87300057D01*
X89488095Y-87300057D02*
X89535714Y-87395295D01*
X89535714Y-87395295D02*
X89535714Y-87490533D01*
X89535714Y-87490533D02*
X89488095Y-87633390D01*
X89488095Y-87633390D02*
X88916667Y-88204819D01*
X88916667Y-88204819D02*
X89535714Y-88204819D01*
X88705833Y-86530819D02*
X88372500Y-86054628D01*
X88134405Y-86530819D02*
X88134405Y-85530819D01*
X88134405Y-85530819D02*
X88515357Y-85530819D01*
X88515357Y-85530819D02*
X88610595Y-85578438D01*
X88610595Y-85578438D02*
X88658214Y-85626057D01*
X88658214Y-85626057D02*
X88705833Y-85721295D01*
X88705833Y-85721295D02*
X88705833Y-85864152D01*
X88705833Y-85864152D02*
X88658214Y-85959390D01*
X88658214Y-85959390D02*
X88610595Y-86007009D01*
X88610595Y-86007009D02*
X88515357Y-86054628D01*
X88515357Y-86054628D02*
X88134405Y-86054628D01*
X89562976Y-85864152D02*
X89562976Y-86530819D01*
X89324881Y-85483200D02*
X89086786Y-86197485D01*
X89086786Y-86197485D02*
X89705833Y-86197485D01*
X101277580Y-102274666D02*
X101325200Y-102322285D01*
X101325200Y-102322285D02*
X101372819Y-102465142D01*
X101372819Y-102465142D02*
X101372819Y-102560380D01*
X101372819Y-102560380D02*
X101325200Y-102703237D01*
X101325200Y-102703237D02*
X101229961Y-102798475D01*
X101229961Y-102798475D02*
X101134723Y-102846094D01*
X101134723Y-102846094D02*
X100944247Y-102893713D01*
X100944247Y-102893713D02*
X100801390Y-102893713D01*
X100801390Y-102893713D02*
X100610914Y-102846094D01*
X100610914Y-102846094D02*
X100515676Y-102798475D01*
X100515676Y-102798475D02*
X100420438Y-102703237D01*
X100420438Y-102703237D02*
X100372819Y-102560380D01*
X100372819Y-102560380D02*
X100372819Y-102465142D01*
X100372819Y-102465142D02*
X100420438Y-102322285D01*
X100420438Y-102322285D02*
X100468057Y-102274666D01*
X100706152Y-101417523D02*
X101372819Y-101417523D01*
X100325200Y-101655618D02*
X101039485Y-101893713D01*
X101039485Y-101893713D02*
X101039485Y-101274666D01*
X115937200Y-132257332D02*
X115984819Y-132114475D01*
X115984819Y-132114475D02*
X115984819Y-131876380D01*
X115984819Y-131876380D02*
X115937200Y-131781142D01*
X115937200Y-131781142D02*
X115889580Y-131733523D01*
X115889580Y-131733523D02*
X115794342Y-131685904D01*
X115794342Y-131685904D02*
X115699104Y-131685904D01*
X115699104Y-131685904D02*
X115603866Y-131733523D01*
X115603866Y-131733523D02*
X115556247Y-131781142D01*
X115556247Y-131781142D02*
X115508628Y-131876380D01*
X115508628Y-131876380D02*
X115461009Y-132066856D01*
X115461009Y-132066856D02*
X115413390Y-132162094D01*
X115413390Y-132162094D02*
X115365771Y-132209713D01*
X115365771Y-132209713D02*
X115270533Y-132257332D01*
X115270533Y-132257332D02*
X115175295Y-132257332D01*
X115175295Y-132257332D02*
X115080057Y-132209713D01*
X115080057Y-132209713D02*
X115032438Y-132162094D01*
X115032438Y-132162094D02*
X114984819Y-132066856D01*
X114984819Y-132066856D02*
X114984819Y-131828761D01*
X114984819Y-131828761D02*
X115032438Y-131685904D01*
X114984819Y-131352570D02*
X115984819Y-131114475D01*
X115984819Y-131114475D02*
X115270533Y-130923999D01*
X115270533Y-130923999D02*
X115984819Y-130733523D01*
X115984819Y-130733523D02*
X114984819Y-130495428D01*
X115080057Y-130162094D02*
X115032438Y-130114475D01*
X115032438Y-130114475D02*
X114984819Y-130019237D01*
X114984819Y-130019237D02*
X114984819Y-129781142D01*
X114984819Y-129781142D02*
X115032438Y-129685904D01*
X115032438Y-129685904D02*
X115080057Y-129638285D01*
X115080057Y-129638285D02*
X115175295Y-129590666D01*
X115175295Y-129590666D02*
X115270533Y-129590666D01*
X115270533Y-129590666D02*
X115413390Y-129638285D01*
X115413390Y-129638285D02*
X115984819Y-130209713D01*
X115984819Y-130209713D02*
X115984819Y-129590666D01*
X101941333Y-106118819D02*
X101608000Y-105642628D01*
X101369905Y-106118819D02*
X101369905Y-105118819D01*
X101369905Y-105118819D02*
X101750857Y-105118819D01*
X101750857Y-105118819D02*
X101846095Y-105166438D01*
X101846095Y-105166438D02*
X101893714Y-105214057D01*
X101893714Y-105214057D02*
X101941333Y-105309295D01*
X101941333Y-105309295D02*
X101941333Y-105452152D01*
X101941333Y-105452152D02*
X101893714Y-105547390D01*
X101893714Y-105547390D02*
X101846095Y-105595009D01*
X101846095Y-105595009D02*
X101750857Y-105642628D01*
X101750857Y-105642628D02*
X101369905Y-105642628D01*
X102798476Y-105118819D02*
X102608000Y-105118819D01*
X102608000Y-105118819D02*
X102512762Y-105166438D01*
X102512762Y-105166438D02*
X102465143Y-105214057D01*
X102465143Y-105214057D02*
X102369905Y-105356914D01*
X102369905Y-105356914D02*
X102322286Y-105547390D01*
X102322286Y-105547390D02*
X102322286Y-105928342D01*
X102322286Y-105928342D02*
X102369905Y-106023580D01*
X102369905Y-106023580D02*
X102417524Y-106071200D01*
X102417524Y-106071200D02*
X102512762Y-106118819D01*
X102512762Y-106118819D02*
X102703238Y-106118819D01*
X102703238Y-106118819D02*
X102798476Y-106071200D01*
X102798476Y-106071200D02*
X102846095Y-106023580D01*
X102846095Y-106023580D02*
X102893714Y-105928342D01*
X102893714Y-105928342D02*
X102893714Y-105690247D01*
X102893714Y-105690247D02*
X102846095Y-105595009D01*
X102846095Y-105595009D02*
X102798476Y-105547390D01*
X102798476Y-105547390D02*
X102703238Y-105499771D01*
X102703238Y-105499771D02*
X102512762Y-105499771D01*
X102512762Y-105499771D02*
X102417524Y-105547390D01*
X102417524Y-105547390D02*
X102369905Y-105595009D01*
X102369905Y-105595009D02*
X102322286Y-105690247D01*
X94012618Y-122046819D02*
X93679285Y-121570628D01*
X93441190Y-122046819D02*
X93441190Y-121046819D01*
X93441190Y-121046819D02*
X93822142Y-121046819D01*
X93822142Y-121046819D02*
X93917380Y-121094438D01*
X93917380Y-121094438D02*
X93964999Y-121142057D01*
X93964999Y-121142057D02*
X94012618Y-121237295D01*
X94012618Y-121237295D02*
X94012618Y-121380152D01*
X94012618Y-121380152D02*
X93964999Y-121475390D01*
X93964999Y-121475390D02*
X93917380Y-121523009D01*
X93917380Y-121523009D02*
X93822142Y-121570628D01*
X93822142Y-121570628D02*
X93441190Y-121570628D01*
X94203095Y-122142057D02*
X94964999Y-122142057D01*
X95060238Y-121046819D02*
X95631666Y-121046819D01*
X95345952Y-122046819D02*
X95345952Y-121046819D01*
X95965000Y-122046819D02*
X95965000Y-121046819D01*
X95965000Y-121523009D02*
X96536428Y-121523009D01*
X96536428Y-122046819D02*
X96536428Y-121046819D01*
X97536428Y-122046819D02*
X96965000Y-122046819D01*
X97250714Y-122046819D02*
X97250714Y-121046819D01*
X97250714Y-121046819D02*
X97155476Y-121189676D01*
X97155476Y-121189676D02*
X97060238Y-121284914D01*
X97060238Y-121284914D02*
X96965000Y-121332533D01*
X111085333Y-135901580D02*
X111037714Y-135949200D01*
X111037714Y-135949200D02*
X110894857Y-135996819D01*
X110894857Y-135996819D02*
X110799619Y-135996819D01*
X110799619Y-135996819D02*
X110656762Y-135949200D01*
X110656762Y-135949200D02*
X110561524Y-135853961D01*
X110561524Y-135853961D02*
X110513905Y-135758723D01*
X110513905Y-135758723D02*
X110466286Y-135568247D01*
X110466286Y-135568247D02*
X110466286Y-135425390D01*
X110466286Y-135425390D02*
X110513905Y-135234914D01*
X110513905Y-135234914D02*
X110561524Y-135139676D01*
X110561524Y-135139676D02*
X110656762Y-135044438D01*
X110656762Y-135044438D02*
X110799619Y-134996819D01*
X110799619Y-134996819D02*
X110894857Y-134996819D01*
X110894857Y-134996819D02*
X111037714Y-135044438D01*
X111037714Y-135044438D02*
X111085333Y-135092057D01*
X111561524Y-135996819D02*
X111752000Y-135996819D01*
X111752000Y-135996819D02*
X111847238Y-135949200D01*
X111847238Y-135949200D02*
X111894857Y-135901580D01*
X111894857Y-135901580D02*
X111990095Y-135758723D01*
X111990095Y-135758723D02*
X112037714Y-135568247D01*
X112037714Y-135568247D02*
X112037714Y-135187295D01*
X112037714Y-135187295D02*
X111990095Y-135092057D01*
X111990095Y-135092057D02*
X111942476Y-135044438D01*
X111942476Y-135044438D02*
X111847238Y-134996819D01*
X111847238Y-134996819D02*
X111656762Y-134996819D01*
X111656762Y-134996819D02*
X111561524Y-135044438D01*
X111561524Y-135044438D02*
X111513905Y-135092057D01*
X111513905Y-135092057D02*
X111466286Y-135187295D01*
X111466286Y-135187295D02*
X111466286Y-135425390D01*
X111466286Y-135425390D02*
X111513905Y-135520628D01*
X111513905Y-135520628D02*
X111561524Y-135568247D01*
X111561524Y-135568247D02*
X111656762Y-135615866D01*
X111656762Y-135615866D02*
X111847238Y-135615866D01*
X111847238Y-135615866D02*
X111942476Y-135568247D01*
X111942476Y-135568247D02*
X111990095Y-135520628D01*
X111990095Y-135520628D02*
X112037714Y-135425390D01*
X55774819Y-107916666D02*
X55298628Y-108249999D01*
X55774819Y-108488094D02*
X54774819Y-108488094D01*
X54774819Y-108488094D02*
X54774819Y-108107142D01*
X54774819Y-108107142D02*
X54822438Y-108011904D01*
X54822438Y-108011904D02*
X54870057Y-107964285D01*
X54870057Y-107964285D02*
X54965295Y-107916666D01*
X54965295Y-107916666D02*
X55108152Y-107916666D01*
X55108152Y-107916666D02*
X55203390Y-107964285D01*
X55203390Y-107964285D02*
X55251009Y-108011904D01*
X55251009Y-108011904D02*
X55298628Y-108107142D01*
X55298628Y-108107142D02*
X55298628Y-108488094D01*
X55203390Y-107345237D02*
X55155771Y-107440475D01*
X55155771Y-107440475D02*
X55108152Y-107488094D01*
X55108152Y-107488094D02*
X55012914Y-107535713D01*
X55012914Y-107535713D02*
X54965295Y-107535713D01*
X54965295Y-107535713D02*
X54870057Y-107488094D01*
X54870057Y-107488094D02*
X54822438Y-107440475D01*
X54822438Y-107440475D02*
X54774819Y-107345237D01*
X54774819Y-107345237D02*
X54774819Y-107154761D01*
X54774819Y-107154761D02*
X54822438Y-107059523D01*
X54822438Y-107059523D02*
X54870057Y-107011904D01*
X54870057Y-107011904D02*
X54965295Y-106964285D01*
X54965295Y-106964285D02*
X55012914Y-106964285D01*
X55012914Y-106964285D02*
X55108152Y-107011904D01*
X55108152Y-107011904D02*
X55155771Y-107059523D01*
X55155771Y-107059523D02*
X55203390Y-107154761D01*
X55203390Y-107154761D02*
X55203390Y-107345237D01*
X55203390Y-107345237D02*
X55251009Y-107440475D01*
X55251009Y-107440475D02*
X55298628Y-107488094D01*
X55298628Y-107488094D02*
X55393866Y-107535713D01*
X55393866Y-107535713D02*
X55584342Y-107535713D01*
X55584342Y-107535713D02*
X55679580Y-107488094D01*
X55679580Y-107488094D02*
X55727200Y-107440475D01*
X55727200Y-107440475D02*
X55774819Y-107345237D01*
X55774819Y-107345237D02*
X55774819Y-107154761D01*
X55774819Y-107154761D02*
X55727200Y-107059523D01*
X55727200Y-107059523D02*
X55679580Y-107011904D01*
X55679580Y-107011904D02*
X55584342Y-106964285D01*
X55584342Y-106964285D02*
X55393866Y-106964285D01*
X55393866Y-106964285D02*
X55298628Y-107011904D01*
X55298628Y-107011904D02*
X55251009Y-107059523D01*
X55251009Y-107059523D02*
X55203390Y-107154761D01*
X95488905Y-113918819D02*
X95488905Y-112918819D01*
X95488905Y-112918819D02*
X95727000Y-112918819D01*
X95727000Y-112918819D02*
X95869857Y-112966438D01*
X95869857Y-112966438D02*
X95965095Y-113061676D01*
X95965095Y-113061676D02*
X96012714Y-113156914D01*
X96012714Y-113156914D02*
X96060333Y-113347390D01*
X96060333Y-113347390D02*
X96060333Y-113490247D01*
X96060333Y-113490247D02*
X96012714Y-113680723D01*
X96012714Y-113680723D02*
X95965095Y-113775961D01*
X95965095Y-113775961D02*
X95869857Y-113871200D01*
X95869857Y-113871200D02*
X95727000Y-113918819D01*
X95727000Y-113918819D02*
X95488905Y-113918819D01*
X96393667Y-112918819D02*
X97060333Y-112918819D01*
X97060333Y-112918819D02*
X96631762Y-113918819D01*
X133524666Y-126040819D02*
X133524666Y-126755104D01*
X133524666Y-126755104D02*
X133477047Y-126897961D01*
X133477047Y-126897961D02*
X133381809Y-126993200D01*
X133381809Y-126993200D02*
X133238952Y-127040819D01*
X133238952Y-127040819D02*
X133143714Y-127040819D01*
X133905619Y-126040819D02*
X134524666Y-126040819D01*
X134524666Y-126040819D02*
X134191333Y-126421771D01*
X134191333Y-126421771D02*
X134334190Y-126421771D01*
X134334190Y-126421771D02*
X134429428Y-126469390D01*
X134429428Y-126469390D02*
X134477047Y-126517009D01*
X134477047Y-126517009D02*
X134524666Y-126612247D01*
X134524666Y-126612247D02*
X134524666Y-126850342D01*
X134524666Y-126850342D02*
X134477047Y-126945580D01*
X134477047Y-126945580D02*
X134429428Y-126993200D01*
X134429428Y-126993200D02*
X134334190Y-127040819D01*
X134334190Y-127040819D02*
X134048476Y-127040819D01*
X134048476Y-127040819D02*
X133953238Y-126993200D01*
X133953238Y-126993200D02*
X133905619Y-126945580D01*
X62916667Y-102407200D02*
X63059524Y-102454819D01*
X63059524Y-102454819D02*
X63297619Y-102454819D01*
X63297619Y-102454819D02*
X63392857Y-102407200D01*
X63392857Y-102407200D02*
X63440476Y-102359580D01*
X63440476Y-102359580D02*
X63488095Y-102264342D01*
X63488095Y-102264342D02*
X63488095Y-102169104D01*
X63488095Y-102169104D02*
X63440476Y-102073866D01*
X63440476Y-102073866D02*
X63392857Y-102026247D01*
X63392857Y-102026247D02*
X63297619Y-101978628D01*
X63297619Y-101978628D02*
X63107143Y-101931009D01*
X63107143Y-101931009D02*
X63011905Y-101883390D01*
X63011905Y-101883390D02*
X62964286Y-101835771D01*
X62964286Y-101835771D02*
X62916667Y-101740533D01*
X62916667Y-101740533D02*
X62916667Y-101645295D01*
X62916667Y-101645295D02*
X62964286Y-101550057D01*
X62964286Y-101550057D02*
X63011905Y-101502438D01*
X63011905Y-101502438D02*
X63107143Y-101454819D01*
X63107143Y-101454819D02*
X63345238Y-101454819D01*
X63345238Y-101454819D02*
X63488095Y-101502438D01*
X63821429Y-101454819D02*
X64059524Y-102454819D01*
X64059524Y-102454819D02*
X64250000Y-101740533D01*
X64250000Y-101740533D02*
X64440476Y-102454819D01*
X64440476Y-102454819D02*
X64678572Y-101454819D01*
X64964286Y-101454819D02*
X65583333Y-101454819D01*
X65583333Y-101454819D02*
X65250000Y-101835771D01*
X65250000Y-101835771D02*
X65392857Y-101835771D01*
X65392857Y-101835771D02*
X65488095Y-101883390D01*
X65488095Y-101883390D02*
X65535714Y-101931009D01*
X65535714Y-101931009D02*
X65583333Y-102026247D01*
X65583333Y-102026247D02*
X65583333Y-102264342D01*
X65583333Y-102264342D02*
X65535714Y-102359580D01*
X65535714Y-102359580D02*
X65488095Y-102407200D01*
X65488095Y-102407200D02*
X65392857Y-102454819D01*
X65392857Y-102454819D02*
X65107143Y-102454819D01*
X65107143Y-102454819D02*
X65011905Y-102407200D01*
X65011905Y-102407200D02*
X64964286Y-102359580D01*
X105250095Y-98674819D02*
X105250095Y-99484342D01*
X105250095Y-99484342D02*
X105297714Y-99579580D01*
X105297714Y-99579580D02*
X105345333Y-99627200D01*
X105345333Y-99627200D02*
X105440571Y-99674819D01*
X105440571Y-99674819D02*
X105631047Y-99674819D01*
X105631047Y-99674819D02*
X105726285Y-99627200D01*
X105726285Y-99627200D02*
X105773904Y-99579580D01*
X105773904Y-99579580D02*
X105821523Y-99484342D01*
X105821523Y-99484342D02*
X105821523Y-98674819D01*
X106202476Y-98674819D02*
X106821523Y-98674819D01*
X106821523Y-98674819D02*
X106488190Y-99055771D01*
X106488190Y-99055771D02*
X106631047Y-99055771D01*
X106631047Y-99055771D02*
X106726285Y-99103390D01*
X106726285Y-99103390D02*
X106773904Y-99151009D01*
X106773904Y-99151009D02*
X106821523Y-99246247D01*
X106821523Y-99246247D02*
X106821523Y-99484342D01*
X106821523Y-99484342D02*
X106773904Y-99579580D01*
X106773904Y-99579580D02*
X106726285Y-99627200D01*
X106726285Y-99627200D02*
X106631047Y-99674819D01*
X106631047Y-99674819D02*
X106345333Y-99674819D01*
X106345333Y-99674819D02*
X106250095Y-99627200D01*
X106250095Y-99627200D02*
X106202476Y-99579580D01*
X104380050Y-99073819D02*
X104380050Y-99311914D01*
X104141955Y-99216676D02*
X104380050Y-99311914D01*
X104380050Y-99311914D02*
X104618145Y-99216676D01*
X104237193Y-99502390D02*
X104380050Y-99311914D01*
X104380050Y-99311914D02*
X104522907Y-99502390D01*
X104380050Y-99073819D02*
X104380050Y-99311914D01*
X104141955Y-99216676D02*
X104380050Y-99311914D01*
X104380050Y-99311914D02*
X104618145Y-99216676D01*
X104237193Y-99502390D02*
X104380050Y-99311914D01*
X104380050Y-99311914D02*
X104522907Y-99502390D01*
X96727415Y-124516819D02*
X96727415Y-125326342D01*
X96727415Y-125326342D02*
X96775034Y-125421580D01*
X96775034Y-125421580D02*
X96822653Y-125469200D01*
X96822653Y-125469200D02*
X96917891Y-125516819D01*
X96917891Y-125516819D02*
X97108367Y-125516819D01*
X97108367Y-125516819D02*
X97203605Y-125469200D01*
X97203605Y-125469200D02*
X97251224Y-125421580D01*
X97251224Y-125421580D02*
X97298843Y-125326342D01*
X97298843Y-125326342D02*
X97298843Y-124516819D01*
X98203605Y-124850152D02*
X98203605Y-125516819D01*
X97965510Y-124469200D02*
X97727415Y-125183485D01*
X97727415Y-125183485D02*
X98346462Y-125183485D01*
D15*
%TO.C,R11*%
X104862276Y-113703500D02*
X105371724Y-113703500D01*
X104862276Y-114748500D02*
X105371724Y-114748500D01*
%TO.C,J6*%
X61920000Y-96145000D02*
X63250000Y-96145000D01*
X61920000Y-97475000D02*
X61920000Y-96145000D01*
X64520000Y-96145000D02*
X67120000Y-96145000D01*
X64520000Y-98805000D02*
X64520000Y-96145000D01*
X64520000Y-98805000D02*
X67120000Y-98805000D01*
X67120000Y-98805000D02*
X67120000Y-96145000D01*
%TO.C,J2*%
X79110000Y-91990000D02*
X79510000Y-91990000D01*
X79510000Y-99510000D02*
X79110000Y-99510000D01*
X81480000Y-91990000D02*
X83460000Y-91990000D01*
X81480000Y-99510000D02*
X83460000Y-99510000D01*
X83460000Y-91990000D02*
X83460000Y-92410000D01*
X83460000Y-99510000D02*
X83460000Y-99090000D01*
X83690000Y-93990000D02*
X84140000Y-93990000D01*
X84140000Y-94440000D02*
X84140000Y-93990000D01*
%TO.C,C8*%
X121518267Y-133602000D02*
X121225733Y-133602000D01*
X121518267Y-134622000D02*
X121225733Y-134622000D01*
%TO.C,C6*%
X94304252Y-130313000D02*
X93781748Y-130313000D01*
X94304252Y-131783000D02*
X93781748Y-131783000D01*
%TO.C,C12*%
X71490000Y-106353733D02*
X71490000Y-106646267D01*
X72510000Y-106353733D02*
X72510000Y-106646267D01*
%TO.C,R2*%
X97852276Y-130525500D02*
X98361724Y-130525500D01*
X97852276Y-131570500D02*
X98361724Y-131570500D01*
%TO.C,U2*%
X97580000Y-71740000D02*
X97580000Y-77940000D01*
X97580000Y-71740000D02*
X115980000Y-71740000D01*
X97580000Y-96590000D02*
X97580000Y-97590000D01*
X97580000Y-97590000D02*
X99080000Y-97590000D01*
X115980000Y-71740000D02*
X115980000Y-77940000D01*
X115980000Y-97590000D02*
X114480000Y-97590000D01*
X115980000Y-97590000D02*
X115980000Y-96590000D01*
X97580000Y-78615000D02*
X97080000Y-78615000D01*
X97580000Y-78115000D01*
X97580000Y-78615000D01*
G36*
X97580000Y-78615000D02*
G01*
X97080000Y-78615000D01*
X97580000Y-78115000D01*
X97580000Y-78615000D01*
G37*
%TO.C,U6*%
X90069000Y-111767500D02*
X90794000Y-111767500D01*
X90069000Y-112492500D02*
X90069000Y-111767500D01*
X90069000Y-115987500D02*
X90069000Y-115262500D01*
X90794000Y-115987500D02*
X90069000Y-115987500D01*
X93564000Y-111767500D02*
X94289000Y-111767500D01*
X94289000Y-111767500D02*
X94289000Y-112492500D01*
X94289000Y-115262500D02*
X94289000Y-115987500D01*
X94289000Y-115987500D02*
X93564000Y-115987500D01*
X91419000Y-116817500D02*
X90939000Y-116817500D01*
X91179000Y-116487500D01*
X91419000Y-116817500D01*
G36*
X91419000Y-116817500D02*
G01*
X90939000Y-116817500D01*
X91179000Y-116487500D01*
X91419000Y-116817500D01*
G37*
%TO.C,R9*%
X104862276Y-115481500D02*
X105371724Y-115481500D01*
X104862276Y-116526500D02*
X105371724Y-116526500D01*
%TO.C,D5*%
X97415000Y-114790000D02*
X97415000Y-116710000D01*
X97415000Y-116710000D02*
X100275000Y-116710000D01*
X100275000Y-114790000D02*
X97415000Y-114790000D01*
%TO.C,TP3*%
X124257459Y-92000000D02*
G75*
G02*
X120757459Y-92000000I-1750000J0D01*
G01*
X120757459Y-92000000D02*
G75*
G02*
X124257459Y-92000000I1750000J0D01*
G01*
%TO.C,C7*%
X102024733Y-130538000D02*
X102317267Y-130538000D01*
X102024733Y-131558000D02*
X102317267Y-131558000D01*
%TO.C,D3*%
X107106000Y-104704000D02*
X107106000Y-106624000D01*
X107106000Y-106624000D02*
X109966000Y-106624000D01*
X109966000Y-104704000D02*
X107106000Y-104704000D01*
%TO.C,TP1*%
X124257459Y-86750000D02*
G75*
G02*
X120757459Y-86750000I-1750000J0D01*
G01*
X120757459Y-86750000D02*
G75*
G02*
X124257459Y-86750000I1750000J0D01*
G01*
%TO.C,C10*%
X102706000Y-127484748D02*
X102706000Y-128007252D01*
X104176000Y-127484748D02*
X104176000Y-128007252D01*
%TO.C,C3*%
X91458000Y-81396267D02*
X91458000Y-81103733D01*
X92478000Y-81396267D02*
X92478000Y-81103733D01*
%TO.C,C13*%
X90412000Y-118790748D02*
X90412000Y-119313252D01*
X91882000Y-118790748D02*
X91882000Y-119313252D01*
%TO.C,C1*%
X93265000Y-81511252D02*
X93265000Y-80988748D01*
X94735000Y-81511252D02*
X94735000Y-80988748D01*
%TO.C,D6*%
X97415000Y-110218000D02*
X97415000Y-112138000D01*
X97415000Y-112138000D02*
X100275000Y-112138000D01*
X100275000Y-110218000D02*
X97415000Y-110218000D01*
%TO.C,L1*%
X92425000Y-127484748D02*
X92425000Y-128007252D01*
X94645000Y-127484748D02*
X94645000Y-128007252D01*
%TO.C,C5*%
X108964000Y-101861233D02*
X108964000Y-102153767D01*
X109984000Y-101861233D02*
X109984000Y-102153767D01*
%TO.C,SW1*%
X118002000Y-125766000D02*
X118002000Y-130266000D01*
X120502000Y-131516000D02*
X122002000Y-131516000D01*
X122002000Y-124516000D02*
X120502000Y-124516000D01*
X124502000Y-130266000D02*
X124502000Y-125766000D01*
%TO.C,J1*%
X81634000Y-116622000D02*
X81634000Y-115242000D01*
X83014000Y-116622000D02*
X81634000Y-116622000D01*
X84284000Y-113862000D02*
X86934000Y-113862000D01*
X84284000Y-116622000D02*
X84284000Y-113862000D01*
X84284000Y-116622000D02*
X86934000Y-116622000D01*
X86934000Y-116622000D02*
X86934000Y-113862000D01*
%TO.C,U1*%
X117130000Y-101286000D02*
X117130000Y-121726000D01*
X117130000Y-121726000D02*
X121630000Y-121726000D01*
X118380000Y-101286000D02*
X117130000Y-101286000D01*
X121630000Y-101286000D02*
X120380000Y-101286000D01*
X121630000Y-121726000D02*
X121630000Y-101286000D01*
X120380000Y-101286000D02*
G75*
G02*
X118380000Y-101286000I-1000000J0D01*
G01*
%TO.C,R1*%
X91157776Y-83775500D02*
X91667224Y-83775500D01*
X91157776Y-84820500D02*
X91667224Y-84820500D01*
%TO.C,C11*%
X100420000Y-127484748D02*
X100420000Y-128007252D01*
X101890000Y-127484748D02*
X101890000Y-128007252D01*
%TO.C,R10*%
X104862276Y-111925500D02*
X105371724Y-111925500D01*
X104862276Y-112970500D02*
X105371724Y-112970500D01*
%TO.C,R_Prog3*%
X92656500Y-108891276D02*
X92656500Y-109400724D01*
X93701500Y-108891276D02*
X93701500Y-109400724D01*
%TO.C,C14*%
X88097000Y-118651733D02*
X88097000Y-118944267D01*
X89117000Y-118651733D02*
X89117000Y-118944267D01*
%TO.C,C2*%
X91646267Y-87240000D02*
X91353733Y-87240000D01*
X91646267Y-88260000D02*
X91353733Y-88260000D01*
%TO.C,R4*%
X91157776Y-85553500D02*
X91667224Y-85553500D01*
X91157776Y-86598500D02*
X91667224Y-86598500D01*
%TO.C,C4*%
X101852000Y-101961733D02*
X101852000Y-102254267D01*
X102872000Y-101961733D02*
X102872000Y-102254267D01*
%TO.C,SW2*%
X108002000Y-125766000D02*
X108002000Y-130266000D01*
X110502000Y-131516000D02*
X112002000Y-131516000D01*
X112002000Y-124516000D02*
X110502000Y-124516000D01*
X114502000Y-130266000D02*
X114502000Y-125766000D01*
%TO.C,R6*%
X104647276Y-105141500D02*
X105156724Y-105141500D01*
X104647276Y-106186500D02*
X105156724Y-106186500D01*
%TO.C,R_TH1*%
X93418500Y-119052724D02*
X93418500Y-118543276D01*
X94463500Y-119052724D02*
X94463500Y-118543276D01*
%TO.C,J5*%
X132274000Y-89154000D02*
X132274000Y-106994000D01*
X132274000Y-89154000D02*
X134934000Y-89154000D01*
X132274000Y-106994000D02*
X134934000Y-106994000D01*
X133604000Y-86554000D02*
X134934000Y-86554000D01*
X134934000Y-86554000D02*
X134934000Y-87884000D01*
X134934000Y-89154000D02*
X134934000Y-106994000D01*
%TO.C,R_Prog1*%
X90878500Y-108891276D02*
X90878500Y-109400724D01*
X91923500Y-108891276D02*
X91923500Y-109400724D01*
%TO.C,C9*%
X111398267Y-133602000D02*
X111105733Y-133602000D01*
X111398267Y-134622000D02*
X111105733Y-134622000D01*
%TO.C,R8*%
X56227500Y-108004724D02*
X56227500Y-107495276D01*
X57272500Y-108004724D02*
X57272500Y-107495276D01*
%TO.C,TP2*%
X124257459Y-81750000D02*
G75*
G02*
X120757459Y-81750000I-1750000J0D01*
G01*
X120757459Y-81750000D02*
G75*
G02*
X124257459Y-81750000I1750000J0D01*
G01*
%TO.C,D7*%
X97415000Y-112504000D02*
X97415000Y-114424000D01*
X97415000Y-114424000D02*
X100275000Y-114424000D01*
X100275000Y-112504000D02*
X97415000Y-112504000D01*
%TO.C,J3*%
X132478000Y-122936000D02*
X132478000Y-112666000D01*
X135238000Y-112666000D02*
X132478000Y-112666000D01*
X135238000Y-122936000D02*
X132478000Y-122936000D01*
X135238000Y-122936000D02*
X135238000Y-112666000D01*
X135238000Y-124206000D02*
X135238000Y-125586000D01*
X135238000Y-125586000D02*
X133858000Y-125586000D01*
%TO.C,TP4*%
X124257459Y-97500000D02*
G75*
G02*
X120757459Y-97500000I-1750000J0D01*
G01*
X120757459Y-97500000D02*
G75*
G02*
X124257459Y-97500000I1750000J0D01*
G01*
%TO.C,SW3*%
X60750000Y-105500000D02*
X60750000Y-107000000D01*
X62000000Y-109500000D02*
X66500000Y-109500000D01*
X66500000Y-103000000D02*
X62000000Y-103000000D01*
X67750000Y-107000000D02*
X67750000Y-105500000D01*
D16*
%TO.C,U3*%
X105008700Y-103871000D02*
X107015300Y-103871000D01*
X107015300Y-100569000D02*
X105008700Y-100569000D01*
X107015300Y-102583261D02*
X107015300Y-101856739D01*
D15*
%TO.C,U4*%
X95859000Y-129142000D02*
X95859000Y-129372000D01*
X95859000Y-129372000D02*
X96834000Y-129372000D01*
X96149000Y-126152000D02*
X96834000Y-126152000D01*
X98104000Y-126152000D02*
X99079000Y-126152000D01*
X98104000Y-129372000D02*
X99079000Y-129372000D01*
X99079000Y-126152000D02*
X99079000Y-126382000D01*
X99079000Y-129142000D02*
X99079000Y-129372000D01*
X95829000Y-126152000D02*
X95549000Y-126152000D01*
X95829000Y-125872000D01*
X95829000Y-126152000D01*
G36*
X95829000Y-126152000D02*
G01*
X95549000Y-126152000D01*
X95829000Y-125872000D01*
X95829000Y-126152000D01*
G37*
%TD*%
M02*
