%TF.GenerationSoftware,KiCad,Pcbnew,9.0.7*%
%TF.CreationDate,2026-04-23T16:24:15-04:00*%
%TF.ProjectId,RFID_bikelock,52464944-5f62-4696-9b65-6c6f636b2e6b,rev?*%
%TF.SameCoordinates,Original*%
%TF.FileFunction,Paste,Top*%
%TF.FilePolarity,Positive*%
%FSLAX46Y46*%
G04 Gerber Fmt 4.6, Leading zero omitted, Abs format (unit mm)*
G04 Created by KiCad (PCBNEW 9.0.7) date 2026-04-23 16:24:15*
%MOMM*%
%LPD*%
G01*
G04 APERTURE LIST*
G04 Aperture macros list*
%AMRoundRect*
0 Rectangle with rounded corners*
0 $1 Rounding radius*
0 $2 $3 $4 $5 $6 $7 $8 $9 X,Y pos of 4 corners*
0 Add a 4 corners polygon primitive as box body*
4,1,4,$2,$3,$4,$5,$6,$7,$8,$9,$2,$3,0*
0 Add four circle primitives for the rounded corners*
1,1,$1+$1,$2,$3*
1,1,$1+$1,$4,$5*
1,1,$1+$1,$6,$7*
1,1,$1+$1,$8,$9*
0 Add four rect primitives between the rounded corners*
20,1,$1+$1,$2,$3,$4,$5,0*
20,1,$1+$1,$4,$5,$6,$7,0*
20,1,$1+$1,$6,$7,$8,$9,0*
20,1,$1+$1,$8,$9,$2,$3,0*%
G04 Aperture macros list end*
%ADD10RoundRect,0.237500X-0.250000X-0.237500X0.250000X-0.237500X0.250000X0.237500X-0.250000X0.237500X0*%
%ADD11O,1.550000X0.890000*%
%ADD12O,0.950000X1.250000*%
%ADD13RoundRect,0.100000X-0.575000X0.100000X-0.575000X-0.100000X0.575000X-0.100000X0.575000X0.100000X0*%
%ADD14RoundRect,0.250000X-0.525000X0.475000X-0.525000X-0.475000X0.525000X-0.475000X0.525000X0.475000X0*%
%ADD15RoundRect,0.250000X-0.525000X0.500000X-0.525000X-0.500000X0.525000X-0.500000X0.525000X0.500000X0*%
%ADD16RoundRect,0.237500X0.300000X0.237500X-0.300000X0.237500X-0.300000X-0.237500X0.300000X-0.237500X0*%
%ADD17RoundRect,0.250000X0.337500X0.475000X-0.337500X0.475000X-0.337500X-0.475000X0.337500X-0.475000X0*%
%ADD18RoundRect,0.237500X-0.237500X0.300000X-0.237500X-0.300000X0.237500X-0.300000X0.237500X0.300000X0*%
%ADD19R,0.900000X0.900000*%
%ADD20R,1.500000X0.900000*%
%ADD21R,0.900000X1.500000*%
%ADD22RoundRect,0.250000X0.255000X-0.255000X0.255000X0.255000X-0.255000X0.255000X-0.255000X-0.255000X0*%
%ADD23RoundRect,0.062500X0.062500X-0.350000X0.062500X0.350000X-0.062500X0.350000X-0.062500X-0.350000X0*%
%ADD24RoundRect,0.062500X0.350000X-0.062500X0.350000X0.062500X-0.350000X0.062500X-0.350000X-0.062500X0*%
%ADD25RoundRect,0.250000X-0.325000X-0.450000X0.325000X-0.450000X0.325000X0.450000X-0.325000X0.450000X0*%
%ADD26RoundRect,0.237500X-0.300000X-0.237500X0.300000X-0.237500X0.300000X0.237500X-0.300000X0.237500X0*%
%ADD27RoundRect,0.250000X-0.475000X0.337500X-0.475000X-0.337500X0.475000X-0.337500X0.475000X0.337500X0*%
%ADD28RoundRect,0.237500X0.237500X-0.300000X0.237500X0.300000X-0.237500X0.300000X-0.237500X-0.300000X0*%
%ADD29RoundRect,0.250000X0.475000X-0.337500X0.475000X0.337500X-0.475000X0.337500X-0.475000X-0.337500X0*%
%ADD30RoundRect,0.250000X-0.850000X0.375000X-0.850000X-0.375000X0.850000X-0.375000X0.850000X0.375000X0*%
%ADD31RoundRect,0.237500X-0.237500X0.250000X-0.237500X-0.250000X0.237500X-0.250000X0.237500X0.250000X0*%
%ADD32RoundRect,0.237500X0.237500X-0.250000X0.237500X0.250000X-0.237500X0.250000X-0.237500X-0.250000X0*%
%ADD33R,1.003300X0.508000*%
%ADD34RoundRect,0.025000X-0.100000X-0.145000X0.100000X-0.145000X0.100000X0.145000X-0.100000X0.145000X0*%
%ADD35RoundRect,0.106000X-0.644000X-0.424000X0.644000X-0.424000X0.644000X0.424000X-0.644000X0.424000X0*%
%ADD36RoundRect,0.060000X-0.240000X-0.060000X0.240000X-0.060000X0.240000X0.060000X-0.240000X0.060000X0*%
G04 APERTURE END LIST*
D10*
%TO.C,R11*%
X104204500Y-114226000D03*
X106029500Y-114226000D03*
%TD*%
D11*
%TO.C,J2*%
X80500000Y-92250000D03*
D12*
X83200000Y-93250000D03*
X83200000Y-98250000D03*
D11*
X80500000Y-99250000D03*
D13*
X83200000Y-94450000D03*
X83200000Y-95100000D03*
X83200000Y-95750000D03*
X83200000Y-96400000D03*
X83200000Y-97050000D03*
D14*
X80500000Y-92725000D03*
D15*
X80500000Y-94750000D03*
X80500000Y-96750000D03*
D14*
X80500000Y-98775000D03*
%TD*%
D16*
%TO.C,C8*%
X122234500Y-134112000D03*
X120509500Y-134112000D03*
%TD*%
D17*
%TO.C,C6*%
X95080500Y-131048000D03*
X93005500Y-131048000D03*
%TD*%
D18*
%TO.C,C12*%
X72000000Y-105637500D03*
X72000000Y-107362500D03*
%TD*%
D10*
%TO.C,R2*%
X97194500Y-131048000D03*
X99019500Y-131048000D03*
%TD*%
D19*
%TO.C,U2*%
X103880000Y-85700000D03*
X103880000Y-87100000D03*
X103880000Y-88500000D03*
X105280000Y-85700000D03*
X105280000Y-87100000D03*
X105280000Y-88500000D03*
X106680000Y-85700000D03*
X106680000Y-87100000D03*
X106680000Y-88500000D03*
D20*
X98030000Y-79380000D03*
X98030000Y-80650000D03*
X98030000Y-81920000D03*
X98030000Y-83190000D03*
X98030000Y-84460000D03*
X98030000Y-85730000D03*
X98030000Y-87000000D03*
X98030000Y-88270000D03*
X98030000Y-89540000D03*
X98030000Y-90810000D03*
X98030000Y-92080000D03*
X98030000Y-93350000D03*
X98030000Y-94620000D03*
X98030000Y-95890000D03*
D21*
X99795000Y-97140000D03*
X101065000Y-97140000D03*
X102335000Y-97140000D03*
X103605000Y-97140000D03*
X104875000Y-97140000D03*
X106145000Y-97140000D03*
X107415000Y-97140000D03*
X108685000Y-97140000D03*
X109955000Y-97140000D03*
X111225000Y-97140000D03*
X112495000Y-97140000D03*
X113765000Y-97140000D03*
D20*
X115530000Y-95890000D03*
X115530000Y-94620000D03*
X115530000Y-93350000D03*
X115530000Y-92080000D03*
X115530000Y-90810000D03*
X115530000Y-89540000D03*
X115530000Y-88270000D03*
X115530000Y-87000000D03*
X115530000Y-85730000D03*
X115530000Y-84460000D03*
X115530000Y-83190000D03*
X115530000Y-81920000D03*
X115530000Y-80650000D03*
X115530000Y-79380000D03*
%TD*%
D22*
%TO.C,U6*%
X91554000Y-114502500D03*
X92804000Y-114502500D03*
X91554000Y-113252500D03*
X92804000Y-113252500D03*
D23*
X91179000Y-115815000D03*
X91679000Y-115815000D03*
X92179000Y-115815000D03*
X92679000Y-115815000D03*
X93179000Y-115815000D03*
D24*
X94116500Y-114877500D03*
X94116500Y-114377500D03*
X94116500Y-113877500D03*
X94116500Y-113377500D03*
X94116500Y-112877500D03*
D23*
X93179000Y-111940000D03*
X92679000Y-111940000D03*
X92179000Y-111940000D03*
X91679000Y-111940000D03*
X91179000Y-111940000D03*
D24*
X90241500Y-112877500D03*
X90241500Y-113377500D03*
X90241500Y-113877500D03*
X90241500Y-114377500D03*
X90241500Y-114877500D03*
%TD*%
D10*
%TO.C,R9*%
X104204500Y-116004000D03*
X106029500Y-116004000D03*
%TD*%
D25*
%TO.C,D5*%
X98250000Y-115750000D03*
X100300000Y-115750000D03*
%TD*%
D26*
%TO.C,C7*%
X101308500Y-131048000D03*
X103033500Y-131048000D03*
%TD*%
D25*
%TO.C,D3*%
X107941000Y-105664000D03*
X109991000Y-105664000D03*
%TD*%
D27*
%TO.C,C10*%
X103441000Y-126708500D03*
X103441000Y-128783500D03*
%TD*%
D28*
%TO.C,C3*%
X91968000Y-82112500D03*
X91968000Y-80387500D03*
%TD*%
D27*
%TO.C,C13*%
X91147000Y-118014500D03*
X91147000Y-120089500D03*
%TD*%
D29*
%TO.C,C1*%
X94000000Y-82287500D03*
X94000000Y-80212500D03*
%TD*%
D25*
%TO.C,D6*%
X98250000Y-111178000D03*
X100300000Y-111178000D03*
%TD*%
D30*
%TO.C,L1*%
X93535000Y-126671000D03*
X93535000Y-128821000D03*
%TD*%
D18*
%TO.C,C5*%
X109474000Y-101145000D03*
X109474000Y-102870000D03*
%TD*%
D10*
%TO.C,R1*%
X90500000Y-84298000D03*
X92325000Y-84298000D03*
%TD*%
D27*
%TO.C,C11*%
X101155000Y-126708500D03*
X101155000Y-128783500D03*
%TD*%
D10*
%TO.C,R10*%
X104204500Y-112448000D03*
X106029500Y-112448000D03*
%TD*%
D31*
%TO.C,R_Prog3*%
X93179000Y-108233500D03*
X93179000Y-110058500D03*
%TD*%
D18*
%TO.C,C14*%
X88607000Y-117935500D03*
X88607000Y-119660500D03*
%TD*%
D16*
%TO.C,C2*%
X92362500Y-87750000D03*
X90637500Y-87750000D03*
%TD*%
D10*
%TO.C,R4*%
X90500000Y-86076000D03*
X92325000Y-86076000D03*
%TD*%
D18*
%TO.C,C4*%
X102362000Y-101245500D03*
X102362000Y-102970500D03*
%TD*%
D10*
%TO.C,R6*%
X103989500Y-105664000D03*
X105814500Y-105664000D03*
%TD*%
D32*
%TO.C,R_TH1*%
X93941000Y-119710500D03*
X93941000Y-117885500D03*
%TD*%
D31*
%TO.C,R_Prog1*%
X91401000Y-108233500D03*
X91401000Y-110058500D03*
%TD*%
D16*
%TO.C,C9*%
X112114500Y-134112000D03*
X110389500Y-134112000D03*
%TD*%
D32*
%TO.C,R8*%
X56750000Y-108662500D03*
X56750000Y-106837500D03*
%TD*%
D25*
%TO.C,D7*%
X98250000Y-113464000D03*
X100300000Y-113464000D03*
%TD*%
D33*
%TO.C,U3*%
X104634050Y-101269999D03*
X104634050Y-102220000D03*
X104634050Y-103170001D03*
X107389950Y-103170001D03*
X107389950Y-101269999D03*
%TD*%
D34*
%TO.C,U4*%
X97219000Y-126232000D03*
X97219000Y-129292000D03*
D35*
X97469000Y-127132000D03*
X97469000Y-128392000D03*
D34*
X97719000Y-126232000D03*
X97719000Y-129292000D03*
D36*
X96069000Y-126762000D03*
X96069000Y-127262000D03*
X96069000Y-127762000D03*
X96069000Y-128262000D03*
X96069000Y-128762000D03*
X98869000Y-128762000D03*
X98869000Y-128262000D03*
X98869000Y-127762000D03*
X98869000Y-127262000D03*
X98869000Y-126762000D03*
%TD*%
M02*
