M48
; DRILL file {KiCad 9.0.7} date 2026-04-23T16:24:26-0400
; FORMAT={-:-/ absolute / metric / decimal}
; #@! TF.CreationDate,2026-04-23T16:24:26-04:00
; #@! TF.GenerationSoftware,Kicad,Pcbnew,9.0.7
; #@! TF.FileFunction,Plated,1,2,PTH
FMAT,2
METRIC
; #@! TA.AperFunction,Plated,PTH,ComponentDrill
T1C0.200
; #@! TA.AperFunction,Plated,PTH,ViaDrill
T2C0.300
; #@! TA.AperFunction,Plated,PTH,ComponentDrill
T3C0.500
; #@! TA.AperFunction,Plated,PTH,ComponentDrill
T4C0.550
; #@! TA.AperFunction,Plated,PTH,ComponentDrill
T5C0.800
; #@! TA.AperFunction,Plated,PTH,ComponentDrill
T6C1.000
; #@! TA.AperFunction,Plated,PTH,ComponentDrill
T7C1.100
; #@! TA.AperFunction,Plated,PTH,ComponentDrill
T8C3.200
%
G90
G05
T1
X96.894Y-127.762
X97.469Y-126.812
X97.469Y-128.712
X98.044Y-127.762
X103.88Y-86.4
X103.88Y-87.8
X104.58Y-85.7
X104.58Y-87.1
X104.58Y-88.5
X105.28Y-86.4
X105.28Y-87.8
X105.98Y-85.7
X105.98Y-87.1
X105.98Y-88.5
X106.68Y-86.4
X106.68Y-87.8
T2
X80.75Y-115.25
X81.75Y-94.75
X81.75Y-96.75
X85.0Y-97.25
X86.0Y-93.75
X87.0Y-86.25
X87.5Y-120.0
X89.25Y-114.5
X90.25Y-108.25
X90.5Y-89.0
X90.75Y-80.0
X91.25Y-116.75
X92.179Y-113.877
X92.185Y-115.103
X92.5Y-102.25
X92.5Y-120.25
X93.0Y-132.75
X94.0Y-111.25
X94.25Y-108.25
X94.75Y-112.25
X95.0Y-112.75
X95.0Y-120.0
X95.198Y-127.552
X95.25Y-79.25
X96.5Y-79.25
X96.75Y-85.75
X98.5Y-130.0
X99.25Y-87.25
X99.25Y-88.25
X99.5Y-83.25
X99.85Y-127.362
X100.75Y-89.75
X100.75Y-90.75
X100.75Y-92.25
X101.0Y-129.75
X101.25Y-84.0
X102.0Y-104.0
X103.0Y-132.0
X103.25Y-129.75
X103.5Y-102.25
X103.75Y-104.75
X108.75Y-95.5
X109.25Y-104.0
X109.5Y-123.5
X110.0Y-95.5
X112.75Y-100.75
X113.25Y-123.0
X113.25Y-134.5
X113.75Y-102.75
X113.75Y-120.5
X114.0Y-105.25
X114.0Y-107.75
X114.25Y-133.0
X114.856Y-99.651
X116.75Y-89.75
X116.75Y-95.25
X116.762Y-91.497
X117.25Y-79.0
X120.0Y-80.5
X123.5Y-134.5
X124.5Y-133.0
X125.5Y-123.25
X129.5Y-104.25
X132.0Y-105.75
X132.25Y-93.0
X132.25Y-95.5
X132.25Y-98.0
X132.25Y-100.5
T5
X115.57Y-102.616
X115.57Y-105.156
X115.57Y-107.696
X115.57Y-110.236
X115.57Y-112.776
X115.57Y-115.316
X115.57Y-117.856
X115.57Y-120.396
X123.19Y-102.616
X123.19Y-105.156
X123.19Y-107.696
X123.19Y-110.236
X123.19Y-112.776
X123.19Y-115.316
X123.19Y-117.856
X123.19Y-120.396
T6
X63.25Y-97.475
X65.79Y-97.475
X83.014Y-115.242
X85.554Y-115.242
X133.604Y-87.884
X133.604Y-90.424
X133.604Y-92.964
X133.604Y-95.504
X133.604Y-98.044
X133.604Y-100.584
X133.604Y-103.124
X133.604Y-105.664
X133.858Y-114.046
X133.858Y-116.586
X133.858Y-119.126
X133.858Y-121.666
X133.858Y-124.206
T7
X61.0Y-104.0
X61.0Y-108.5
X67.5Y-104.0
X67.5Y-108.5
X109.002Y-124.766
X109.002Y-131.266
X113.502Y-124.766
X113.502Y-131.266
X119.002Y-124.766
X119.002Y-131.266
X123.502Y-124.766
X123.502Y-131.266
T8
X82.75Y-81.75
X82.75Y-133.25
X132.25Y-81.75
X132.25Y-133.25
T3
G00X80.825Y-92.25
M15
G01X80.175Y-92.25
M16
G05
G00X80.825Y-99.25
M15
G01X80.175Y-99.25
M16
G05
T4
G00X83.2Y-93.1
M15
G01X83.2Y-93.4
M16
G05
G00X83.2Y-98.1
M15
G01X83.2Y-98.4
M16
G05
M30
