%TF.GenerationSoftware,KiCad,Pcbnew,9.0.7*%
%TF.CreationDate,2026-04-23T16:24:15-04:00*%
%TF.ProjectId,RFID_bikelock,52464944-5f62-4696-9b65-6c6f636b2e6b,rev?*%
%TF.SameCoordinates,Original*%
%TF.FileFunction,Copper,L2,Bot*%
%TF.FilePolarity,Positive*%
%FSLAX46Y46*%
G04 Gerber Fmt 4.6, Leading zero omitted, Abs format (unit mm)*
G04 Created by KiCad (PCBNEW 9.0.7) date 2026-04-23 16:24:15*
%MOMM*%
%LPD*%
G01*
G04 APERTURE LIST*
G04 Aperture macros list*
%AMRoundRect*
0 Rectangle with rounded corners*
0 $1 Rounding radius*
0 $2 $3 $4 $5 $6 $7 $8 $9 X,Y pos of 4 corners*
0 Add a 4 corners polygon primitive as box body*
4,1,4,$2,$3,$4,$5,$6,$7,$8,$9,$2,$3,0*
0 Add four circle primitives for the rounded corners*
1,1,$1+$1,$2,$3*
1,1,$1+$1,$4,$5*
1,1,$1+$1,$6,$7*
1,1,$1+$1,$8,$9*
0 Add four rect primitives between the rounded corners*
20,1,$1+$1,$2,$3,$4,$5,0*
20,1,$1+$1,$4,$5,$6,$7,0*
20,1,$1+$1,$6,$7,$8,$9,0*
20,1,$1+$1,$8,$9,$2,$3,0*%
G04 Aperture macros list end*
%TA.AperFunction,ComponentPad*%
%ADD10R,1.700000X1.700000*%
%TD*%
%TA.AperFunction,ComponentPad*%
%ADD11C,1.700000*%
%TD*%
%TA.AperFunction,HeatsinkPad*%
%ADD12O,1.550000X0.890000*%
%TD*%
%TA.AperFunction,HeatsinkPad*%
%ADD13O,0.950000X1.250000*%
%TD*%
%TA.AperFunction,HeatsinkPad*%
%ADD14C,0.600000*%
%TD*%
%TA.AperFunction,ComponentPad*%
%ADD15C,2.000000*%
%TD*%
%TA.AperFunction,ComponentPad*%
%ADD16RoundRect,0.250000X-0.950000X-0.550000X0.950000X-0.550000X0.950000X0.550000X-0.950000X0.550000X0*%
%TD*%
%TA.AperFunction,ComponentPad*%
%ADD17O,2.400000X1.600000*%
%TD*%
%TA.AperFunction,ComponentPad*%
%ADD18C,6.400000*%
%TD*%
%TA.AperFunction,ComponentPad*%
%ADD19C,0.500000*%
%TD*%
%TA.AperFunction,ViaPad*%
%ADD20C,0.600000*%
%TD*%
%TA.AperFunction,Conductor*%
%ADD21C,0.200000*%
%TD*%
G04 APERTURE END LIST*
D10*
%TO.P,J6,1,Pin_1*%
%TO.N,Net-(J6-Pin_1)*%
X63250000Y-97475000D03*
D11*
%TO.P,J6,2,Pin_2*%
%TO.N,Net-(J6-Pin_2)*%
X65790000Y-97475000D03*
%TD*%
D12*
%TO.P,J2,6,Shield*%
%TO.N,GND*%
X80500000Y-92250000D03*
D13*
X83200000Y-93250000D03*
X83200000Y-98250000D03*
D12*
X80500000Y-99250000D03*
%TD*%
D14*
%TO.P,U2,41,GND*%
%TO.N,GND*%
X103880000Y-86400000D03*
X103880000Y-87800000D03*
X104580000Y-85700000D03*
X104580000Y-87100000D03*
X104580000Y-88500000D03*
X105280000Y-86400000D03*
X105280000Y-87800000D03*
X105980000Y-85700000D03*
X105980000Y-87100000D03*
X105980000Y-88500000D03*
X106680000Y-86400000D03*
X106680000Y-87800000D03*
%TD*%
D15*
%TO.P,SW1,1,1*%
%TO.N,GND*%
X123502000Y-124766000D03*
X123502000Y-131266000D03*
%TO.P,SW1,2,2*%
%TO.N,Net-(C8-Pad2)*%
X119002000Y-124766000D03*
X119002000Y-131266000D03*
%TD*%
D10*
%TO.P,J1,1,Pin_1*%
%TO.N,GND*%
X83014000Y-115242000D03*
D11*
%TO.P,J1,2,Pin_2*%
%TO.N,Net-(J1-Pin_2)*%
X85554000Y-115242000D03*
%TD*%
D16*
%TO.P,U1,1,I1*%
%TO.N,/STEP1*%
X115570000Y-102616000D03*
D17*
%TO.P,U1,2,I2*%
%TO.N,/STEP2*%
X115570000Y-105156000D03*
%TO.P,U1,3,I3*%
%TO.N,/STEP3*%
X115570000Y-107696000D03*
%TO.P,U1,4,I4*%
%TO.N,/STEP4*%
X115570000Y-110236000D03*
%TO.P,U1,5,I5*%
%TO.N,unconnected-(U1-I5-Pad5)*%
X115570000Y-112776000D03*
%TO.P,U1,6,I6*%
%TO.N,unconnected-(U1-I6-Pad6)*%
X115570000Y-115316000D03*
%TO.P,U1,7,I7*%
%TO.N,unconnected-(U1-I7-Pad7)*%
X115570000Y-117856000D03*
%TO.P,U1,8,GND*%
%TO.N,GND*%
X115570000Y-120396000D03*
%TO.P,U1,9,COM*%
%TO.N,+5V*%
X123190000Y-120396000D03*
%TO.P,U1,10,O7*%
%TO.N,unconnected-(U1-O7-Pad10)*%
X123190000Y-117856000D03*
%TO.P,U1,11,O6*%
%TO.N,unconnected-(U1-O6-Pad11)*%
X123190000Y-115316000D03*
%TO.P,U1,12,O5*%
%TO.N,unconnected-(U1-O5-Pad12)*%
X123190000Y-112776000D03*
%TO.P,U1,13,O4*%
%TO.N,Net-(J3-Pin_2)*%
X123190000Y-110236000D03*
%TO.P,U1,14,O3*%
%TO.N,Net-(J3-Pin_3)*%
X123190000Y-107696000D03*
%TO.P,U1,15,O2*%
%TO.N,Net-(J3-Pin_4)*%
X123190000Y-105156000D03*
%TO.P,U1,16,O1*%
%TO.N,Net-(J3-Pin_5)*%
X123190000Y-102616000D03*
%TD*%
D18*
%TO.P,H2,1,1*%
%TO.N,GND*%
X132250000Y-133250000D03*
%TD*%
D15*
%TO.P,SW2,1,1*%
%TO.N,GND*%
X113502000Y-124766000D03*
X113502000Y-131266000D03*
%TO.P,SW2,2,2*%
%TO.N,/BOOT*%
X109002000Y-124766000D03*
X109002000Y-131266000D03*
%TD*%
D10*
%TO.P,J5,1,Pin_1*%
%TO.N,+3V3*%
X133604000Y-87884000D03*
D11*
%TO.P,J5,2,Pin_2*%
%TO.N,GND*%
X133604000Y-90424000D03*
%TO.P,J5,3,Pin_3*%
%TO.N,/IO4*%
X133604000Y-92964000D03*
%TO.P,J5,4,Pin_4*%
%TO.N,/IO5*%
X133604000Y-95504000D03*
%TO.P,J5,5,Pin_5*%
%TO.N,/IO6*%
X133604000Y-98044000D03*
%TO.P,J5,6,Pin_6*%
%TO.N,/IO7*%
X133604000Y-100584000D03*
%TO.P,J5,7,Pin_7*%
%TO.N,/IO38*%
X133604000Y-103124000D03*
%TO.P,J5,8,Pin_8*%
%TO.N,/IO39*%
X133604000Y-105664000D03*
%TD*%
D18*
%TO.P,H4,1,1*%
%TO.N,GND*%
X82750000Y-133250000D03*
%TD*%
%TO.P,H3,1,1*%
%TO.N,GND*%
X132250000Y-81750000D03*
%TD*%
%TO.P,H1,1,1*%
%TO.N,GND*%
X82750000Y-81750000D03*
%TD*%
D10*
%TO.P,J3,1,Pin_1*%
%TO.N,+5V*%
X133858000Y-124206000D03*
D11*
%TO.P,J3,2,Pin_2*%
%TO.N,Net-(J3-Pin_2)*%
X133858000Y-121666000D03*
%TO.P,J3,3,Pin_3*%
%TO.N,Net-(J3-Pin_3)*%
X133858000Y-119126000D03*
%TO.P,J3,4,Pin_4*%
%TO.N,Net-(J3-Pin_4)*%
X133858000Y-116586000D03*
%TO.P,J3,5,Pin_5*%
%TO.N,Net-(J3-Pin_5)*%
X133858000Y-114046000D03*
%TD*%
D15*
%TO.P,SW3,1,1*%
%TO.N,Net-(J6-Pin_2)*%
X61000000Y-104000000D03*
X67500000Y-104000000D03*
%TO.P,SW3,2,2*%
%TO.N,Net-(C12-Pad2)*%
X61000000Y-108500000D03*
X67500000Y-108500000D03*
%TD*%
D19*
%TO.P,U4,11,PGND*%
%TO.N,GND*%
X96894000Y-127762000D03*
X97469000Y-126812000D03*
X97469000Y-128712000D03*
X98044000Y-127762000D03*
%TD*%
D20*
%TO.N,GND*%
X94250000Y-108250000D03*
X123500000Y-134500000D03*
X102000000Y-104000000D03*
X113250000Y-134500000D03*
X120000000Y-80500000D03*
X95000000Y-120000000D03*
X99850000Y-127362000D03*
X103500000Y-102250000D03*
X92500000Y-120250000D03*
X85000000Y-97250000D03*
X94000000Y-111250000D03*
X109250000Y-104000000D03*
X80750000Y-115250000D03*
X117250000Y-79000000D03*
X113750000Y-120500000D03*
X95198139Y-127551861D03*
X125500000Y-123250000D03*
X96500000Y-79250000D03*
X90500000Y-89000000D03*
X94750000Y-112250000D03*
X95250000Y-79250000D03*
X103250000Y-129750000D03*
X114250000Y-133000000D03*
X81750000Y-96750000D03*
X103000000Y-132000000D03*
X92184669Y-115103067D03*
X103750000Y-104750000D03*
X124500000Y-133000000D03*
X113250000Y-123000000D03*
X90750000Y-80000000D03*
X87500000Y-120000000D03*
X95000000Y-112750000D03*
X81750000Y-94750000D03*
X90250000Y-108250000D03*
X101000000Y-129750000D03*
X93000000Y-132750000D03*
X92179000Y-113877500D03*
%TO.N,+3V3*%
X114856459Y-99651000D03*
X108750000Y-95500000D03*
%TO.N,Net-(C8-Pad2)*%
X92500000Y-102250000D03*
X87000000Y-86250000D03*
%TO.N,/BOOT*%
X116750000Y-95250000D03*
X109500000Y-123500000D03*
%TO.N,/STEP4*%
X110000000Y-95500000D03*
X112750000Y-100750000D03*
%TO.N,/STEP1*%
X100750000Y-89750000D03*
X113750000Y-102750000D03*
%TO.N,/STEP3*%
X100750000Y-92250000D03*
X114000000Y-107750000D03*
%TO.N,/STEP2*%
X114000000Y-105250000D03*
X100750000Y-90750000D03*
%TO.N,/Boost_EN*%
X98500000Y-130000000D03*
X99250000Y-88250000D03*
%TO.N,/IO4*%
X99500000Y-83250000D03*
X132250000Y-93000000D03*
%TO.N,/IO39*%
X116750000Y-89750000D03*
X132000000Y-105750000D03*
%TO.N,/IO5*%
X132250000Y-95500000D03*
X101250000Y-84000000D03*
%TO.N,/IO38*%
X129500000Y-104250000D03*
X116761907Y-91496707D03*
%TO.N,/IO7*%
X132250000Y-100500000D03*
X99250000Y-87250000D03*
%TO.N,/IO6*%
X132250000Y-98000000D03*
X96750000Y-85750000D03*
%TO.N,/Vin*%
X89250000Y-114500000D03*
X86000000Y-93750000D03*
X91250000Y-116750000D03*
%TD*%
D21*
%TO.N,+3V3*%
X109351000Y-94899000D02*
X110248943Y-94899000D01*
X110248943Y-94899000D02*
X114856459Y-99506516D01*
X114856459Y-99506516D02*
X114856459Y-99651000D01*
X108750000Y-95500000D02*
X109351000Y-94899000D01*
%TO.N,Net-(C8-Pad2)*%
X92500000Y-102250000D02*
X87000000Y-96750000D01*
X87000000Y-96750000D02*
X87000000Y-86250000D01*
%TO.N,/BOOT*%
X119000000Y-114750000D02*
X119000000Y-97500000D01*
X119000000Y-97500000D02*
X116750000Y-95250000D01*
X114043000Y-118957000D02*
X116426049Y-118957000D01*
X119000000Y-116383049D02*
X119000000Y-114750000D01*
X109500000Y-123500000D02*
X114043000Y-118957000D01*
X116426049Y-118957000D02*
X119000000Y-116383049D01*
%TO.N,/STEP4*%
X112750000Y-100750000D02*
X112750000Y-98250000D01*
X112750000Y-98250000D02*
X110000000Y-95500000D01*
%TO.N,/STEP1*%
X113750000Y-102750000D02*
X100750000Y-89750000D01*
%TO.N,/STEP3*%
X114000000Y-107750000D02*
X114000000Y-106250000D01*
X100750000Y-93000000D02*
X100750000Y-92250000D01*
X114000000Y-106250000D02*
X100750000Y-93000000D01*
%TO.N,/STEP2*%
X114000000Y-104000000D02*
X113750000Y-103750000D01*
X114000000Y-105250000D02*
X114000000Y-104000000D01*
X113750000Y-103750000D02*
X100750000Y-90750000D01*
%TO.N,/Boost_EN*%
X99250000Y-129250000D02*
X99250000Y-88250000D01*
X98500000Y-130000000D02*
X99250000Y-129250000D01*
%TO.N,/IO4*%
X132250000Y-93000000D02*
X122500000Y-83250000D01*
X122500000Y-83250000D02*
X99500000Y-83250000D01*
%TO.N,/IO39*%
X132000000Y-105750000D02*
X116750000Y-90500000D01*
X116750000Y-90500000D02*
X116750000Y-89750000D01*
%TO.N,/IO5*%
X120750000Y-84000000D02*
X101250000Y-84000000D01*
X132250000Y-95500000D02*
X120750000Y-84000000D01*
%TO.N,/IO38*%
X116761907Y-91511907D02*
X116761907Y-91496707D01*
X129500000Y-104250000D02*
X116761907Y-91511907D01*
%TO.N,/IO7*%
X101101000Y-89101000D02*
X99250000Y-87250000D01*
X132250000Y-100500000D02*
X120851000Y-89101000D01*
X120851000Y-89101000D02*
X101101000Y-89101000D01*
%TO.N,/IO6*%
X97401000Y-85099000D02*
X96750000Y-85750000D01*
X132250000Y-98000000D02*
X119349000Y-85099000D01*
X119349000Y-85099000D02*
X97401000Y-85099000D01*
%TO.N,/Vin*%
X86000000Y-111250000D02*
X89250000Y-114500000D01*
X86000000Y-93750000D02*
X86000000Y-111250000D01*
X89250000Y-114750000D02*
X89250000Y-114500000D01*
X91250000Y-116750000D02*
X89250000Y-114750000D01*
%TD*%
%TA.AperFunction,Conductor*%
%TO.N,GND*%
G36*
X134004418Y-78500816D02*
G01*
X134204561Y-78515130D01*
X134222063Y-78517647D01*
X134413797Y-78559355D01*
X134430755Y-78564334D01*
X134614609Y-78632909D01*
X134630701Y-78640259D01*
X134802904Y-78734288D01*
X134817784Y-78743849D01*
X134974867Y-78861441D01*
X134988237Y-78873027D01*
X135126972Y-79011762D01*
X135138558Y-79025132D01*
X135256146Y-79182210D01*
X135265711Y-79197095D01*
X135359740Y-79369298D01*
X135367090Y-79385390D01*
X135435662Y-79569236D01*
X135440646Y-79586212D01*
X135482351Y-79777931D01*
X135484869Y-79795442D01*
X135499184Y-79995580D01*
X135499500Y-80004427D01*
X135499500Y-134995572D01*
X135499184Y-135004419D01*
X135484869Y-135204557D01*
X135482351Y-135222068D01*
X135440646Y-135413787D01*
X135435662Y-135430763D01*
X135367090Y-135614609D01*
X135359740Y-135630701D01*
X135265711Y-135802904D01*
X135256146Y-135817789D01*
X135138558Y-135974867D01*
X135126972Y-135988237D01*
X134988237Y-136126972D01*
X134974867Y-136138558D01*
X134817789Y-136256146D01*
X134802904Y-136265711D01*
X134630701Y-136359740D01*
X134614609Y-136367090D01*
X134430763Y-136435662D01*
X134413787Y-136440646D01*
X134222068Y-136482351D01*
X134204557Y-136484869D01*
X134023779Y-136497799D01*
X134004417Y-136499184D01*
X133995572Y-136499500D01*
X81004428Y-136499500D01*
X80995582Y-136499184D01*
X80973622Y-136497613D01*
X80795442Y-136484869D01*
X80777931Y-136482351D01*
X80586212Y-136440646D01*
X80569236Y-136435662D01*
X80385390Y-136367090D01*
X80369298Y-136359740D01*
X80197095Y-136265711D01*
X80182210Y-136256146D01*
X80025132Y-136138558D01*
X80011762Y-136126972D01*
X79873027Y-135988237D01*
X79861441Y-135974867D01*
X79743849Y-135817784D01*
X79734288Y-135802904D01*
X79640259Y-135630701D01*
X79632909Y-135614609D01*
X79572091Y-135451551D01*
X79564334Y-135430755D01*
X79559355Y-135413797D01*
X79517647Y-135222063D01*
X79515130Y-135204556D01*
X79500816Y-135004418D01*
X79500500Y-134995572D01*
X79500500Y-131147902D01*
X107501500Y-131147902D01*
X107501500Y-131384097D01*
X107538446Y-131617368D01*
X107611433Y-131841996D01*
X107718519Y-132052163D01*
X107718657Y-132052433D01*
X107857483Y-132243510D01*
X108024490Y-132410517D01*
X108215567Y-132549343D01*
X108314991Y-132600002D01*
X108426003Y-132656566D01*
X108426005Y-132656566D01*
X108426008Y-132656568D01*
X108546412Y-132695689D01*
X108650631Y-132729553D01*
X108883903Y-132766500D01*
X108883908Y-132766500D01*
X109120097Y-132766500D01*
X109353368Y-132729553D01*
X109354870Y-132729065D01*
X109577992Y-132656568D01*
X109788433Y-132549343D01*
X109979510Y-132410517D01*
X110146517Y-132243510D01*
X110285343Y-132052433D01*
X110392568Y-131841992D01*
X110465553Y-131617368D01*
X110467717Y-131603708D01*
X110502500Y-131384097D01*
X110502500Y-131147947D01*
X112002000Y-131147947D01*
X112002000Y-131384052D01*
X112038934Y-131617247D01*
X112111897Y-131841802D01*
X112219087Y-132052174D01*
X112279338Y-132135104D01*
X112279340Y-132135105D01*
X112978212Y-131436233D01*
X112989482Y-131478292D01*
X113061890Y-131603708D01*
X113164292Y-131706110D01*
X113289708Y-131778518D01*
X113331765Y-131789787D01*
X112632893Y-132488658D01*
X112715828Y-132548914D01*
X112926197Y-132656102D01*
X113150752Y-132729065D01*
X113150751Y-132729065D01*
X113383948Y-132766000D01*
X113620052Y-132766000D01*
X113853247Y-132729065D01*
X114077802Y-132656102D01*
X114288163Y-132548918D01*
X114288169Y-132548914D01*
X114371104Y-132488658D01*
X114371105Y-132488658D01*
X113672233Y-131789787D01*
X113714292Y-131778518D01*
X113839708Y-131706110D01*
X113942110Y-131603708D01*
X114014518Y-131478292D01*
X114025787Y-131436234D01*
X114724658Y-132135105D01*
X114724658Y-132135104D01*
X114784914Y-132052169D01*
X114784918Y-132052163D01*
X114892102Y-131841802D01*
X114965065Y-131617247D01*
X115002000Y-131384052D01*
X115002000Y-131147947D01*
X115001993Y-131147902D01*
X117501500Y-131147902D01*
X117501500Y-131384097D01*
X117538446Y-131617368D01*
X117611433Y-131841996D01*
X117718519Y-132052163D01*
X117718657Y-132052433D01*
X117857483Y-132243510D01*
X118024490Y-132410517D01*
X118215567Y-132549343D01*
X118314991Y-132600002D01*
X118426003Y-132656566D01*
X118426005Y-132656566D01*
X118426008Y-132656568D01*
X118546412Y-132695689D01*
X118650631Y-132729553D01*
X118883903Y-132766500D01*
X118883908Y-132766500D01*
X119120097Y-132766500D01*
X119353368Y-132729553D01*
X119354870Y-132729065D01*
X119577992Y-132656568D01*
X119788433Y-132549343D01*
X119979510Y-132410517D01*
X120146517Y-132243510D01*
X120285343Y-132052433D01*
X120392568Y-131841992D01*
X120465553Y-131617368D01*
X120467717Y-131603708D01*
X120502500Y-131384097D01*
X120502500Y-131147947D01*
X122002000Y-131147947D01*
X122002000Y-131384052D01*
X122038934Y-131617247D01*
X122111897Y-131841802D01*
X122219087Y-132052174D01*
X122279338Y-132135104D01*
X122279340Y-132135105D01*
X122978212Y-131436233D01*
X122989482Y-131478292D01*
X123061890Y-131603708D01*
X123164292Y-131706110D01*
X123289708Y-131778518D01*
X123331765Y-131789787D01*
X122632893Y-132488658D01*
X122715828Y-132548914D01*
X122926197Y-132656102D01*
X123150752Y-132729065D01*
X123150751Y-132729065D01*
X123383948Y-132766000D01*
X123620052Y-132766000D01*
X123853247Y-132729065D01*
X124077802Y-132656102D01*
X124288163Y-132548918D01*
X124288169Y-132548914D01*
X124371104Y-132488658D01*
X124371105Y-132488658D01*
X123672233Y-131789787D01*
X123714292Y-131778518D01*
X123839708Y-131706110D01*
X123942110Y-131603708D01*
X124014518Y-131478292D01*
X124025787Y-131436234D01*
X124724658Y-132135105D01*
X124724658Y-132135104D01*
X124784914Y-132052169D01*
X124784918Y-132052163D01*
X124892102Y-131841802D01*
X124965065Y-131617247D01*
X125002000Y-131384052D01*
X125002000Y-131147947D01*
X124965065Y-130914752D01*
X124892102Y-130690197D01*
X124784914Y-130479828D01*
X124724658Y-130396894D01*
X124724658Y-130396893D01*
X124025787Y-131095765D01*
X124014518Y-131053708D01*
X123942110Y-130928292D01*
X123839708Y-130825890D01*
X123714292Y-130753482D01*
X123672234Y-130742212D01*
X124371105Y-130043340D01*
X124371104Y-130043338D01*
X124288174Y-129983087D01*
X124077802Y-129875897D01*
X123853247Y-129802934D01*
X123853248Y-129802934D01*
X123620052Y-129766000D01*
X123383948Y-129766000D01*
X123150752Y-129802934D01*
X122926197Y-129875897D01*
X122715830Y-129983084D01*
X122632894Y-130043340D01*
X123331766Y-130742212D01*
X123289708Y-130753482D01*
X123164292Y-130825890D01*
X123061890Y-130928292D01*
X122989482Y-131053708D01*
X122978212Y-131095766D01*
X122279340Y-130396894D01*
X122219084Y-130479830D01*
X122111897Y-130690197D01*
X122038934Y-130914752D01*
X122002000Y-131147947D01*
X120502500Y-131147947D01*
X120502500Y-131147902D01*
X120465553Y-130914631D01*
X120418474Y-130769738D01*
X120392568Y-130690008D01*
X120392566Y-130690005D01*
X120392566Y-130690003D01*
X120300998Y-130510292D01*
X120285343Y-130479567D01*
X120146517Y-130288490D01*
X119979510Y-130121483D01*
X119788433Y-129982657D01*
X119577996Y-129875433D01*
X119353368Y-129802446D01*
X119120097Y-129765500D01*
X119120092Y-129765500D01*
X118883908Y-129765500D01*
X118883903Y-129765500D01*
X118650631Y-129802446D01*
X118426003Y-129875433D01*
X118215566Y-129982657D01*
X118169345Y-130016239D01*
X118024490Y-130121483D01*
X118024488Y-130121485D01*
X118024487Y-130121485D01*
X117857485Y-130288487D01*
X117857485Y-130288488D01*
X117857483Y-130288490D01*
X117797862Y-130370550D01*
X117718657Y-130479566D01*
X117611433Y-130690003D01*
X117538446Y-130914631D01*
X117501500Y-131147902D01*
X115001993Y-131147902D01*
X114965065Y-130914752D01*
X114892102Y-130690197D01*
X114784914Y-130479828D01*
X114724658Y-130396894D01*
X114724658Y-130396893D01*
X114025787Y-131095765D01*
X114014518Y-131053708D01*
X113942110Y-130928292D01*
X113839708Y-130825890D01*
X113714292Y-130753482D01*
X113672234Y-130742212D01*
X114371105Y-130043340D01*
X114371104Y-130043338D01*
X114288174Y-129983087D01*
X114077802Y-129875897D01*
X113853247Y-129802934D01*
X113853248Y-129802934D01*
X113620052Y-129766000D01*
X113383948Y-129766000D01*
X113150752Y-129802934D01*
X112926197Y-129875897D01*
X112715830Y-129983084D01*
X112632894Y-130043340D01*
X113331766Y-130742212D01*
X113289708Y-130753482D01*
X113164292Y-130825890D01*
X113061890Y-130928292D01*
X112989482Y-131053708D01*
X112978212Y-131095766D01*
X112279340Y-130396894D01*
X112219084Y-130479830D01*
X112111897Y-130690197D01*
X112038934Y-130914752D01*
X112002000Y-131147947D01*
X110502500Y-131147947D01*
X110502500Y-131147902D01*
X110465553Y-130914631D01*
X110418474Y-130769738D01*
X110392568Y-130690008D01*
X110392566Y-130690005D01*
X110392566Y-130690003D01*
X110300998Y-130510292D01*
X110285343Y-130479567D01*
X110146517Y-130288490D01*
X109979510Y-130121483D01*
X109788433Y-129982657D01*
X109577996Y-129875433D01*
X109353368Y-129802446D01*
X109120097Y-129765500D01*
X109120092Y-129765500D01*
X108883908Y-129765500D01*
X108883903Y-129765500D01*
X108650631Y-129802446D01*
X108426003Y-129875433D01*
X108215566Y-129982657D01*
X108169345Y-130016239D01*
X108024490Y-130121483D01*
X108024488Y-130121485D01*
X108024487Y-130121485D01*
X107857485Y-130288487D01*
X107857485Y-130288488D01*
X107857483Y-130288490D01*
X107797862Y-130370550D01*
X107718657Y-130479566D01*
X107611433Y-130690003D01*
X107538446Y-130914631D01*
X107501500Y-131147902D01*
X79500500Y-131147902D01*
X79500500Y-127688126D01*
X96144000Y-127688126D01*
X96144000Y-127835873D01*
X96172820Y-127980759D01*
X96172822Y-127980767D01*
X96216421Y-128086024D01*
X96540446Y-127762000D01*
X96540446Y-127761999D01*
X96520556Y-127742109D01*
X96794000Y-127742109D01*
X96794000Y-127781891D01*
X96809224Y-127818645D01*
X96837355Y-127846776D01*
X96874109Y-127862000D01*
X96913891Y-127862000D01*
X96950645Y-127846776D01*
X96978776Y-127818645D01*
X96994000Y-127781891D01*
X96994000Y-127762000D01*
X97247554Y-127762000D01*
X97469000Y-127983446D01*
X97690446Y-127762000D01*
X97469000Y-127540554D01*
X97247554Y-127762000D01*
X96994000Y-127762000D01*
X96994000Y-127742109D01*
X96978776Y-127705355D01*
X96950645Y-127677224D01*
X96913891Y-127662000D01*
X96874109Y-127662000D01*
X96837355Y-127677224D01*
X96809224Y-127705355D01*
X96794000Y-127742109D01*
X96520556Y-127742109D01*
X96216421Y-127437974D01*
X96216420Y-127437974D01*
X96172823Y-127543228D01*
X96172820Y-127543240D01*
X96144000Y-127688126D01*
X79500500Y-127688126D01*
X79500500Y-126134420D01*
X97144974Y-126134420D01*
X97144974Y-126134421D01*
X97469000Y-126458446D01*
X97469001Y-126458446D01*
X97793024Y-126134421D01*
X97687767Y-126090822D01*
X97687759Y-126090820D01*
X97542872Y-126062000D01*
X97395128Y-126062000D01*
X97250240Y-126090820D01*
X97250228Y-126090823D01*
X97144974Y-126134420D01*
X79500500Y-126134420D01*
X79500500Y-114344155D01*
X81664000Y-114344155D01*
X81664000Y-114992000D01*
X82580988Y-114992000D01*
X82548075Y-115049007D01*
X82514000Y-115176174D01*
X82514000Y-115307826D01*
X82548075Y-115434993D01*
X82580988Y-115492000D01*
X81664000Y-115492000D01*
X81664000Y-116139844D01*
X81670401Y-116199372D01*
X81670403Y-116199379D01*
X81720645Y-116334086D01*
X81720649Y-116334093D01*
X81806809Y-116449187D01*
X81806812Y-116449190D01*
X81921906Y-116535350D01*
X81921913Y-116535354D01*
X82056620Y-116585596D01*
X82056627Y-116585598D01*
X82116155Y-116591999D01*
X82116172Y-116592000D01*
X82764000Y-116592000D01*
X82764000Y-115675012D01*
X82821007Y-115707925D01*
X82948174Y-115742000D01*
X83079826Y-115742000D01*
X83206993Y-115707925D01*
X83264000Y-115675012D01*
X83264000Y-116592000D01*
X83911828Y-116592000D01*
X83911844Y-116591999D01*
X83971372Y-116585598D01*
X83971379Y-116585596D01*
X84106086Y-116535354D01*
X84106093Y-116535350D01*
X84221187Y-116449190D01*
X84221190Y-116449187D01*
X84307350Y-116334093D01*
X84307354Y-116334086D01*
X84356422Y-116202529D01*
X84398293Y-116146595D01*
X84463757Y-116122178D01*
X84532030Y-116137030D01*
X84560285Y-116158181D01*
X84674213Y-116272109D01*
X84846179Y-116397048D01*
X84846181Y-116397049D01*
X84846184Y-116397051D01*
X85035588Y-116493557D01*
X85237757Y-116559246D01*
X85447713Y-116592500D01*
X85447714Y-116592500D01*
X85660286Y-116592500D01*
X85660287Y-116592500D01*
X85870243Y-116559246D01*
X86072412Y-116493557D01*
X86261816Y-116397051D01*
X86283789Y-116381086D01*
X86433786Y-116272109D01*
X86433788Y-116272106D01*
X86433792Y-116272104D01*
X86584104Y-116121792D01*
X86584106Y-116121788D01*
X86584109Y-116121786D01*
X86709048Y-115949820D01*
X86709047Y-115949820D01*
X86709051Y-115949816D01*
X86805557Y-115760412D01*
X86871246Y-115558243D01*
X86904500Y-115348287D01*
X86904500Y-115135713D01*
X86871246Y-114925757D01*
X86805557Y-114723588D01*
X86709051Y-114534184D01*
X86709049Y-114534181D01*
X86709048Y-114534179D01*
X86584109Y-114362213D01*
X86433786Y-114211890D01*
X86261820Y-114086951D01*
X86072414Y-113990444D01*
X86072413Y-113990443D01*
X86072412Y-113990443D01*
X85870243Y-113924754D01*
X85870241Y-113924753D01*
X85870240Y-113924753D01*
X85708957Y-113899208D01*
X85660287Y-113891500D01*
X85447713Y-113891500D01*
X85399042Y-113899208D01*
X85237760Y-113924753D01*
X85035585Y-113990444D01*
X84846179Y-114086951D01*
X84674215Y-114211889D01*
X84560285Y-114325819D01*
X84498962Y-114359303D01*
X84429270Y-114354319D01*
X84373337Y-114312447D01*
X84356422Y-114281470D01*
X84307354Y-114149913D01*
X84307350Y-114149906D01*
X84221190Y-114034812D01*
X84221187Y-114034809D01*
X84106093Y-113948649D01*
X84106086Y-113948645D01*
X83971379Y-113898403D01*
X83971372Y-113898401D01*
X83911844Y-113892000D01*
X83264000Y-113892000D01*
X83264000Y-114808988D01*
X83206993Y-114776075D01*
X83079826Y-114742000D01*
X82948174Y-114742000D01*
X82821007Y-114776075D01*
X82764000Y-114808988D01*
X82764000Y-113892000D01*
X82116155Y-113892000D01*
X82056627Y-113898401D01*
X82056620Y-113898403D01*
X81921913Y-113948645D01*
X81921906Y-113948649D01*
X81806812Y-114034809D01*
X81806809Y-114034812D01*
X81720649Y-114149906D01*
X81720645Y-114149913D01*
X81670403Y-114284620D01*
X81670401Y-114284627D01*
X81664000Y-114344155D01*
X79500500Y-114344155D01*
X79500500Y-109303910D01*
X79498728Y-109292720D01*
X79492266Y-109251923D01*
X79501220Y-109182634D01*
X79546216Y-109129181D01*
X79552732Y-109125145D01*
X79557314Y-109122500D01*
X79650500Y-109029314D01*
X79716392Y-108915186D01*
X79750500Y-108787892D01*
X79750500Y-108656108D01*
X79716392Y-108528814D01*
X79650500Y-108414686D01*
X79620495Y-108384681D01*
X79587010Y-108323358D01*
X79591994Y-108253666D01*
X79620495Y-108209319D01*
X79634595Y-108195219D01*
X79650500Y-108179314D01*
X79716392Y-108065186D01*
X79750500Y-107937892D01*
X79750500Y-107806108D01*
X79716392Y-107678814D01*
X79650500Y-107564686D01*
X79620495Y-107534681D01*
X79587010Y-107473358D01*
X79591994Y-107403666D01*
X79620495Y-107359319D01*
X79650500Y-107329314D01*
X79716392Y-107215186D01*
X79750500Y-107087892D01*
X79750500Y-106956108D01*
X79716392Y-106828814D01*
X79650500Y-106714686D01*
X79620495Y-106684681D01*
X79587010Y-106623358D01*
X79591994Y-106553666D01*
X79620495Y-106509319D01*
X79634380Y-106495434D01*
X79650500Y-106479314D01*
X79716392Y-106365186D01*
X79750500Y-106237892D01*
X79750500Y-106106108D01*
X79716392Y-105978814D01*
X79650500Y-105864686D01*
X79620495Y-105834681D01*
X79587010Y-105773358D01*
X79591994Y-105703666D01*
X79620495Y-105659319D01*
X79624595Y-105655219D01*
X79650500Y-105629314D01*
X79716392Y-105515186D01*
X79750500Y-105387892D01*
X79750500Y-105256108D01*
X79716392Y-105128814D01*
X79650500Y-105014686D01*
X79620495Y-104984681D01*
X79587010Y-104923358D01*
X79591994Y-104853666D01*
X79620495Y-104809319D01*
X79634962Y-104794852D01*
X79650500Y-104779314D01*
X79716392Y-104665186D01*
X79750500Y-104537892D01*
X79750500Y-104406108D01*
X79716392Y-104278814D01*
X79650500Y-104164686D01*
X79620495Y-104134681D01*
X79587010Y-104073358D01*
X79591994Y-104003666D01*
X79620495Y-103959319D01*
X79631303Y-103948511D01*
X79650500Y-103929314D01*
X79716392Y-103815186D01*
X79750500Y-103687892D01*
X79750500Y-103556108D01*
X79716392Y-103428814D01*
X79650500Y-103314686D01*
X79557314Y-103221500D01*
X79552733Y-103218855D01*
X79504521Y-103168286D01*
X79491301Y-103099679D01*
X79492260Y-103092111D01*
X79500500Y-103040092D01*
X79500500Y-102922000D01*
X79500500Y-102856108D01*
X79500500Y-100171184D01*
X79520185Y-100104145D01*
X79572989Y-100058390D01*
X79642147Y-100048446D01*
X79693391Y-100068082D01*
X79722368Y-100087444D01*
X79722377Y-100087449D01*
X79894353Y-100158683D01*
X79894361Y-100158685D01*
X80076921Y-100194999D01*
X80076924Y-100195000D01*
X80250000Y-100195000D01*
X80250000Y-99500000D01*
X80750000Y-99500000D01*
X80750000Y-100195000D01*
X80923076Y-100195000D01*
X80923078Y-100194999D01*
X81105638Y-100158685D01*
X81105646Y-100158683D01*
X81277622Y-100087449D01*
X81277631Y-100087444D01*
X81432401Y-99984029D01*
X81432405Y-99984026D01*
X81564026Y-99852405D01*
X81564029Y-99852401D01*
X81667444Y-99697631D01*
X81667451Y-99697618D01*
X81738682Y-99525649D01*
X81738683Y-99525644D01*
X81743784Y-99500000D01*
X80874728Y-99500000D01*
X80966614Y-99461940D01*
X81036940Y-99391614D01*
X81075000Y-99299728D01*
X81075000Y-99200272D01*
X81036940Y-99108386D01*
X80966614Y-99038060D01*
X80874728Y-99000000D01*
X81743784Y-99000000D01*
X81738683Y-98974355D01*
X81738682Y-98974350D01*
X81667451Y-98802381D01*
X81667444Y-98802368D01*
X81564029Y-98647598D01*
X81564026Y-98647594D01*
X81432405Y-98515973D01*
X81432401Y-98515970D01*
X81277631Y-98412555D01*
X81277622Y-98412550D01*
X81105646Y-98341316D01*
X81105638Y-98341314D01*
X80923077Y-98305000D01*
X80750000Y-98305000D01*
X80750000Y-99000000D01*
X80250000Y-99000000D01*
X80250000Y-98305000D01*
X80076923Y-98305000D01*
X79894361Y-98341314D01*
X79894353Y-98341316D01*
X79722377Y-98412550D01*
X79722365Y-98412557D01*
X79693389Y-98431918D01*
X79626711Y-98452795D01*
X79559331Y-98434309D01*
X79512642Y-98382330D01*
X79500500Y-98328815D01*
X79500500Y-97999999D01*
X82225789Y-97999999D01*
X82225790Y-98000000D01*
X82943763Y-98000000D01*
X82925000Y-98045299D01*
X82925000Y-98454701D01*
X82943763Y-98500000D01*
X82225789Y-98500000D01*
X82262466Y-98684389D01*
X82262468Y-98684397D01*
X82335964Y-98861833D01*
X82335969Y-98861842D01*
X82442667Y-99021526D01*
X82442670Y-99021530D01*
X82578469Y-99157329D01*
X82578473Y-99157332D01*
X82738157Y-99264030D01*
X82738167Y-99264035D01*
X82915599Y-99337530D01*
X82915606Y-99337533D01*
X82950000Y-99344373D01*
X82950000Y-98515056D01*
X82966866Y-98555775D01*
X83044225Y-98633134D01*
X83145299Y-98675000D01*
X83254701Y-98675000D01*
X83355775Y-98633134D01*
X83433134Y-98555775D01*
X83450000Y-98515056D01*
X83450000Y-99344372D01*
X83484393Y-99337533D01*
X83484400Y-99337530D01*
X83661832Y-99264035D01*
X83661842Y-99264030D01*
X83821526Y-99157332D01*
X83821530Y-99157329D01*
X83957329Y-99021530D01*
X83957332Y-99021526D01*
X84064030Y-98861842D01*
X84064035Y-98861833D01*
X84137531Y-98684397D01*
X84137533Y-98684389D01*
X84174210Y-98500000D01*
X83456237Y-98500000D01*
X83475000Y-98454701D01*
X83475000Y-98045299D01*
X83456237Y-98000000D01*
X84174210Y-98000000D01*
X84174210Y-97999999D01*
X84137533Y-97815610D01*
X84137531Y-97815602D01*
X84064035Y-97638166D01*
X84064030Y-97638157D01*
X83957332Y-97478473D01*
X83957329Y-97478469D01*
X83821530Y-97342670D01*
X83821526Y-97342667D01*
X83661842Y-97235969D01*
X83661833Y-97235964D01*
X83484397Y-97162468D01*
X83484389Y-97162466D01*
X83450000Y-97155625D01*
X83450000Y-97984943D01*
X83433134Y-97944225D01*
X83355775Y-97866866D01*
X83254701Y-97825000D01*
X83145299Y-97825000D01*
X83044225Y-97866866D01*
X82966866Y-97944225D01*
X82950000Y-97984943D01*
X82950000Y-97155625D01*
X82915610Y-97162466D01*
X82915602Y-97162468D01*
X82738166Y-97235964D01*
X82738157Y-97235969D01*
X82578473Y-97342667D01*
X82578469Y-97342670D01*
X82442670Y-97478469D01*
X82442667Y-97478473D01*
X82335969Y-97638157D01*
X82335964Y-97638166D01*
X82262468Y-97815602D01*
X82262466Y-97815610D01*
X82225789Y-97999999D01*
X79500500Y-97999999D01*
X79500500Y-93171184D01*
X79520185Y-93104145D01*
X79572989Y-93058390D01*
X79642147Y-93048446D01*
X79693391Y-93068082D01*
X79722368Y-93087444D01*
X79722377Y-93087449D01*
X79894353Y-93158683D01*
X79894361Y-93158685D01*
X80076921Y-93194999D01*
X80076924Y-93195000D01*
X80250000Y-93195000D01*
X80250000Y-92500000D01*
X80750000Y-92500000D01*
X80750000Y-93195000D01*
X80923076Y-93195000D01*
X80923078Y-93194999D01*
X81105638Y-93158685D01*
X81105646Y-93158683D01*
X81277622Y-93087449D01*
X81277631Y-93087444D01*
X81408500Y-92999999D01*
X82225789Y-92999999D01*
X82225790Y-93000000D01*
X82943763Y-93000000D01*
X82925000Y-93045299D01*
X82925000Y-93454701D01*
X82943763Y-93500000D01*
X82225789Y-93500000D01*
X82262466Y-93684389D01*
X82262468Y-93684397D01*
X82335964Y-93861833D01*
X82335969Y-93861842D01*
X82442667Y-94021526D01*
X82442670Y-94021530D01*
X82578469Y-94157329D01*
X82578473Y-94157332D01*
X82738157Y-94264030D01*
X82738167Y-94264035D01*
X82915599Y-94337530D01*
X82915606Y-94337533D01*
X82950000Y-94344373D01*
X82950000Y-93515056D01*
X82966866Y-93555775D01*
X83044225Y-93633134D01*
X83145299Y-93675000D01*
X83254701Y-93675000D01*
X83355775Y-93633134D01*
X83433134Y-93555775D01*
X83450000Y-93515056D01*
X83450000Y-94344372D01*
X83484393Y-94337533D01*
X83484400Y-94337530D01*
X83661832Y-94264035D01*
X83661842Y-94264030D01*
X83821526Y-94157332D01*
X83821530Y-94157329D01*
X83957329Y-94021530D01*
X83957332Y-94021526D01*
X84064030Y-93861842D01*
X84064035Y-93861833D01*
X84137531Y-93684397D01*
X84140165Y-93671153D01*
X85199500Y-93671153D01*
X85199500Y-93828846D01*
X85230261Y-93983489D01*
X85230264Y-93983501D01*
X85290602Y-94129172D01*
X85290609Y-94129185D01*
X85360645Y-94234000D01*
X85372968Y-94252443D01*
X85378602Y-94260874D01*
X85399480Y-94327551D01*
X85399500Y-94329765D01*
X85399500Y-111163330D01*
X85399499Y-111163348D01*
X85399499Y-111329054D01*
X85399498Y-111329054D01*
X85440423Y-111481786D01*
X85455282Y-111507521D01*
X85455283Y-111507523D01*
X85519477Y-111618712D01*
X85519481Y-111618717D01*
X85638349Y-111737585D01*
X85638355Y-111737590D01*
X88415425Y-114514660D01*
X88448910Y-114575983D01*
X88449361Y-114578149D01*
X88480261Y-114733491D01*
X88480264Y-114733501D01*
X88540602Y-114879172D01*
X88540609Y-114879185D01*
X88628210Y-115010288D01*
X88628213Y-115010292D01*
X88739707Y-115121786D01*
X88739715Y-115121792D01*
X88828532Y-115181138D01*
X88847322Y-115196558D01*
X88881284Y-115230520D01*
X88881285Y-115230520D01*
X88888353Y-115237588D01*
X90415425Y-116764660D01*
X90448910Y-116825983D01*
X90449361Y-116828149D01*
X90480261Y-116983491D01*
X90480264Y-116983501D01*
X90540602Y-117129172D01*
X90540609Y-117129185D01*
X90628210Y-117260288D01*
X90628213Y-117260292D01*
X90739707Y-117371786D01*
X90739711Y-117371789D01*
X90870814Y-117459390D01*
X90870827Y-117459397D01*
X91016498Y-117519735D01*
X91016503Y-117519737D01*
X91171153Y-117550499D01*
X91171156Y-117550500D01*
X91171158Y-117550500D01*
X91328844Y-117550500D01*
X91328845Y-117550499D01*
X91483497Y-117519737D01*
X91629179Y-117459394D01*
X91760289Y-117371789D01*
X91871789Y-117260289D01*
X91959394Y-117129179D01*
X92019737Y-116983497D01*
X92050500Y-116828842D01*
X92050500Y-116671158D01*
X92050500Y-116671155D01*
X92050499Y-116671153D01*
X92047772Y-116657446D01*
X92019737Y-116516503D01*
X92004498Y-116479713D01*
X91959397Y-116370827D01*
X91959390Y-116370814D01*
X91871789Y-116239711D01*
X91871786Y-116239707D01*
X91760292Y-116128213D01*
X91760288Y-116128210D01*
X91629185Y-116040609D01*
X91629172Y-116040602D01*
X91483501Y-115980264D01*
X91483491Y-115980261D01*
X91328149Y-115949361D01*
X91266238Y-115916976D01*
X91264660Y-115915425D01*
X90077055Y-114727820D01*
X90043570Y-114666497D01*
X90043119Y-114615945D01*
X90050500Y-114578841D01*
X90050500Y-114421155D01*
X90050499Y-114421153D01*
X90031536Y-114325819D01*
X90019737Y-114266503D01*
X89997116Y-114211890D01*
X89959397Y-114120827D01*
X89959390Y-114120814D01*
X89871789Y-113989711D01*
X89871786Y-113989707D01*
X89760292Y-113878213D01*
X89760288Y-113878210D01*
X89629185Y-113790609D01*
X89629172Y-113790602D01*
X89483501Y-113730264D01*
X89483491Y-113730261D01*
X89328149Y-113699361D01*
X89266238Y-113666976D01*
X89264660Y-113665425D01*
X86636819Y-111037584D01*
X86603334Y-110976261D01*
X86600500Y-110949903D01*
X86600500Y-97499097D01*
X86620185Y-97432058D01*
X86672989Y-97386303D01*
X86742147Y-97376359D01*
X86805703Y-97405384D01*
X86812181Y-97411416D01*
X91665425Y-102264660D01*
X91698910Y-102325983D01*
X91699361Y-102328149D01*
X91730261Y-102483491D01*
X91730264Y-102483501D01*
X91790602Y-102629172D01*
X91790609Y-102629185D01*
X91878210Y-102760288D01*
X91878213Y-102760292D01*
X91989707Y-102871786D01*
X91989711Y-102871789D01*
X92120814Y-102959390D01*
X92120827Y-102959397D01*
X92266498Y-103019735D01*
X92266503Y-103019737D01*
X92368814Y-103040088D01*
X92421153Y-103050499D01*
X92421156Y-103050500D01*
X92421158Y-103050500D01*
X92578844Y-103050500D01*
X92578845Y-103050499D01*
X92733497Y-103019737D01*
X92879179Y-102959394D01*
X93010289Y-102871789D01*
X93121789Y-102760289D01*
X93209394Y-102629179D01*
X93269737Y-102483497D01*
X93300500Y-102328842D01*
X93300500Y-102171158D01*
X93300500Y-102171155D01*
X93300499Y-102171153D01*
X93289683Y-102116776D01*
X93269737Y-102016503D01*
X93269521Y-102015981D01*
X93209397Y-101870827D01*
X93209390Y-101870814D01*
X93121789Y-101739711D01*
X93121786Y-101739707D01*
X93010292Y-101628213D01*
X93010288Y-101628210D01*
X92879185Y-101540609D01*
X92879172Y-101540602D01*
X92733501Y-101480264D01*
X92733491Y-101480261D01*
X92578151Y-101449362D01*
X92516241Y-101416977D01*
X92514662Y-101415426D01*
X87636819Y-96537583D01*
X87603334Y-96476260D01*
X87600500Y-96449902D01*
X87600500Y-86829765D01*
X87620185Y-86762726D01*
X87621398Y-86760874D01*
X87709390Y-86629185D01*
X87709390Y-86629184D01*
X87709394Y-86629179D01*
X87769737Y-86483497D01*
X87800500Y-86328842D01*
X87800500Y-86171158D01*
X87800500Y-86171155D01*
X87800499Y-86171153D01*
X87769738Y-86016510D01*
X87769737Y-86016503D01*
X87756062Y-85983489D01*
X87709397Y-85870827D01*
X87709390Y-85870814D01*
X87621790Y-85739712D01*
X87621784Y-85739705D01*
X87553232Y-85671153D01*
X95949500Y-85671153D01*
X95949500Y-85828846D01*
X95980261Y-85983489D01*
X95980264Y-85983501D01*
X96040602Y-86129172D01*
X96040609Y-86129185D01*
X96128210Y-86260288D01*
X96128213Y-86260292D01*
X96239707Y-86371786D01*
X96239711Y-86371789D01*
X96370814Y-86459390D01*
X96370827Y-86459397D01*
X96516498Y-86519735D01*
X96516503Y-86519737D01*
X96671153Y-86550499D01*
X96671156Y-86550500D01*
X96671158Y-86550500D01*
X96828844Y-86550500D01*
X96828845Y-86550499D01*
X96983497Y-86519737D01*
X97129179Y-86459394D01*
X97260289Y-86371789D01*
X97371789Y-86260289D01*
X97459394Y-86129179D01*
X97519737Y-85983497D01*
X97542151Y-85870814D01*
X97550638Y-85828150D01*
X97559403Y-85811393D01*
X97563424Y-85792912D01*
X97582168Y-85767872D01*
X97583023Y-85766239D01*
X97584467Y-85764767D01*
X97613419Y-85735815D01*
X97674741Y-85702333D01*
X97701097Y-85699500D01*
X119048903Y-85699500D01*
X119115942Y-85719185D01*
X119136584Y-85735819D01*
X131415425Y-98014660D01*
X131448910Y-98075983D01*
X131449361Y-98078149D01*
X131480261Y-98233491D01*
X131480264Y-98233501D01*
X131540602Y-98379172D01*
X131540609Y-98379185D01*
X131628210Y-98510288D01*
X131628213Y-98510292D01*
X131739707Y-98621786D01*
X131739711Y-98621789D01*
X131870814Y-98709390D01*
X131870827Y-98709397D01*
X131973247Y-98751820D01*
X132016503Y-98769737D01*
X132144463Y-98795190D01*
X132171153Y-98800499D01*
X132171156Y-98800500D01*
X132171158Y-98800500D01*
X132328842Y-98800500D01*
X132386834Y-98788964D01*
X132456423Y-98795190D01*
X132511343Y-98837696D01*
X132573890Y-98923785D01*
X132573894Y-98923790D01*
X132724213Y-99074109D01*
X132896182Y-99199050D01*
X132904946Y-99203516D01*
X132955742Y-99251491D01*
X132972536Y-99319312D01*
X132949998Y-99385447D01*
X132904946Y-99424484D01*
X132896182Y-99428949D01*
X132724215Y-99553889D01*
X132584032Y-99694072D01*
X132577063Y-99697876D01*
X132572421Y-99704315D01*
X132546838Y-99714380D01*
X132522709Y-99727556D01*
X132513135Y-99727641D01*
X132507403Y-99729897D01*
X132472159Y-99728007D01*
X132328149Y-99699361D01*
X132266238Y-99666976D01*
X132264660Y-99665425D01*
X121338590Y-88739355D01*
X121338588Y-88739352D01*
X121219717Y-88620481D01*
X121219716Y-88620480D01*
X121132904Y-88570360D01*
X121132904Y-88570359D01*
X121132900Y-88570358D01*
X121082785Y-88541423D01*
X120930057Y-88500499D01*
X120771943Y-88500499D01*
X120764347Y-88500499D01*
X120764331Y-88500500D01*
X101401097Y-88500500D01*
X101334058Y-88480815D01*
X101313416Y-88464181D01*
X100084574Y-87235339D01*
X100051089Y-87174016D01*
X100050638Y-87171849D01*
X100019738Y-87016510D01*
X100019737Y-87016503D01*
X100007156Y-86986129D01*
X99959397Y-86870827D01*
X99959390Y-86870814D01*
X99871789Y-86739711D01*
X99871786Y-86739707D01*
X99760292Y-86628213D01*
X99760288Y-86628210D01*
X99629185Y-86540609D01*
X99629172Y-86540602D01*
X99483501Y-86480264D01*
X99483489Y-86480261D01*
X99328845Y-86449500D01*
X99328842Y-86449500D01*
X99171158Y-86449500D01*
X99171155Y-86449500D01*
X99016510Y-86480261D01*
X99016498Y-86480264D01*
X98870827Y-86540602D01*
X98870814Y-86540609D01*
X98739711Y-86628210D01*
X98739707Y-86628213D01*
X98628213Y-86739707D01*
X98628210Y-86739711D01*
X98540609Y-86870814D01*
X98540602Y-86870827D01*
X98480264Y-87016498D01*
X98480261Y-87016510D01*
X98449500Y-87171153D01*
X98449500Y-87328846D01*
X98480261Y-87483489D01*
X98480264Y-87483501D01*
X98540602Y-87629172D01*
X98540609Y-87629185D01*
X98575304Y-87681109D01*
X98596182Y-87747786D01*
X98577698Y-87815167D01*
X98575304Y-87818891D01*
X98540609Y-87870814D01*
X98540602Y-87870827D01*
X98480264Y-88016498D01*
X98480261Y-88016510D01*
X98449500Y-88171153D01*
X98449500Y-88328846D01*
X98480261Y-88483489D01*
X98480264Y-88483501D01*
X98540602Y-88629172D01*
X98540609Y-88629185D01*
X98628602Y-88760874D01*
X98649480Y-88827551D01*
X98649500Y-88829765D01*
X98649500Y-127032577D01*
X98648798Y-127034965D01*
X98649407Y-127037379D01*
X98639005Y-127068315D01*
X98629815Y-127099616D01*
X98627934Y-127101245D01*
X98627141Y-127103606D01*
X98601654Y-127124017D01*
X98577011Y-127145371D01*
X98574549Y-127145724D01*
X98572605Y-127147282D01*
X98540146Y-127150671D01*
X98507853Y-127155315D01*
X98504821Y-127154360D01*
X98503113Y-127154539D01*
X98495223Y-127151339D01*
X98469659Y-127143292D01*
X98279485Y-127047375D01*
X98257223Y-127026522D01*
X98233469Y-127007380D01*
X98231965Y-127002862D01*
X98228493Y-126999610D01*
X98221039Y-126970033D01*
X98211405Y-126941085D01*
X98211971Y-126934049D01*
X98211419Y-126931858D01*
X98212377Y-126929007D01*
X98213709Y-126912467D01*
X98219000Y-126885869D01*
X98219000Y-126738128D01*
X98218999Y-126738126D01*
X98190179Y-126593240D01*
X98190178Y-126593236D01*
X98146576Y-126487974D01*
X97733457Y-126901095D01*
X97672134Y-126934580D01*
X97602442Y-126929596D01*
X97558095Y-126901095D01*
X97539710Y-126882710D01*
X97553776Y-126868645D01*
X97569000Y-126831891D01*
X97569000Y-126792109D01*
X97553776Y-126755355D01*
X97525645Y-126727224D01*
X97488891Y-126712000D01*
X97449109Y-126712000D01*
X97412355Y-126727224D01*
X97384224Y-126755355D01*
X97369000Y-126792109D01*
X97369000Y-126831891D01*
X97384224Y-126868645D01*
X97398289Y-126882710D01*
X97379904Y-126901096D01*
X97318581Y-126934580D01*
X97248889Y-126929596D01*
X97204542Y-126901095D01*
X96791421Y-126487974D01*
X96791420Y-126487974D01*
X96747823Y-126593228D01*
X96747820Y-126593240D01*
X96719000Y-126738126D01*
X96719000Y-126885869D01*
X96724291Y-126912471D01*
X96718062Y-126982062D01*
X96675198Y-127037239D01*
X96650126Y-127051221D01*
X96569974Y-127084421D01*
X96893999Y-127408446D01*
X97251796Y-127050650D01*
X97313119Y-127017165D01*
X97382811Y-127022149D01*
X97427158Y-127050650D01*
X97469000Y-127092492D01*
X97510842Y-127050650D01*
X97572165Y-127017165D01*
X97641857Y-127022149D01*
X97686204Y-127050650D01*
X98133096Y-127497542D01*
X98166581Y-127558865D01*
X98161597Y-127628557D01*
X98133096Y-127672904D01*
X98114710Y-127691289D01*
X98100645Y-127677224D01*
X98063891Y-127662000D01*
X98024109Y-127662000D01*
X97987355Y-127677224D01*
X97959224Y-127705355D01*
X97944000Y-127742109D01*
X97944000Y-127781891D01*
X97959224Y-127818645D01*
X97987355Y-127846776D01*
X98024109Y-127862000D01*
X98063891Y-127862000D01*
X98100645Y-127846776D01*
X98114710Y-127832710D01*
X98133096Y-127851096D01*
X98166581Y-127912419D01*
X98161597Y-127982111D01*
X98133096Y-128026458D01*
X97686204Y-128473350D01*
X97624881Y-128506835D01*
X97555189Y-128501851D01*
X97510842Y-128473350D01*
X97469000Y-128431508D01*
X97427158Y-128473350D01*
X97365834Y-128506834D01*
X97296143Y-128501849D01*
X97251796Y-128473349D01*
X96894001Y-128115554D01*
X96894000Y-128115554D01*
X96569975Y-128439577D01*
X96650127Y-128472778D01*
X96704530Y-128516620D01*
X96726594Y-128582914D01*
X96724291Y-128611527D01*
X96719000Y-128638129D01*
X96719000Y-128785873D01*
X96747820Y-128930759D01*
X96747822Y-128930767D01*
X96791421Y-129036024D01*
X97204542Y-128622904D01*
X97265865Y-128589419D01*
X97335557Y-128594403D01*
X97379904Y-128622904D01*
X97398289Y-128641289D01*
X97384224Y-128655355D01*
X97369000Y-128692109D01*
X97369000Y-128731891D01*
X97384224Y-128768645D01*
X97412355Y-128796776D01*
X97449109Y-128812000D01*
X97488891Y-128812000D01*
X97525645Y-128796776D01*
X97539710Y-128782710D01*
X97558095Y-128801095D01*
X97591580Y-128862418D01*
X97586596Y-128932110D01*
X97558095Y-128976457D01*
X97144974Y-129389577D01*
X97250236Y-129433178D01*
X97250240Y-129433179D01*
X97395126Y-129461999D01*
X97395129Y-129462000D01*
X97542871Y-129462000D01*
X97657930Y-129439113D01*
X97727522Y-129445340D01*
X97782699Y-129488203D01*
X97805944Y-129554093D01*
X97792417Y-129614977D01*
X97792937Y-129615192D01*
X97791714Y-129618143D01*
X97791486Y-129619172D01*
X97790607Y-129620815D01*
X97730264Y-129766498D01*
X97730261Y-129766510D01*
X97699500Y-129921153D01*
X97699500Y-130078846D01*
X97730261Y-130233489D01*
X97730264Y-130233501D01*
X97790602Y-130379172D01*
X97790609Y-130379185D01*
X97878210Y-130510288D01*
X97878213Y-130510292D01*
X97989707Y-130621786D01*
X97989711Y-130621789D01*
X98120814Y-130709390D01*
X98120827Y-130709397D01*
X98266498Y-130769735D01*
X98266503Y-130769737D01*
X98421153Y-130800499D01*
X98421156Y-130800500D01*
X98421158Y-130800500D01*
X98578844Y-130800500D01*
X98578845Y-130800499D01*
X98733497Y-130769737D01*
X98879179Y-130709394D01*
X99010289Y-130621789D01*
X99121789Y-130510289D01*
X99209394Y-130379179D01*
X99269737Y-130233497D01*
X99292018Y-130121483D01*
X99300638Y-130078150D01*
X99333023Y-130016239D01*
X99334524Y-130014710D01*
X99618713Y-129730521D01*
X99618716Y-129730520D01*
X99730520Y-129618716D01*
X99780639Y-129531904D01*
X99809577Y-129481785D01*
X99850500Y-129329057D01*
X99850500Y-129170943D01*
X99850500Y-92753439D01*
X99860039Y-92720950D01*
X99869004Y-92688273D01*
X99869861Y-92687503D01*
X99870185Y-92686400D01*
X99895756Y-92664242D01*
X99920983Y-92641582D01*
X99922120Y-92641397D01*
X99922989Y-92640645D01*
X99956511Y-92635824D01*
X99989953Y-92630406D01*
X99991007Y-92630864D01*
X99992147Y-92630701D01*
X100022964Y-92644774D01*
X100054017Y-92658291D01*
X100055029Y-92659418D01*
X100055703Y-92659726D01*
X100077602Y-92684548D01*
X100128602Y-92760874D01*
X100149480Y-92827551D01*
X100149500Y-92829765D01*
X100149500Y-92913330D01*
X100149499Y-92913348D01*
X100149499Y-93079054D01*
X100149498Y-93079054D01*
X100190423Y-93231785D01*
X100218399Y-93280239D01*
X100218400Y-93280243D01*
X100218401Y-93280243D01*
X100269479Y-93368714D01*
X100269481Y-93368717D01*
X100388349Y-93487585D01*
X100388355Y-93487590D01*
X113363181Y-106462416D01*
X113396666Y-106523739D01*
X113399500Y-106550097D01*
X113399500Y-107170234D01*
X113379815Y-107237273D01*
X113378602Y-107239125D01*
X113290609Y-107370814D01*
X113290602Y-107370827D01*
X113230264Y-107516498D01*
X113230261Y-107516510D01*
X113199500Y-107671153D01*
X113199500Y-107828846D01*
X113230261Y-107983489D01*
X113230264Y-107983501D01*
X113290602Y-108129172D01*
X113290609Y-108129185D01*
X113378210Y-108260288D01*
X113378213Y-108260292D01*
X113489707Y-108371786D01*
X113489711Y-108371789D01*
X113620814Y-108459390D01*
X113620827Y-108459397D01*
X113766498Y-108519735D01*
X113766503Y-108519737D01*
X113897359Y-108545766D01*
X113921153Y-108550499D01*
X113921156Y-108550500D01*
X113921158Y-108550500D01*
X114078844Y-108550500D01*
X114091419Y-108547998D01*
X114102640Y-108545766D01*
X114172231Y-108551990D01*
X114214516Y-108579701D01*
X114322786Y-108687971D01*
X114460317Y-108787891D01*
X114488390Y-108808287D01*
X114562422Y-108846008D01*
X114581080Y-108855515D01*
X114631876Y-108903490D01*
X114648671Y-108971311D01*
X114626134Y-109037446D01*
X114581080Y-109076485D01*
X114488386Y-109123715D01*
X114322786Y-109244028D01*
X114178028Y-109388786D01*
X114057715Y-109554386D01*
X113964781Y-109736776D01*
X113901522Y-109931465D01*
X113869500Y-110133648D01*
X113869500Y-110338351D01*
X113901522Y-110540534D01*
X113964781Y-110735223D01*
X114057715Y-110917613D01*
X114178028Y-111083213D01*
X114322786Y-111227971D01*
X114461918Y-111329054D01*
X114488390Y-111348287D01*
X114579840Y-111394883D01*
X114581080Y-111395515D01*
X114631876Y-111443490D01*
X114648671Y-111511311D01*
X114626134Y-111577446D01*
X114581080Y-111616485D01*
X114488386Y-111663715D01*
X114322786Y-111784028D01*
X114178028Y-111928786D01*
X114057715Y-112094386D01*
X113964781Y-112276776D01*
X113901522Y-112471465D01*
X113869500Y-112673648D01*
X113869500Y-112878351D01*
X113901522Y-113080534D01*
X113964781Y-113275223D01*
X114057715Y-113457613D01*
X114178028Y-113623213D01*
X114322786Y-113767971D01*
X114474520Y-113878210D01*
X114488390Y-113888287D01*
X114579840Y-113934883D01*
X114581080Y-113935515D01*
X114631876Y-113983490D01*
X114648671Y-114051311D01*
X114626134Y-114117446D01*
X114581080Y-114156485D01*
X114488386Y-114203715D01*
X114322786Y-114324028D01*
X114178028Y-114468786D01*
X114057715Y-114634386D01*
X113964781Y-114816776D01*
X113901522Y-115011465D01*
X113869500Y-115213648D01*
X113869500Y-115418351D01*
X113901522Y-115620534D01*
X113964781Y-115815223D01*
X114016628Y-115916976D01*
X114048874Y-115980263D01*
X114057715Y-115997613D01*
X114178028Y-116163213D01*
X114322786Y-116307971D01*
X114445397Y-116397051D01*
X114488390Y-116428287D01*
X114579840Y-116474883D01*
X114581080Y-116475515D01*
X114631876Y-116523490D01*
X114648671Y-116591311D01*
X114626134Y-116657446D01*
X114581080Y-116696485D01*
X114488386Y-116743715D01*
X114322786Y-116864028D01*
X114178028Y-117008786D01*
X114057715Y-117174386D01*
X113964781Y-117356776D01*
X113901522Y-117551465D01*
X113869500Y-117753648D01*
X113869500Y-117958351D01*
X113901523Y-118160535D01*
X113901523Y-118160538D01*
X113924716Y-118231917D01*
X113926711Y-118301758D01*
X113890631Y-118361591D01*
X113857912Y-118383204D01*
X113848668Y-118387387D01*
X113811215Y-118397423D01*
X113761095Y-118426360D01*
X113755804Y-118429414D01*
X113755799Y-118429417D01*
X113674285Y-118476479D01*
X113674282Y-118476481D01*
X109485339Y-122665425D01*
X109424016Y-122698910D01*
X109421850Y-122699361D01*
X109266508Y-122730261D01*
X109266498Y-122730264D01*
X109120827Y-122790602D01*
X109120814Y-122790609D01*
X108989711Y-122878210D01*
X108989707Y-122878213D01*
X108878213Y-122989707D01*
X108878210Y-122989711D01*
X108790609Y-123120814D01*
X108790604Y-123120824D01*
X108746494Y-123227315D01*
X108702653Y-123281718D01*
X108655244Y-123300767D01*
X108655374Y-123301308D01*
X108651711Y-123302187D01*
X108651352Y-123302332D01*
X108650639Y-123302445D01*
X108650633Y-123302446D01*
X108650632Y-123302447D01*
X108426008Y-123375432D01*
X108426005Y-123375433D01*
X108215566Y-123482657D01*
X108132047Y-123543338D01*
X108024490Y-123621483D01*
X108024488Y-123621485D01*
X108024487Y-123621485D01*
X107857485Y-123788487D01*
X107857485Y-123788488D01*
X107857483Y-123788490D01*
X107840126Y-123812380D01*
X107718657Y-123979566D01*
X107611433Y-124190003D01*
X107538446Y-124414631D01*
X107501500Y-124647902D01*
X107501500Y-124884097D01*
X107538446Y-125117368D01*
X107611433Y-125341996D01*
X107717464Y-125550091D01*
X107718657Y-125552433D01*
X107857483Y-125743510D01*
X108024490Y-125910517D01*
X108215567Y-126049343D01*
X108240408Y-126062000D01*
X108426003Y-126156566D01*
X108426005Y-126156566D01*
X108426008Y-126156568D01*
X108546412Y-126195689D01*
X108650631Y-126229553D01*
X108883903Y-126266500D01*
X108883908Y-126266500D01*
X109120097Y-126266500D01*
X109353368Y-126229553D01*
X109354870Y-126229065D01*
X109577992Y-126156568D01*
X109788433Y-126049343D01*
X109979510Y-125910517D01*
X110146517Y-125743510D01*
X110285343Y-125552433D01*
X110392568Y-125341992D01*
X110465553Y-125117368D01*
X110467717Y-125103708D01*
X110502500Y-124884097D01*
X110502500Y-124647947D01*
X112002000Y-124647947D01*
X112002000Y-124884052D01*
X112038934Y-125117247D01*
X112111897Y-125341802D01*
X112219087Y-125552174D01*
X112279338Y-125635104D01*
X112279340Y-125635105D01*
X112978212Y-124936233D01*
X112989482Y-124978292D01*
X113061890Y-125103708D01*
X113164292Y-125206110D01*
X113289708Y-125278518D01*
X113331765Y-125289787D01*
X112632893Y-125988658D01*
X112715828Y-126048914D01*
X112926197Y-126156102D01*
X113150752Y-126229065D01*
X113150751Y-126229065D01*
X113383948Y-126266000D01*
X113620052Y-126266000D01*
X113853247Y-126229065D01*
X114077802Y-126156102D01*
X114288163Y-126048918D01*
X114288169Y-126048914D01*
X114371104Y-125988658D01*
X114371105Y-125988658D01*
X113672233Y-125289787D01*
X113714292Y-125278518D01*
X113839708Y-125206110D01*
X113942110Y-125103708D01*
X114014518Y-124978292D01*
X114025787Y-124936234D01*
X114724658Y-125635105D01*
X114724658Y-125635104D01*
X114784914Y-125552169D01*
X114784918Y-125552163D01*
X114892102Y-125341802D01*
X114965065Y-125117247D01*
X115002000Y-124884052D01*
X115002000Y-124647947D01*
X115001993Y-124647902D01*
X117501500Y-124647902D01*
X117501500Y-124884097D01*
X117538446Y-125117368D01*
X117611433Y-125341996D01*
X117717464Y-125550091D01*
X117718657Y-125552433D01*
X117857483Y-125743510D01*
X118024490Y-125910517D01*
X118215567Y-126049343D01*
X118240408Y-126062000D01*
X118426003Y-126156566D01*
X118426005Y-126156566D01*
X118426008Y-126156568D01*
X118546412Y-126195689D01*
X118650631Y-126229553D01*
X118883903Y-126266500D01*
X118883908Y-126266500D01*
X119120097Y-126266500D01*
X119353368Y-126229553D01*
X119354870Y-126229065D01*
X119577992Y-126156568D01*
X119788433Y-126049343D01*
X119979510Y-125910517D01*
X120146517Y-125743510D01*
X120285343Y-125552433D01*
X120392568Y-125341992D01*
X120465553Y-125117368D01*
X120467717Y-125103708D01*
X120502500Y-124884097D01*
X120502500Y-124647947D01*
X122002000Y-124647947D01*
X122002000Y-124884052D01*
X122038934Y-125117247D01*
X122111897Y-125341802D01*
X122219087Y-125552174D01*
X122279338Y-125635104D01*
X122279340Y-125635105D01*
X122978212Y-124936233D01*
X122989482Y-124978292D01*
X123061890Y-125103708D01*
X123164292Y-125206110D01*
X123289708Y-125278518D01*
X123331765Y-125289787D01*
X122632893Y-125988658D01*
X122715828Y-126048914D01*
X122926197Y-126156102D01*
X123150752Y-126229065D01*
X123150751Y-126229065D01*
X123383948Y-126266000D01*
X123620052Y-126266000D01*
X123853247Y-126229065D01*
X124077802Y-126156102D01*
X124288163Y-126048918D01*
X124288169Y-126048914D01*
X124371104Y-125988658D01*
X124371105Y-125988658D01*
X123672233Y-125289787D01*
X123714292Y-125278518D01*
X123839708Y-125206110D01*
X123942110Y-125103708D01*
X124014518Y-124978292D01*
X124025787Y-124936234D01*
X124724658Y-125635105D01*
X124724658Y-125635104D01*
X124784914Y-125552169D01*
X124784918Y-125552163D01*
X124892102Y-125341802D01*
X124965065Y-125117247D01*
X125002000Y-124884052D01*
X125002000Y-124647947D01*
X124965065Y-124414752D01*
X124892102Y-124190197D01*
X124784914Y-123979828D01*
X124724658Y-123896894D01*
X124724658Y-123896893D01*
X124025787Y-124595765D01*
X124014518Y-124553708D01*
X123942110Y-124428292D01*
X123839708Y-124325890D01*
X123714292Y-124253482D01*
X123672234Y-124242212D01*
X124371105Y-123543340D01*
X124371104Y-123543338D01*
X124288174Y-123483087D01*
X124077802Y-123375897D01*
X123853247Y-123302934D01*
X123853248Y-123302934D01*
X123620052Y-123266000D01*
X123383948Y-123266000D01*
X123150752Y-123302934D01*
X122926197Y-123375897D01*
X122715830Y-123483084D01*
X122632894Y-123543340D01*
X123331766Y-124242212D01*
X123289708Y-124253482D01*
X123164292Y-124325890D01*
X123061890Y-124428292D01*
X122989482Y-124553708D01*
X122978212Y-124595766D01*
X122279340Y-123896894D01*
X122219084Y-123979830D01*
X122111897Y-124190197D01*
X122038934Y-124414752D01*
X122002000Y-124647947D01*
X120502500Y-124647947D01*
X120502500Y-124647902D01*
X120465553Y-124414631D01*
X120392566Y-124190003D01*
X120285477Y-123979830D01*
X120285343Y-123979567D01*
X120146517Y-123788490D01*
X119979510Y-123621483D01*
X119788433Y-123482657D01*
X119577996Y-123375433D01*
X119353368Y-123302446D01*
X119120097Y-123265500D01*
X119120092Y-123265500D01*
X118883908Y-123265500D01*
X118883903Y-123265500D01*
X118650631Y-123302446D01*
X118426003Y-123375433D01*
X118215566Y-123482657D01*
X118132047Y-123543338D01*
X118024490Y-123621483D01*
X118024488Y-123621485D01*
X118024487Y-123621485D01*
X117857485Y-123788487D01*
X117857485Y-123788488D01*
X117857483Y-123788490D01*
X117840126Y-123812380D01*
X117718657Y-123979566D01*
X117611433Y-124190003D01*
X117538446Y-124414631D01*
X117501500Y-124647902D01*
X115001993Y-124647902D01*
X114965065Y-124414752D01*
X114892102Y-124190197D01*
X114784914Y-123979828D01*
X114724658Y-123896894D01*
X114724658Y-123896893D01*
X114025787Y-124595765D01*
X114014518Y-124553708D01*
X113942110Y-124428292D01*
X113839708Y-124325890D01*
X113714292Y-124253482D01*
X113672234Y-124242212D01*
X114371105Y-123543340D01*
X114371104Y-123543338D01*
X114288174Y-123483087D01*
X114077802Y-123375897D01*
X113853247Y-123302934D01*
X113853248Y-123302934D01*
X113620052Y-123266000D01*
X113383948Y-123266000D01*
X113150752Y-123302934D01*
X112926197Y-123375897D01*
X112715830Y-123483084D01*
X112632894Y-123543340D01*
X113331766Y-124242212D01*
X113289708Y-124253482D01*
X113164292Y-124325890D01*
X113061890Y-124428292D01*
X112989482Y-124553708D01*
X112978212Y-124595766D01*
X112279340Y-123896894D01*
X112219084Y-123979830D01*
X112111897Y-124190197D01*
X112038934Y-124414752D01*
X112002000Y-124647947D01*
X110502500Y-124647947D01*
X110502500Y-124647902D01*
X110465553Y-124414631D01*
X110392566Y-124190003D01*
X110339872Y-124086587D01*
X110285343Y-123979567D01*
X110251305Y-123932718D01*
X110227825Y-123866912D01*
X110237062Y-123812380D01*
X110269737Y-123733497D01*
X110300500Y-123578842D01*
X110300638Y-123578150D01*
X110309402Y-123561393D01*
X110313423Y-123542914D01*
X110332167Y-123517875D01*
X110333023Y-123516239D01*
X110334518Y-123514716D01*
X113710946Y-120138288D01*
X113772265Y-120104806D01*
X113841957Y-120109790D01*
X113892914Y-120145441D01*
X113893391Y-120146000D01*
X115254314Y-120146000D01*
X115249920Y-120150394D01*
X115197259Y-120241606D01*
X115170000Y-120343339D01*
X115170000Y-120448661D01*
X115197259Y-120550394D01*
X115249920Y-120641606D01*
X115254314Y-120646000D01*
X113893391Y-120646000D01*
X113902009Y-120700413D01*
X113965244Y-120895029D01*
X114058140Y-121077349D01*
X114178417Y-121242894D01*
X114178417Y-121242895D01*
X114323104Y-121387582D01*
X114488650Y-121507859D01*
X114670968Y-121600755D01*
X114865582Y-121663990D01*
X115067683Y-121696000D01*
X115320000Y-121696000D01*
X115320000Y-120711686D01*
X115324394Y-120716080D01*
X115415606Y-120768741D01*
X115517339Y-120796000D01*
X115622661Y-120796000D01*
X115724394Y-120768741D01*
X115815606Y-120716080D01*
X115820000Y-120711686D01*
X115820000Y-121696000D01*
X116072317Y-121696000D01*
X116274417Y-121663990D01*
X116469031Y-121600755D01*
X116651349Y-121507859D01*
X116816894Y-121387582D01*
X116816895Y-121387582D01*
X116961582Y-121242895D01*
X116961582Y-121242894D01*
X117081859Y-121077349D01*
X117174755Y-120895029D01*
X117237990Y-120700413D01*
X117246609Y-120646000D01*
X115885686Y-120646000D01*
X115890080Y-120641606D01*
X115942741Y-120550394D01*
X115970000Y-120448661D01*
X115970000Y-120343339D01*
X115942741Y-120241606D01*
X115890080Y-120150394D01*
X115885686Y-120146000D01*
X117246609Y-120146000D01*
X117237990Y-120091586D01*
X117174755Y-119896970D01*
X117081859Y-119714650D01*
X116961582Y-119549105D01*
X116961582Y-119549104D01*
X116910062Y-119497584D01*
X116905727Y-119489646D01*
X116898487Y-119484228D01*
X116889244Y-119459460D01*
X116876577Y-119436261D01*
X116877222Y-119427240D01*
X116874060Y-119418767D01*
X116879675Y-119392935D01*
X116881561Y-119366569D01*
X116887373Y-119357523D01*
X116888902Y-119350492D01*
X116910009Y-119322296D01*
X116910049Y-119322235D01*
X116913409Y-119318874D01*
X119358506Y-116873777D01*
X119358511Y-116873773D01*
X119368714Y-116863569D01*
X119368716Y-116863569D01*
X119480520Y-116751765D01*
X119559577Y-116614833D01*
X119600500Y-116462106D01*
X119600500Y-114670943D01*
X119600500Y-102513648D01*
X121489500Y-102513648D01*
X121489500Y-102718351D01*
X121521522Y-102920534D01*
X121584781Y-103115223D01*
X121677715Y-103297613D01*
X121798028Y-103463213D01*
X121942786Y-103607971D01*
X122081063Y-103708433D01*
X122108390Y-103728287D01*
X122199840Y-103774883D01*
X122201080Y-103775515D01*
X122251876Y-103823490D01*
X122268671Y-103891311D01*
X122246134Y-103957446D01*
X122201080Y-103996485D01*
X122108386Y-104043715D01*
X121942786Y-104164028D01*
X121798028Y-104308786D01*
X121677715Y-104474386D01*
X121584781Y-104656776D01*
X121521522Y-104851465D01*
X121489500Y-105053648D01*
X121489500Y-105258351D01*
X121521522Y-105460534D01*
X121584781Y-105655223D01*
X121619061Y-105722500D01*
X121673245Y-105828842D01*
X121677715Y-105837613D01*
X121798028Y-106003213D01*
X121942786Y-106147971D01*
X122097380Y-106260288D01*
X122108390Y-106268287D01*
X122199840Y-106314883D01*
X122201080Y-106315515D01*
X122251876Y-106363490D01*
X122268671Y-106431311D01*
X122246134Y-106497446D01*
X122201080Y-106536485D01*
X122108386Y-106583715D01*
X121942786Y-106704028D01*
X121798028Y-106848786D01*
X121677715Y-107014386D01*
X121584781Y-107196776D01*
X121521522Y-107391465D01*
X121494088Y-107564683D01*
X121489500Y-107593648D01*
X121489500Y-107798352D01*
X121490729Y-107806110D01*
X121521522Y-108000534D01*
X121584781Y-108195223D01*
X121677715Y-108377613D01*
X121798028Y-108543213D01*
X121942786Y-108687971D01*
X122080317Y-108787891D01*
X122108390Y-108808287D01*
X122182422Y-108846008D01*
X122201080Y-108855515D01*
X122251876Y-108903490D01*
X122268671Y-108971311D01*
X122246134Y-109037446D01*
X122201080Y-109076485D01*
X122108386Y-109123715D01*
X121942786Y-109244028D01*
X121798028Y-109388786D01*
X121677715Y-109554386D01*
X121584781Y-109736776D01*
X121521522Y-109931465D01*
X121489500Y-110133648D01*
X121489500Y-110338351D01*
X121521522Y-110540534D01*
X121584781Y-110735223D01*
X121677715Y-110917613D01*
X121798028Y-111083213D01*
X121942786Y-111227971D01*
X122081918Y-111329054D01*
X122108390Y-111348287D01*
X122199840Y-111394883D01*
X122201080Y-111395515D01*
X122251876Y-111443490D01*
X122268671Y-111511311D01*
X122246134Y-111577446D01*
X122201080Y-111616485D01*
X122108386Y-111663715D01*
X121942786Y-111784028D01*
X121798028Y-111928786D01*
X121677715Y-112094386D01*
X121584781Y-112276776D01*
X121521522Y-112471465D01*
X121489500Y-112673648D01*
X121489500Y-112878351D01*
X121521522Y-113080534D01*
X121584781Y-113275223D01*
X121677715Y-113457613D01*
X121798028Y-113623213D01*
X121942786Y-113767971D01*
X122094520Y-113878210D01*
X122108390Y-113888287D01*
X122199840Y-113934883D01*
X122201080Y-113935515D01*
X122251876Y-113983490D01*
X122268671Y-114051311D01*
X122246134Y-114117446D01*
X122201080Y-114156485D01*
X122108386Y-114203715D01*
X121942786Y-114324028D01*
X121798028Y-114468786D01*
X121677715Y-114634386D01*
X121584781Y-114816776D01*
X121521522Y-115011465D01*
X121489500Y-115213648D01*
X121489500Y-115418351D01*
X121521522Y-115620534D01*
X121584781Y-115815223D01*
X121636628Y-115916976D01*
X121668874Y-115980263D01*
X121677715Y-115997613D01*
X121798028Y-116163213D01*
X121942786Y-116307971D01*
X122065397Y-116397051D01*
X122108390Y-116428287D01*
X122199840Y-116474883D01*
X122201080Y-116475515D01*
X122251876Y-116523490D01*
X122268671Y-116591311D01*
X122246134Y-116657446D01*
X122201080Y-116696485D01*
X122108386Y-116743715D01*
X121942786Y-116864028D01*
X121798028Y-117008786D01*
X121677715Y-117174386D01*
X121584781Y-117356776D01*
X121521522Y-117551465D01*
X121489500Y-117753648D01*
X121489500Y-117958351D01*
X121521522Y-118160534D01*
X121584781Y-118355223D01*
X121677715Y-118537613D01*
X121798028Y-118703213D01*
X121942786Y-118847971D01*
X122097749Y-118960556D01*
X122108390Y-118968287D01*
X122199840Y-119014883D01*
X122201080Y-119015515D01*
X122251876Y-119063490D01*
X122268671Y-119131311D01*
X122246134Y-119197446D01*
X122201080Y-119236485D01*
X122108386Y-119283715D01*
X121942786Y-119404028D01*
X121798028Y-119548786D01*
X121677715Y-119714386D01*
X121584781Y-119896776D01*
X121521522Y-120091465D01*
X121489500Y-120293648D01*
X121489500Y-120498351D01*
X121521522Y-120700534D01*
X121584781Y-120895223D01*
X121677715Y-121077613D01*
X121798028Y-121243213D01*
X121942786Y-121387971D01*
X122097749Y-121500556D01*
X122108390Y-121508287D01*
X122209319Y-121559713D01*
X122290776Y-121601218D01*
X122290778Y-121601218D01*
X122290781Y-121601220D01*
X122395137Y-121635127D01*
X122485465Y-121664477D01*
X122586557Y-121680488D01*
X122687648Y-121696500D01*
X122687649Y-121696500D01*
X123692351Y-121696500D01*
X123692352Y-121696500D01*
X123894534Y-121664477D01*
X124089219Y-121601220D01*
X124271610Y-121508287D01*
X124364590Y-121440732D01*
X124437213Y-121387971D01*
X124437215Y-121387968D01*
X124437219Y-121387966D01*
X124581966Y-121243219D01*
X124581968Y-121243215D01*
X124581971Y-121243213D01*
X124651445Y-121147588D01*
X124702287Y-121077610D01*
X124795220Y-120895219D01*
X124858477Y-120700534D01*
X124890500Y-120498352D01*
X124890500Y-120293648D01*
X124868715Y-120156104D01*
X124858477Y-120091465D01*
X124795218Y-119896776D01*
X124702419Y-119714650D01*
X124702287Y-119714390D01*
X124651447Y-119644414D01*
X124581971Y-119548786D01*
X124437213Y-119404028D01*
X124271614Y-119283715D01*
X124265006Y-119280348D01*
X124178917Y-119236483D01*
X124128123Y-119188511D01*
X124111328Y-119120690D01*
X124133865Y-119054555D01*
X124178917Y-119015516D01*
X124271610Y-118968287D01*
X124292770Y-118952913D01*
X124437213Y-118847971D01*
X124437215Y-118847968D01*
X124437219Y-118847966D01*
X124581966Y-118703219D01*
X124581968Y-118703215D01*
X124581971Y-118703213D01*
X124651445Y-118607588D01*
X124702287Y-118537610D01*
X124795220Y-118355219D01*
X124858477Y-118160534D01*
X124890500Y-117958352D01*
X124890500Y-117753648D01*
X124858477Y-117551466D01*
X124795220Y-117356781D01*
X124795218Y-117356778D01*
X124795218Y-117356776D01*
X124718348Y-117205912D01*
X124702287Y-117174390D01*
X124669440Y-117129179D01*
X124581971Y-117008786D01*
X124437213Y-116864028D01*
X124271614Y-116743715D01*
X124265006Y-116740348D01*
X124178917Y-116696483D01*
X124128123Y-116648511D01*
X124111328Y-116580690D01*
X124133865Y-116514555D01*
X124178917Y-116475516D01*
X124271610Y-116428287D01*
X124350706Y-116370821D01*
X124437213Y-116307971D01*
X124437215Y-116307968D01*
X124437219Y-116307966D01*
X124581966Y-116163219D01*
X124581968Y-116163215D01*
X124581971Y-116163213D01*
X124651445Y-116067588D01*
X124702287Y-115997610D01*
X124795220Y-115815219D01*
X124858477Y-115620534D01*
X124890500Y-115418352D01*
X124890500Y-115213648D01*
X124858477Y-115011466D01*
X124858094Y-115010288D01*
X124795218Y-114816776D01*
X124752787Y-114733501D01*
X124702287Y-114634390D01*
X124688886Y-114615945D01*
X124581971Y-114468786D01*
X124437213Y-114324028D01*
X124271614Y-114203715D01*
X124265006Y-114200348D01*
X124178917Y-114156483D01*
X124173100Y-114150989D01*
X124165483Y-114148536D01*
X124148068Y-114127348D01*
X124128123Y-114108511D01*
X124126198Y-114100740D01*
X124121118Y-114094559D01*
X124117922Y-114067318D01*
X124111328Y-114040690D01*
X124113909Y-114033114D01*
X124112977Y-114025165D01*
X124125017Y-114000518D01*
X124133865Y-113974555D01*
X124140916Y-113967972D01*
X124143646Y-113962386D01*
X124161357Y-113948893D01*
X124170911Y-113939976D01*
X124171344Y-113939713D01*
X132507500Y-113939713D01*
X132507500Y-114152286D01*
X132528459Y-114284620D01*
X132540754Y-114362243D01*
X132601349Y-114548735D01*
X132606444Y-114564414D01*
X132702951Y-114753820D01*
X132827890Y-114925786D01*
X132978213Y-115076109D01*
X133150182Y-115201050D01*
X133158946Y-115205516D01*
X133209742Y-115253491D01*
X133226536Y-115321312D01*
X133203998Y-115387447D01*
X133158946Y-115426484D01*
X133150182Y-115430949D01*
X132978213Y-115555890D01*
X132827890Y-115706213D01*
X132702951Y-115878179D01*
X132606444Y-116067585D01*
X132540753Y-116269760D01*
X132507500Y-116479713D01*
X132507500Y-116692286D01*
X132536244Y-116873773D01*
X132540754Y-116902243D01*
X132575370Y-117008781D01*
X132606444Y-117104414D01*
X132702951Y-117293820D01*
X132827890Y-117465786D01*
X132978213Y-117616109D01*
X133150182Y-117741050D01*
X133158946Y-117745516D01*
X133209742Y-117793491D01*
X133226536Y-117861312D01*
X133203998Y-117927447D01*
X133158946Y-117966484D01*
X133150182Y-117970949D01*
X132978213Y-118095890D01*
X132827890Y-118246213D01*
X132702951Y-118418179D01*
X132606444Y-118607585D01*
X132540753Y-118809760D01*
X132507500Y-119019713D01*
X132507500Y-119232286D01*
X132539806Y-119436261D01*
X132540754Y-119442243D01*
X132578203Y-119557500D01*
X132606444Y-119644414D01*
X132702951Y-119833820D01*
X132827890Y-120005786D01*
X132978213Y-120156109D01*
X133150182Y-120281050D01*
X133158946Y-120285516D01*
X133209742Y-120333491D01*
X133226536Y-120401312D01*
X133203998Y-120467447D01*
X133158946Y-120506484D01*
X133150182Y-120510949D01*
X132978213Y-120635890D01*
X132827890Y-120786213D01*
X132702951Y-120958179D01*
X132606444Y-121147585D01*
X132540753Y-121349760D01*
X132507500Y-121559713D01*
X132507500Y-121772286D01*
X132540753Y-121982239D01*
X132606444Y-122184414D01*
X132702951Y-122373820D01*
X132827890Y-122545786D01*
X132941430Y-122659326D01*
X132974915Y-122720649D01*
X132969931Y-122790341D01*
X132928059Y-122846274D01*
X132897083Y-122863189D01*
X132765669Y-122912203D01*
X132765664Y-122912206D01*
X132650455Y-122998452D01*
X132650452Y-122998455D01*
X132564206Y-123113664D01*
X132564202Y-123113671D01*
X132513908Y-123248517D01*
X132508058Y-123302934D01*
X132507501Y-123308123D01*
X132507500Y-123308135D01*
X132507500Y-125103870D01*
X132507501Y-125103876D01*
X132513908Y-125163483D01*
X132564202Y-125298328D01*
X132564206Y-125298335D01*
X132650452Y-125413544D01*
X132650455Y-125413547D01*
X132765664Y-125499793D01*
X132765671Y-125499797D01*
X132900517Y-125550091D01*
X132900516Y-125550091D01*
X132907444Y-125550835D01*
X132960127Y-125556500D01*
X134755872Y-125556499D01*
X134815483Y-125550091D01*
X134950331Y-125499796D01*
X135065546Y-125413546D01*
X135151796Y-125298331D01*
X135202091Y-125163483D01*
X135208500Y-125103873D01*
X135208499Y-123308128D01*
X135202091Y-123248517D01*
X135194183Y-123227315D01*
X135151797Y-123113671D01*
X135151793Y-123113664D01*
X135065547Y-122998455D01*
X135065544Y-122998452D01*
X134950335Y-122912206D01*
X134950328Y-122912202D01*
X134818917Y-122863189D01*
X134762983Y-122821318D01*
X134738566Y-122755853D01*
X134753418Y-122687580D01*
X134774563Y-122659332D01*
X134888104Y-122545792D01*
X135013051Y-122373816D01*
X135109557Y-122184412D01*
X135175246Y-121982243D01*
X135208500Y-121772287D01*
X135208500Y-121559713D01*
X135175246Y-121349757D01*
X135109557Y-121147588D01*
X135013051Y-120958184D01*
X135013049Y-120958181D01*
X135013048Y-120958179D01*
X134888109Y-120786213D01*
X134737786Y-120635890D01*
X134565820Y-120510951D01*
X134565115Y-120510591D01*
X134557054Y-120506485D01*
X134506259Y-120458512D01*
X134489463Y-120390692D01*
X134511999Y-120324556D01*
X134557054Y-120285515D01*
X134565816Y-120281051D01*
X134620108Y-120241606D01*
X134737786Y-120156109D01*
X134737788Y-120156106D01*
X134737792Y-120156104D01*
X134888104Y-120005792D01*
X134888106Y-120005788D01*
X134888109Y-120005786D01*
X135013048Y-119833820D01*
X135013047Y-119833820D01*
X135013051Y-119833816D01*
X135109557Y-119644412D01*
X135175246Y-119442243D01*
X135208500Y-119232287D01*
X135208500Y-119019713D01*
X135175246Y-118809757D01*
X135109557Y-118607588D01*
X135013051Y-118418184D01*
X135013049Y-118418181D01*
X135013048Y-118418179D01*
X134888109Y-118246213D01*
X134737786Y-118095890D01*
X134565820Y-117970951D01*
X134565115Y-117970591D01*
X134557054Y-117966485D01*
X134506259Y-117918512D01*
X134489463Y-117850692D01*
X134511999Y-117784556D01*
X134557054Y-117745515D01*
X134565816Y-117741051D01*
X134587789Y-117725086D01*
X134737786Y-117616109D01*
X134737788Y-117616106D01*
X134737792Y-117616104D01*
X134888104Y-117465792D01*
X134888106Y-117465788D01*
X134888109Y-117465786D01*
X135013048Y-117293820D01*
X135013047Y-117293820D01*
X135013051Y-117293816D01*
X135109557Y-117104412D01*
X135175246Y-116902243D01*
X135208500Y-116692287D01*
X135208500Y-116479713D01*
X135175246Y-116269757D01*
X135109557Y-116067588D01*
X135013051Y-115878184D01*
X135013049Y-115878181D01*
X135013048Y-115878179D01*
X134888109Y-115706213D01*
X134737786Y-115555890D01*
X134565820Y-115430951D01*
X134565115Y-115430591D01*
X134557054Y-115426485D01*
X134506259Y-115378512D01*
X134489463Y-115310692D01*
X134511999Y-115244556D01*
X134557054Y-115205515D01*
X134565816Y-115201051D01*
X134593224Y-115181138D01*
X134737786Y-115076109D01*
X134737788Y-115076106D01*
X134737792Y-115076104D01*
X134888104Y-114925792D01*
X134888106Y-114925788D01*
X134888109Y-114925786D01*
X135013048Y-114753820D01*
X135013047Y-114753820D01*
X135013051Y-114753816D01*
X135109557Y-114564412D01*
X135175246Y-114362243D01*
X135208500Y-114152287D01*
X135208500Y-113939713D01*
X135175246Y-113729757D01*
X135109557Y-113527588D01*
X135013051Y-113338184D01*
X135013049Y-113338181D01*
X135013048Y-113338179D01*
X134888109Y-113166213D01*
X134737786Y-113015890D01*
X134565820Y-112890951D01*
X134376414Y-112794444D01*
X134376413Y-112794443D01*
X134376412Y-112794443D01*
X134174243Y-112728754D01*
X134174241Y-112728753D01*
X134174240Y-112728753D01*
X134012957Y-112703208D01*
X133964287Y-112695500D01*
X133751713Y-112695500D01*
X133703042Y-112703208D01*
X133541760Y-112728753D01*
X133339585Y-112794444D01*
X133150179Y-112890951D01*
X132978213Y-113015890D01*
X132827890Y-113166213D01*
X132702951Y-113338179D01*
X132606444Y-113527585D01*
X132540753Y-113729760D01*
X132507500Y-113939713D01*
X124171344Y-113939713D01*
X124174832Y-113937597D01*
X124271610Y-113888287D01*
X124349779Y-113831493D01*
X124349786Y-113831490D01*
X124437212Y-113767971D01*
X124437210Y-113767971D01*
X124437219Y-113767966D01*
X124581966Y-113623219D01*
X124581968Y-113623215D01*
X124581971Y-113623213D01*
X124651445Y-113527588D01*
X124702287Y-113457610D01*
X124795220Y-113275219D01*
X124858477Y-113080534D01*
X124890500Y-112878352D01*
X124890500Y-112673648D01*
X124858477Y-112471466D01*
X124795220Y-112276781D01*
X124795218Y-112276778D01*
X124795218Y-112276776D01*
X124761503Y-112210607D01*
X124702287Y-112094390D01*
X124694556Y-112083749D01*
X124581971Y-111928786D01*
X124437213Y-111784028D01*
X124271614Y-111663715D01*
X124265006Y-111660348D01*
X124178917Y-111616483D01*
X124128123Y-111568511D01*
X124111328Y-111500690D01*
X124133865Y-111434555D01*
X124178917Y-111395516D01*
X124271610Y-111348287D01*
X124298082Y-111329054D01*
X124437213Y-111227971D01*
X124437215Y-111227968D01*
X124437219Y-111227966D01*
X124581966Y-111083219D01*
X124581968Y-111083215D01*
X124581971Y-111083213D01*
X124634732Y-111010590D01*
X124702287Y-110917610D01*
X124795220Y-110735219D01*
X124858477Y-110540534D01*
X124890500Y-110338352D01*
X124890500Y-110133648D01*
X124858477Y-109931466D01*
X124844481Y-109888392D01*
X124795218Y-109736776D01*
X124733264Y-109615186D01*
X124702287Y-109554390D01*
X124653974Y-109487892D01*
X124581971Y-109388786D01*
X124437213Y-109244028D01*
X124271614Y-109123715D01*
X124265006Y-109120348D01*
X124178917Y-109076483D01*
X124128123Y-109028511D01*
X124111328Y-108960690D01*
X124133865Y-108894555D01*
X124178917Y-108855516D01*
X124271610Y-108808287D01*
X124299684Y-108787890D01*
X124437213Y-108687971D01*
X124437215Y-108687968D01*
X124437219Y-108687966D01*
X124581966Y-108543219D01*
X124581968Y-108543215D01*
X124581971Y-108543213D01*
X124653696Y-108444490D01*
X124702287Y-108377610D01*
X124795220Y-108195219D01*
X124858477Y-108000534D01*
X124890500Y-107798352D01*
X124890500Y-107593648D01*
X124878281Y-107516503D01*
X124858477Y-107391465D01*
X124808978Y-107239125D01*
X124795220Y-107196781D01*
X124795218Y-107196778D01*
X124795218Y-107196776D01*
X124739738Y-107087892D01*
X124702287Y-107014390D01*
X124678207Y-106981246D01*
X124581971Y-106848786D01*
X124437213Y-106704028D01*
X124271614Y-106583715D01*
X124249603Y-106572500D01*
X124178917Y-106536483D01*
X124128123Y-106488511D01*
X124111328Y-106420690D01*
X124133865Y-106354555D01*
X124178917Y-106315516D01*
X124271610Y-106268287D01*
X124292770Y-106252913D01*
X124437213Y-106147971D01*
X124437215Y-106147968D01*
X124437219Y-106147966D01*
X124581966Y-106003219D01*
X124581968Y-106003215D01*
X124581971Y-106003213D01*
X124682617Y-105864683D01*
X124702287Y-105837610D01*
X124795220Y-105655219D01*
X124858477Y-105460534D01*
X124890500Y-105258352D01*
X124890500Y-105053648D01*
X124875571Y-104959390D01*
X124858477Y-104851465D01*
X124795218Y-104656776D01*
X124749954Y-104567941D01*
X124702287Y-104474390D01*
X124664587Y-104422500D01*
X124581971Y-104308786D01*
X124437213Y-104164028D01*
X124271614Y-104043715D01*
X124229977Y-104022500D01*
X124178917Y-103996483D01*
X124128123Y-103948511D01*
X124111328Y-103880690D01*
X124133865Y-103814555D01*
X124178917Y-103775516D01*
X124271610Y-103728287D01*
X124298937Y-103708433D01*
X124437213Y-103607971D01*
X124437215Y-103607968D01*
X124437219Y-103607966D01*
X124581966Y-103463219D01*
X124581968Y-103463215D01*
X124581971Y-103463213D01*
X124660896Y-103354580D01*
X124702287Y-103297610D01*
X124795220Y-103115219D01*
X124858477Y-102920534D01*
X124890500Y-102718352D01*
X124890500Y-102513648D01*
X124861230Y-102328846D01*
X124858477Y-102311465D01*
X124812887Y-102171155D01*
X124795220Y-102116781D01*
X124795218Y-102116778D01*
X124795218Y-102116776D01*
X124744129Y-102016510D01*
X124702287Y-101934390D01*
X124664681Y-101882629D01*
X124581971Y-101768786D01*
X124437213Y-101624028D01*
X124271613Y-101503715D01*
X124271612Y-101503714D01*
X124271610Y-101503713D01*
X124193249Y-101463786D01*
X124089223Y-101410781D01*
X123894534Y-101347522D01*
X123719995Y-101319878D01*
X123692352Y-101315500D01*
X122687648Y-101315500D01*
X122663329Y-101319351D01*
X122485465Y-101347522D01*
X122290776Y-101410781D01*
X122108386Y-101503715D01*
X121942786Y-101624028D01*
X121798028Y-101768786D01*
X121677715Y-101934386D01*
X121584781Y-102116776D01*
X121521522Y-102311465D01*
X121489500Y-102513648D01*
X119600500Y-102513648D01*
X119600500Y-97589060D01*
X119600501Y-97589047D01*
X119600501Y-97420944D01*
X119579527Y-97342670D01*
X119559577Y-97268216D01*
X119545460Y-97243765D01*
X119480524Y-97131290D01*
X119480518Y-97131282D01*
X117584573Y-95235337D01*
X117551088Y-95174014D01*
X117550637Y-95171847D01*
X117519738Y-95016510D01*
X117519737Y-95016503D01*
X117519735Y-95016498D01*
X117459397Y-94870827D01*
X117459390Y-94870814D01*
X117371789Y-94739711D01*
X117371786Y-94739707D01*
X117260292Y-94628213D01*
X117260288Y-94628210D01*
X117129185Y-94540609D01*
X117129172Y-94540602D01*
X116983501Y-94480264D01*
X116983489Y-94480261D01*
X116828845Y-94449500D01*
X116828842Y-94449500D01*
X116671158Y-94449500D01*
X116671155Y-94449500D01*
X116516510Y-94480261D01*
X116516498Y-94480264D01*
X116370827Y-94540602D01*
X116370814Y-94540609D01*
X116239711Y-94628210D01*
X116239707Y-94628213D01*
X116128213Y-94739707D01*
X116128210Y-94739711D01*
X116040609Y-94870814D01*
X116040602Y-94870827D01*
X115980264Y-95016498D01*
X115980261Y-95016510D01*
X115949500Y-95171153D01*
X115949500Y-95328846D01*
X115980261Y-95483489D01*
X115980264Y-95483501D01*
X116040602Y-95629172D01*
X116040609Y-95629185D01*
X116128210Y-95760288D01*
X116128213Y-95760292D01*
X116239707Y-95871786D01*
X116239711Y-95871789D01*
X116370814Y-95959390D01*
X116370827Y-95959397D01*
X116516498Y-96019735D01*
X116516503Y-96019737D01*
X116581147Y-96032595D01*
X116671849Y-96050638D01*
X116733760Y-96083023D01*
X116735339Y-96084574D01*
X118363181Y-97712416D01*
X118396666Y-97773739D01*
X118399500Y-97800097D01*
X118399500Y-116082951D01*
X118379815Y-116149990D01*
X118363181Y-116170632D01*
X117296514Y-117237298D01*
X117235191Y-117270783D01*
X117165499Y-117265799D01*
X117109566Y-117223927D01*
X117098348Y-117205912D01*
X117082284Y-117174385D01*
X116961971Y-117008786D01*
X116817213Y-116864028D01*
X116651614Y-116743715D01*
X116645006Y-116740348D01*
X116558917Y-116696483D01*
X116508123Y-116648511D01*
X116491328Y-116580690D01*
X116513865Y-116514555D01*
X116558917Y-116475516D01*
X116651610Y-116428287D01*
X116730706Y-116370821D01*
X116817213Y-116307971D01*
X116817215Y-116307968D01*
X116817219Y-116307966D01*
X116961966Y-116163219D01*
X116961968Y-116163215D01*
X116961971Y-116163213D01*
X117031445Y-116067588D01*
X117082287Y-115997610D01*
X117175220Y-115815219D01*
X117238477Y-115620534D01*
X117270500Y-115418352D01*
X117270500Y-115213648D01*
X117238477Y-115011466D01*
X117238094Y-115010288D01*
X117175218Y-114816776D01*
X117132787Y-114733501D01*
X117082287Y-114634390D01*
X117068886Y-114615945D01*
X116961971Y-114468786D01*
X116817213Y-114324028D01*
X116651614Y-114203715D01*
X116645006Y-114200348D01*
X116558917Y-114156483D01*
X116508123Y-114108511D01*
X116491328Y-114040690D01*
X116513865Y-113974555D01*
X116558917Y-113935516D01*
X116651610Y-113888287D01*
X116729785Y-113831490D01*
X116817213Y-113767971D01*
X116817215Y-113767968D01*
X116817219Y-113767966D01*
X116961966Y-113623219D01*
X116961968Y-113623215D01*
X116961971Y-113623213D01*
X117031445Y-113527588D01*
X117082287Y-113457610D01*
X117175220Y-113275219D01*
X117238477Y-113080534D01*
X117270500Y-112878352D01*
X117270500Y-112673648D01*
X117238477Y-112471466D01*
X117175220Y-112276781D01*
X117175218Y-112276778D01*
X117175218Y-112276776D01*
X117141503Y-112210607D01*
X117082287Y-112094390D01*
X117074556Y-112083749D01*
X116961971Y-111928786D01*
X116817213Y-111784028D01*
X116651614Y-111663715D01*
X116645006Y-111660348D01*
X116558917Y-111616483D01*
X116508123Y-111568511D01*
X116491328Y-111500690D01*
X116513865Y-111434555D01*
X116558917Y-111395516D01*
X116651610Y-111348287D01*
X116678082Y-111329054D01*
X116817213Y-111227971D01*
X116817215Y-111227968D01*
X116817219Y-111227966D01*
X116961966Y-111083219D01*
X116961968Y-111083215D01*
X116961971Y-111083213D01*
X117014732Y-111010590D01*
X117082287Y-110917610D01*
X117175220Y-110735219D01*
X117238477Y-110540534D01*
X117270500Y-110338352D01*
X117270500Y-110133648D01*
X117238477Y-109931466D01*
X117224481Y-109888392D01*
X117175218Y-109736776D01*
X117113264Y-109615186D01*
X117082287Y-109554390D01*
X117033974Y-109487892D01*
X116961971Y-109388786D01*
X116817213Y-109244028D01*
X116651614Y-109123715D01*
X116645006Y-109120348D01*
X116558917Y-109076483D01*
X116508123Y-109028511D01*
X116491328Y-108960690D01*
X116513865Y-108894555D01*
X116558917Y-108855516D01*
X116651610Y-108808287D01*
X116679684Y-108787890D01*
X116817213Y-108687971D01*
X116817215Y-108687968D01*
X116817219Y-108687966D01*
X116961966Y-108543219D01*
X116961968Y-108543215D01*
X116961971Y-108543213D01*
X117033696Y-108444490D01*
X117082287Y-108377610D01*
X117175220Y-108195219D01*
X117238477Y-108000534D01*
X117270500Y-107798352D01*
X117270500Y-107593648D01*
X117258281Y-107516503D01*
X117238477Y-107391465D01*
X117188978Y-107239125D01*
X117175220Y-107196781D01*
X117175218Y-107196778D01*
X117175218Y-107196776D01*
X117119738Y-107087892D01*
X117082287Y-107014390D01*
X117058207Y-106981246D01*
X116961971Y-106848786D01*
X116817213Y-106704028D01*
X116651614Y-106583715D01*
X116629603Y-106572500D01*
X116558917Y-106536483D01*
X116508123Y-106488511D01*
X116491328Y-106420690D01*
X116513865Y-106354555D01*
X116558917Y-106315516D01*
X116651610Y-106268287D01*
X116672770Y-106252913D01*
X116817213Y-106147971D01*
X116817215Y-106147968D01*
X116817219Y-106147966D01*
X116961966Y-106003219D01*
X116961968Y-106003215D01*
X116961971Y-106003213D01*
X117062617Y-105864683D01*
X117082287Y-105837610D01*
X117175220Y-105655219D01*
X117238477Y-105460534D01*
X117270500Y-105258352D01*
X117270500Y-105053648D01*
X117255571Y-104959390D01*
X117238477Y-104851465D01*
X117175218Y-104656776D01*
X117129954Y-104567941D01*
X117082287Y-104474390D01*
X117044587Y-104422500D01*
X116961971Y-104308786D01*
X116817219Y-104164034D01*
X116792123Y-104145801D01*
X116723547Y-104095978D01*
X116680882Y-104040649D01*
X116674903Y-103971036D01*
X116707508Y-103909240D01*
X116757426Y-103877955D01*
X116839334Y-103850814D01*
X116988656Y-103758712D01*
X117112712Y-103634656D01*
X117204814Y-103485334D01*
X117259999Y-103318797D01*
X117270500Y-103216009D01*
X117270499Y-102015992D01*
X117259999Y-101913203D01*
X117204814Y-101746666D01*
X117112712Y-101597344D01*
X116988656Y-101473288D01*
X116839334Y-101381186D01*
X116672797Y-101326001D01*
X116672795Y-101326000D01*
X116570010Y-101315500D01*
X114569998Y-101315500D01*
X114569981Y-101315501D01*
X114467203Y-101326000D01*
X114467200Y-101326001D01*
X114300668Y-101381185D01*
X114300663Y-101381187D01*
X114151342Y-101473289D01*
X114027289Y-101597342D01*
X113935187Y-101746663D01*
X113935186Y-101746666D01*
X113920333Y-101791491D01*
X113913975Y-101810677D01*
X113874202Y-101868121D01*
X113809686Y-101894944D01*
X113740910Y-101882629D01*
X113708588Y-101859353D01*
X113328337Y-101479102D01*
X113294852Y-101417779D01*
X113299836Y-101348087D01*
X113328337Y-101303740D01*
X113371789Y-101260289D01*
X113459394Y-101129179D01*
X113519737Y-100983497D01*
X113550500Y-100828842D01*
X113550500Y-100671158D01*
X113550500Y-100671155D01*
X113550499Y-100671153D01*
X113519738Y-100516510D01*
X113519737Y-100516503D01*
X113492812Y-100451499D01*
X113459397Y-100370827D01*
X113459390Y-100370814D01*
X113371398Y-100239125D01*
X113350520Y-100172447D01*
X113350500Y-100170234D01*
X113350500Y-99149154D01*
X113370185Y-99082115D01*
X113422989Y-99036360D01*
X113492147Y-99026416D01*
X113555703Y-99055441D01*
X113562176Y-99061468D01*
X114019641Y-99518934D01*
X114053125Y-99580255D01*
X114055959Y-99606613D01*
X114055959Y-99729846D01*
X114086720Y-99884489D01*
X114086723Y-99884501D01*
X114147061Y-100030172D01*
X114147068Y-100030185D01*
X114234669Y-100161288D01*
X114234672Y-100161292D01*
X114346166Y-100272786D01*
X114346170Y-100272789D01*
X114477273Y-100360390D01*
X114477286Y-100360397D01*
X114622957Y-100420735D01*
X114622962Y-100420737D01*
X114777612Y-100451499D01*
X114777615Y-100451500D01*
X114777617Y-100451500D01*
X114935303Y-100451500D01*
X114935304Y-100451499D01*
X115089956Y-100420737D01*
X115235638Y-100360394D01*
X115366748Y-100272789D01*
X115478248Y-100161289D01*
X115565853Y-100030179D01*
X115626196Y-99884497D01*
X115656959Y-99729842D01*
X115656959Y-99572158D01*
X115656959Y-99572155D01*
X115656958Y-99572153D01*
X115647707Y-99525644D01*
X115626196Y-99417503D01*
X115595905Y-99344373D01*
X115565856Y-99271827D01*
X115565849Y-99271814D01*
X115478248Y-99140711D01*
X115478245Y-99140707D01*
X115366751Y-99029213D01*
X115366747Y-99029210D01*
X115235644Y-98941609D01*
X115235635Y-98941604D01*
X115096500Y-98883973D01*
X115056272Y-98857093D01*
X110736533Y-94537355D01*
X110736531Y-94537352D01*
X110617660Y-94418481D01*
X110617652Y-94418475D01*
X110497228Y-94348949D01*
X110497228Y-94348948D01*
X110497224Y-94348947D01*
X110480728Y-94339423D01*
X110328000Y-94298499D01*
X110169886Y-94298499D01*
X110162290Y-94298499D01*
X110162274Y-94298500D01*
X109271940Y-94298500D01*
X109231019Y-94309464D01*
X109231019Y-94309465D01*
X109193751Y-94319451D01*
X109119214Y-94339423D01*
X109119209Y-94339426D01*
X108982290Y-94418475D01*
X108982282Y-94418481D01*
X108870480Y-94530283D01*
X108870480Y-94530284D01*
X108870478Y-94530286D01*
X108795343Y-94605421D01*
X108735338Y-94665426D01*
X108674015Y-94698910D01*
X108671849Y-94699361D01*
X108516508Y-94730261D01*
X108516498Y-94730264D01*
X108370827Y-94790602D01*
X108370814Y-94790609D01*
X108239711Y-94878210D01*
X108239707Y-94878213D01*
X108128213Y-94989707D01*
X108128210Y-94989711D01*
X108040609Y-95120814D01*
X108040602Y-95120827D01*
X107980264Y-95266498D01*
X107980261Y-95266510D01*
X107949500Y-95421153D01*
X107949500Y-95578846D01*
X107980261Y-95733489D01*
X107980264Y-95733501D01*
X108022798Y-95836188D01*
X108030267Y-95905657D01*
X107998991Y-95968136D01*
X107938902Y-96003788D01*
X107869077Y-96001294D01*
X107820556Y-95971321D01*
X101762416Y-89913181D01*
X101728931Y-89851858D01*
X101733915Y-89782166D01*
X101775787Y-89726233D01*
X101841251Y-89701816D01*
X101850097Y-89701500D01*
X115825500Y-89701500D01*
X115892539Y-89721185D01*
X115938294Y-89773989D01*
X115949500Y-89825500D01*
X115949500Y-89828846D01*
X115980261Y-89983489D01*
X115980264Y-89983501D01*
X116040602Y-90129172D01*
X116040609Y-90129185D01*
X116128602Y-90260874D01*
X116134252Y-90278920D01*
X116144477Y-90294830D01*
X116148928Y-90325789D01*
X116149480Y-90327551D01*
X116149500Y-90329765D01*
X116149500Y-90413330D01*
X116149499Y-90413348D01*
X116149499Y-90579054D01*
X116149498Y-90579054D01*
X116149499Y-90579057D01*
X116190423Y-90731785D01*
X116216848Y-90777554D01*
X116217637Y-90778919D01*
X116234111Y-90846819D01*
X116211260Y-90912846D01*
X116197933Y-90928602D01*
X116140117Y-90986418D01*
X116052516Y-91117521D01*
X116052509Y-91117534D01*
X115992171Y-91263205D01*
X115992168Y-91263217D01*
X115961407Y-91417860D01*
X115961407Y-91575553D01*
X115992168Y-91730196D01*
X115992171Y-91730208D01*
X116052509Y-91875879D01*
X116052516Y-91875892D01*
X116140117Y-92006995D01*
X116140120Y-92006999D01*
X116251614Y-92118493D01*
X116251618Y-92118496D01*
X116382721Y-92206097D01*
X116382734Y-92206104D01*
X116454836Y-92235969D01*
X116528410Y-92266444D01*
X116664781Y-92293570D01*
X116726692Y-92325954D01*
X116728271Y-92327506D01*
X128665425Y-104264660D01*
X128698910Y-104325983D01*
X128699361Y-104328149D01*
X128730261Y-104483491D01*
X128730264Y-104483501D01*
X128790602Y-104629172D01*
X128790609Y-104629185D01*
X128878210Y-104760288D01*
X128878213Y-104760292D01*
X128989707Y-104871786D01*
X128989711Y-104871789D01*
X129120814Y-104959390D01*
X129120827Y-104959397D01*
X129256105Y-105015430D01*
X129266503Y-105019737D01*
X129371418Y-105040606D01*
X129421153Y-105050499D01*
X129421156Y-105050500D01*
X129421158Y-105050500D01*
X129578844Y-105050500D01*
X129578845Y-105050499D01*
X129733497Y-105019737D01*
X129879179Y-104959394D01*
X130010289Y-104871789D01*
X130053740Y-104828337D01*
X130115060Y-104794852D01*
X130184752Y-104799835D01*
X130229102Y-104828337D01*
X131165425Y-105764660D01*
X131198910Y-105825983D01*
X131199361Y-105828149D01*
X131230261Y-105983491D01*
X131230264Y-105983501D01*
X131290602Y-106129172D01*
X131290609Y-106129185D01*
X131378210Y-106260288D01*
X131378213Y-106260292D01*
X131489707Y-106371786D01*
X131489711Y-106371789D01*
X131620814Y-106459390D01*
X131620827Y-106459397D01*
X131766498Y-106519735D01*
X131766503Y-106519737D01*
X131887405Y-106543786D01*
X131921153Y-106550499D01*
X131921156Y-106550500D01*
X131921158Y-106550500D01*
X132078844Y-106550500D01*
X132078845Y-106550499D01*
X132233497Y-106519737D01*
X132379179Y-106459394D01*
X132379193Y-106459384D01*
X132379974Y-106458968D01*
X132380446Y-106458869D01*
X132384808Y-106457063D01*
X132385150Y-106457889D01*
X132448375Y-106444716D01*
X132513623Y-106469707D01*
X132538762Y-106495434D01*
X132573892Y-106543788D01*
X132724213Y-106694109D01*
X132896179Y-106819048D01*
X132896181Y-106819049D01*
X132896184Y-106819051D01*
X133085588Y-106915557D01*
X133287757Y-106981246D01*
X133497713Y-107014500D01*
X133497714Y-107014500D01*
X133710286Y-107014500D01*
X133710287Y-107014500D01*
X133920243Y-106981246D01*
X134122412Y-106915557D01*
X134311816Y-106819051D01*
X134333789Y-106803086D01*
X134483786Y-106694109D01*
X134483788Y-106694106D01*
X134483792Y-106694104D01*
X134634104Y-106543792D01*
X134634106Y-106543788D01*
X134634109Y-106543786D01*
X134759048Y-106371820D01*
X134759047Y-106371820D01*
X134759051Y-106371816D01*
X134855557Y-106182412D01*
X134921246Y-105980243D01*
X134954500Y-105770287D01*
X134954500Y-105557713D01*
X134921246Y-105347757D01*
X134855557Y-105145588D01*
X134759051Y-104956184D01*
X134759049Y-104956181D01*
X134759048Y-104956179D01*
X134634109Y-104784213D01*
X134483786Y-104633890D01*
X134311820Y-104508951D01*
X134311115Y-104508591D01*
X134303054Y-104504485D01*
X134252259Y-104456512D01*
X134235463Y-104388692D01*
X134257999Y-104322556D01*
X134303054Y-104283515D01*
X134311816Y-104279051D01*
X134403532Y-104212416D01*
X134483786Y-104154109D01*
X134483788Y-104154106D01*
X134483792Y-104154104D01*
X134634104Y-104003792D01*
X134634106Y-104003788D01*
X134634109Y-104003786D01*
X134759048Y-103831820D01*
X134759047Y-103831820D01*
X134759051Y-103831816D01*
X134855557Y-103642412D01*
X134921246Y-103440243D01*
X134954500Y-103230287D01*
X134954500Y-103017713D01*
X134921246Y-102807757D01*
X134855557Y-102605588D01*
X134759051Y-102416184D01*
X134759049Y-102416181D01*
X134759048Y-102416179D01*
X134634109Y-102244213D01*
X134483786Y-102093890D01*
X134311820Y-101968951D01*
X134311115Y-101968591D01*
X134303054Y-101964485D01*
X134252259Y-101916512D01*
X134235463Y-101848692D01*
X134257999Y-101782556D01*
X134303054Y-101743515D01*
X134311816Y-101739051D01*
X134333789Y-101723086D01*
X134483786Y-101614109D01*
X134483788Y-101614106D01*
X134483792Y-101614104D01*
X134634104Y-101463792D01*
X134634106Y-101463788D01*
X134634109Y-101463786D01*
X134759048Y-101291820D01*
X134759047Y-101291820D01*
X134759051Y-101291816D01*
X134855557Y-101102412D01*
X134921246Y-100900243D01*
X134954500Y-100690287D01*
X134954500Y-100477713D01*
X134921246Y-100267757D01*
X134855557Y-100065588D01*
X134759051Y-99876184D01*
X134759049Y-99876181D01*
X134759048Y-99876179D01*
X134634109Y-99704213D01*
X134483786Y-99553890D01*
X134311820Y-99428951D01*
X134311115Y-99428591D01*
X134303054Y-99424485D01*
X134252259Y-99376512D01*
X134235463Y-99308692D01*
X134257999Y-99242556D01*
X134303054Y-99203515D01*
X134311816Y-99199051D01*
X134392115Y-99140711D01*
X134483786Y-99074109D01*
X134483788Y-99074106D01*
X134483792Y-99074104D01*
X134634104Y-98923792D01*
X134634106Y-98923788D01*
X134634109Y-98923786D01*
X134759048Y-98751820D01*
X134759047Y-98751820D01*
X134759051Y-98751816D01*
X134855557Y-98562412D01*
X134921246Y-98360243D01*
X134954500Y-98150287D01*
X134954500Y-97937713D01*
X134921246Y-97727757D01*
X134855557Y-97525588D01*
X134759051Y-97336184D01*
X134759049Y-97336181D01*
X134759048Y-97336179D01*
X134634109Y-97164213D01*
X134483786Y-97013890D01*
X134311820Y-96888951D01*
X134311115Y-96888591D01*
X134303054Y-96884485D01*
X134252259Y-96836512D01*
X134235463Y-96768692D01*
X134257999Y-96702556D01*
X134303054Y-96663515D01*
X134311816Y-96659051D01*
X134479004Y-96537583D01*
X134483786Y-96534109D01*
X134483788Y-96534106D01*
X134483792Y-96534104D01*
X134634104Y-96383792D01*
X134634106Y-96383788D01*
X134634109Y-96383786D01*
X134759048Y-96211820D01*
X134759047Y-96211820D01*
X134759051Y-96211816D01*
X134855557Y-96022412D01*
X134921246Y-95820243D01*
X134954500Y-95610287D01*
X134954500Y-95397713D01*
X134921246Y-95187757D01*
X134855557Y-94985588D01*
X134759051Y-94796184D01*
X134759049Y-94796181D01*
X134759048Y-94796179D01*
X134634109Y-94624213D01*
X134483786Y-94473890D01*
X134311820Y-94348951D01*
X134311115Y-94348591D01*
X134303054Y-94344485D01*
X134252259Y-94296512D01*
X134235463Y-94228692D01*
X134257999Y-94162556D01*
X134303054Y-94123515D01*
X134311816Y-94119051D01*
X134333789Y-94103086D01*
X134483786Y-93994109D01*
X134483788Y-93994106D01*
X134483792Y-93994104D01*
X134634104Y-93843792D01*
X134634106Y-93843788D01*
X134634109Y-93843786D01*
X134759048Y-93671820D01*
X134759047Y-93671820D01*
X134759051Y-93671816D01*
X134855557Y-93482412D01*
X134921246Y-93280243D01*
X134927667Y-93239707D01*
X134951782Y-93087449D01*
X134954500Y-93070287D01*
X134954500Y-92857713D01*
X134921246Y-92647757D01*
X134855557Y-92445588D01*
X134759051Y-92256184D01*
X134759049Y-92256181D01*
X134759048Y-92256179D01*
X134634109Y-92084213D01*
X134483786Y-91933890D01*
X134311817Y-91808949D01*
X134302504Y-91804204D01*
X134251707Y-91756230D01*
X134234912Y-91688409D01*
X134257449Y-91622274D01*
X134302507Y-91583232D01*
X134311555Y-91578622D01*
X134365716Y-91539270D01*
X134365717Y-91539270D01*
X133733408Y-90906962D01*
X133796993Y-90889925D01*
X133911007Y-90824099D01*
X134004099Y-90731007D01*
X134069925Y-90616993D01*
X134086962Y-90553409D01*
X134719270Y-91185717D01*
X134719270Y-91185716D01*
X134758622Y-91131554D01*
X134855095Y-90942217D01*
X134920757Y-90740130D01*
X134920757Y-90740127D01*
X134954000Y-90530246D01*
X134954000Y-90317753D01*
X134920757Y-90107872D01*
X134920757Y-90107869D01*
X134855095Y-89905782D01*
X134758624Y-89716449D01*
X134719270Y-89662282D01*
X134719269Y-89662282D01*
X134086962Y-90294590D01*
X134069925Y-90231007D01*
X134004099Y-90116993D01*
X133911007Y-90023901D01*
X133796993Y-89958075D01*
X133733409Y-89941037D01*
X134403627Y-89270818D01*
X134464950Y-89237333D01*
X134491307Y-89234499D01*
X134501872Y-89234499D01*
X134561483Y-89228091D01*
X134696331Y-89177796D01*
X134811546Y-89091546D01*
X134897796Y-88976331D01*
X134948091Y-88841483D01*
X134954500Y-88781873D01*
X134954499Y-86986128D01*
X134948091Y-86926517D01*
X134897796Y-86791669D01*
X134897795Y-86791668D01*
X134897793Y-86791664D01*
X134811547Y-86676455D01*
X134811544Y-86676452D01*
X134696335Y-86590206D01*
X134696328Y-86590202D01*
X134561482Y-86539908D01*
X134561483Y-86539908D01*
X134501883Y-86533501D01*
X134501881Y-86533500D01*
X134501873Y-86533500D01*
X134501864Y-86533500D01*
X132706129Y-86533500D01*
X132706123Y-86533501D01*
X132646516Y-86539908D01*
X132511671Y-86590202D01*
X132511664Y-86590206D01*
X132396455Y-86676452D01*
X132396452Y-86676455D01*
X132310206Y-86791664D01*
X132310202Y-86791671D01*
X132259908Y-86926517D01*
X132253501Y-86986116D01*
X132253501Y-86986123D01*
X132253500Y-86986135D01*
X132253500Y-88781870D01*
X132253501Y-88781876D01*
X132259908Y-88841483D01*
X132310202Y-88976328D01*
X132310206Y-88976335D01*
X132396452Y-89091544D01*
X132396455Y-89091547D01*
X132511664Y-89177793D01*
X132511671Y-89177797D01*
X132556618Y-89194561D01*
X132646517Y-89228091D01*
X132706127Y-89234500D01*
X132716685Y-89234499D01*
X132783723Y-89254179D01*
X132804372Y-89270818D01*
X133474591Y-89941037D01*
X133411007Y-89958075D01*
X133296993Y-90023901D01*
X133203901Y-90116993D01*
X133138075Y-90231007D01*
X133121037Y-90294591D01*
X132488728Y-89662282D01*
X132488727Y-89662282D01*
X132449380Y-89716439D01*
X132352904Y-89905782D01*
X132287242Y-90107869D01*
X132287242Y-90107872D01*
X132254000Y-90317753D01*
X132254000Y-90530246D01*
X132287242Y-90740127D01*
X132287242Y-90740130D01*
X132352904Y-90942217D01*
X132449375Y-91131550D01*
X132488728Y-91185716D01*
X133121037Y-90553408D01*
X133138075Y-90616993D01*
X133203901Y-90731007D01*
X133296993Y-90824099D01*
X133411007Y-90889925D01*
X133474590Y-90906962D01*
X132842282Y-91539269D01*
X132842282Y-91539270D01*
X132896452Y-91578626D01*
X132896451Y-91578626D01*
X132905495Y-91583234D01*
X132956292Y-91631208D01*
X132973087Y-91699029D01*
X132950550Y-91765164D01*
X132905499Y-91804202D01*
X132896182Y-91808949D01*
X132724213Y-91933890D01*
X132573895Y-92084208D01*
X132516420Y-92163315D01*
X132502473Y-92174069D01*
X132492173Y-92188353D01*
X132475380Y-92194959D01*
X132461089Y-92205980D01*
X132443438Y-92207527D01*
X132427155Y-92213934D01*
X132391912Y-92212045D01*
X132328151Y-92199362D01*
X132266240Y-92166977D01*
X132264661Y-92165426D01*
X122987590Y-82888355D01*
X122987588Y-82888352D01*
X122868717Y-82769481D01*
X122868716Y-82769480D01*
X122781904Y-82719360D01*
X122781904Y-82719359D01*
X122781900Y-82719358D01*
X122731785Y-82690423D01*
X122579057Y-82649499D01*
X122420943Y-82649499D01*
X122413347Y-82649499D01*
X122413331Y-82649500D01*
X100079766Y-82649500D01*
X100012727Y-82629815D01*
X100010875Y-82628602D01*
X99879185Y-82540609D01*
X99879172Y-82540602D01*
X99733501Y-82480264D01*
X99733489Y-82480261D01*
X99578845Y-82449500D01*
X99578842Y-82449500D01*
X99421158Y-82449500D01*
X99421155Y-82449500D01*
X99266510Y-82480261D01*
X99266498Y-82480264D01*
X99120827Y-82540602D01*
X99120814Y-82540609D01*
X98989711Y-82628210D01*
X98989707Y-82628213D01*
X98878213Y-82739707D01*
X98878210Y-82739711D01*
X98790609Y-82870814D01*
X98790602Y-82870827D01*
X98730264Y-83016498D01*
X98730261Y-83016510D01*
X98699500Y-83171153D01*
X98699500Y-83328846D01*
X98730261Y-83483489D01*
X98730264Y-83483501D01*
X98790602Y-83629172D01*
X98790609Y-83629185D01*
X98878210Y-83760288D01*
X98878213Y-83760292D01*
X98989707Y-83871786D01*
X98989711Y-83871789D01*
X99120814Y-83959390D01*
X99120827Y-83959397D01*
X99266498Y-84019735D01*
X99266503Y-84019737D01*
X99421153Y-84050499D01*
X99421156Y-84050500D01*
X99421158Y-84050500D01*
X99578844Y-84050500D01*
X99578845Y-84050499D01*
X99733497Y-84019737D01*
X99879179Y-83959394D01*
X99933663Y-83922989D01*
X100010875Y-83871398D01*
X100028921Y-83865747D01*
X100044831Y-83855523D01*
X100075792Y-83851071D01*
X100077553Y-83850520D01*
X100079766Y-83850500D01*
X100325500Y-83850500D01*
X100392539Y-83870185D01*
X100438294Y-83922989D01*
X100449500Y-83974500D01*
X100449500Y-84078846D01*
X100480261Y-84233489D01*
X100480264Y-84233501D01*
X100519012Y-84327048D01*
X100526481Y-84396518D01*
X100495205Y-84458997D01*
X100435116Y-84494648D01*
X100404451Y-84498500D01*
X97487669Y-84498500D01*
X97487653Y-84498499D01*
X97480057Y-84498499D01*
X97321943Y-84498499D01*
X97242010Y-84519917D01*
X97169216Y-84539422D01*
X97134306Y-84559578D01*
X97134305Y-84559577D01*
X97032287Y-84618477D01*
X97032282Y-84618481D01*
X96920478Y-84730286D01*
X96735338Y-84915425D01*
X96674015Y-84948910D01*
X96671849Y-84949361D01*
X96516508Y-84980261D01*
X96516498Y-84980264D01*
X96370827Y-85040602D01*
X96370814Y-85040609D01*
X96239711Y-85128210D01*
X96239707Y-85128213D01*
X96128213Y-85239707D01*
X96128210Y-85239711D01*
X96040609Y-85370814D01*
X96040602Y-85370827D01*
X95980264Y-85516498D01*
X95980261Y-85516510D01*
X95949500Y-85671153D01*
X87553232Y-85671153D01*
X87510292Y-85628213D01*
X87510288Y-85628210D01*
X87379185Y-85540609D01*
X87379172Y-85540602D01*
X87233501Y-85480264D01*
X87233489Y-85480261D01*
X87078845Y-85449500D01*
X87078842Y-85449500D01*
X86921158Y-85449500D01*
X86921155Y-85449500D01*
X86766510Y-85480261D01*
X86766498Y-85480264D01*
X86620827Y-85540602D01*
X86620814Y-85540609D01*
X86489711Y-85628210D01*
X86489707Y-85628213D01*
X86378213Y-85739707D01*
X86378210Y-85739711D01*
X86290609Y-85870814D01*
X86290602Y-85870827D01*
X86230264Y-86016498D01*
X86230261Y-86016510D01*
X86199500Y-86171153D01*
X86199500Y-86328846D01*
X86230261Y-86483489D01*
X86230264Y-86483501D01*
X86290602Y-86629172D01*
X86290609Y-86629185D01*
X86378602Y-86760874D01*
X86399480Y-86827551D01*
X86399500Y-86829765D01*
X86399500Y-92863444D01*
X86379815Y-92930483D01*
X86327011Y-92976238D01*
X86257853Y-92986182D01*
X86239575Y-92981202D01*
X86239324Y-92982031D01*
X86233500Y-92980264D01*
X86233497Y-92980263D01*
X86233492Y-92980262D01*
X86233489Y-92980261D01*
X86078845Y-92949500D01*
X86078842Y-92949500D01*
X85921158Y-92949500D01*
X85921155Y-92949500D01*
X85766510Y-92980261D01*
X85766498Y-92980264D01*
X85620827Y-93040602D01*
X85620814Y-93040609D01*
X85489711Y-93128210D01*
X85489707Y-93128213D01*
X85378213Y-93239707D01*
X85378210Y-93239711D01*
X85290609Y-93370814D01*
X85290602Y-93370827D01*
X85230264Y-93516498D01*
X85230261Y-93516510D01*
X85199500Y-93671153D01*
X84140165Y-93671153D01*
X84146188Y-93640876D01*
X84146189Y-93640873D01*
X84174210Y-93500000D01*
X83456237Y-93500000D01*
X83475000Y-93454701D01*
X83475000Y-93045299D01*
X83456237Y-93000000D01*
X84174210Y-93000000D01*
X84174210Y-92999999D01*
X84137533Y-92815610D01*
X84137531Y-92815602D01*
X84064035Y-92638166D01*
X84064030Y-92638157D01*
X83957332Y-92478473D01*
X83957329Y-92478469D01*
X83821530Y-92342670D01*
X83821526Y-92342667D01*
X83661842Y-92235969D01*
X83661833Y-92235964D01*
X83484397Y-92162468D01*
X83484389Y-92162466D01*
X83450000Y-92155625D01*
X83450000Y-92984943D01*
X83433134Y-92944225D01*
X83355775Y-92866866D01*
X83254701Y-92825000D01*
X83145299Y-92825000D01*
X83044225Y-92866866D01*
X82966866Y-92944225D01*
X82950000Y-92984943D01*
X82950000Y-92155625D01*
X82915610Y-92162466D01*
X82915602Y-92162468D01*
X82738166Y-92235964D01*
X82738157Y-92235969D01*
X82578473Y-92342667D01*
X82578469Y-92342670D01*
X82442670Y-92478469D01*
X82442667Y-92478473D01*
X82335969Y-92638157D01*
X82335964Y-92638166D01*
X82262468Y-92815602D01*
X82262466Y-92815610D01*
X82225789Y-92999999D01*
X81408500Y-92999999D01*
X81432401Y-92984029D01*
X81432405Y-92984026D01*
X81470783Y-92945649D01*
X81564026Y-92852405D01*
X81564029Y-92852401D01*
X81667444Y-92697631D01*
X81667451Y-92697618D01*
X81738682Y-92525649D01*
X81738683Y-92525644D01*
X81743784Y-92500000D01*
X80874728Y-92500000D01*
X80966614Y-92461940D01*
X81036940Y-92391614D01*
X81075000Y-92299728D01*
X81075000Y-92200272D01*
X81036940Y-92108386D01*
X80966614Y-92038060D01*
X80874728Y-92000000D01*
X81743784Y-92000000D01*
X81738683Y-91974355D01*
X81738682Y-91974350D01*
X81667451Y-91802381D01*
X81667444Y-91802368D01*
X81564029Y-91647598D01*
X81564026Y-91647594D01*
X81432405Y-91515973D01*
X81432401Y-91515970D01*
X81277631Y-91412555D01*
X81277622Y-91412550D01*
X81105646Y-91341316D01*
X81105638Y-91341314D01*
X80923077Y-91305000D01*
X80750000Y-91305000D01*
X80750000Y-92000000D01*
X80250000Y-92000000D01*
X80250000Y-91305000D01*
X80076923Y-91305000D01*
X79894361Y-91341314D01*
X79894353Y-91341316D01*
X79722377Y-91412550D01*
X79722365Y-91412557D01*
X79693389Y-91431918D01*
X79626711Y-91452795D01*
X79559331Y-91434309D01*
X79512642Y-91382330D01*
X79500500Y-91328815D01*
X79500500Y-80004427D01*
X79500816Y-79995581D01*
X79515130Y-79795443D01*
X79515131Y-79795434D01*
X79517646Y-79777938D01*
X79559356Y-79586199D01*
X79564333Y-79569248D01*
X79632911Y-79385385D01*
X79640259Y-79369298D01*
X79702815Y-79254734D01*
X79734291Y-79197089D01*
X79743845Y-79182221D01*
X79861448Y-79025123D01*
X79873020Y-79011769D01*
X80011769Y-78873020D01*
X80025123Y-78861448D01*
X80182221Y-78743845D01*
X80197089Y-78734291D01*
X80369298Y-78640258D01*
X80385385Y-78632911D01*
X80569248Y-78564333D01*
X80586199Y-78559356D01*
X80777938Y-78517646D01*
X80795436Y-78515130D01*
X80995582Y-78500816D01*
X81004428Y-78500500D01*
X81065892Y-78500500D01*
X133934108Y-78500500D01*
X133995572Y-78500500D01*
X134004418Y-78500816D01*
G37*
%TD.AperFunction*%
%TD*%
M02*
