%TF.GenerationSoftware,KiCad,Pcbnew,9.0.7*%
%TF.CreationDate,2026-04-23T16:24:15-04:00*%
%TF.ProjectId,RFID_bikelock,52464944-5f62-4696-9b65-6c6f636b2e6b,rev?*%
%TF.SameCoordinates,Original*%
%TF.FileFunction,Profile,NP*%
%FSLAX46Y46*%
G04 Gerber Fmt 4.6, Leading zero omitted, Abs format (unit mm)*
G04 Created by KiCad (PCBNEW 9.0.7) date 2026-04-23 16:24:15*
%MOMM*%
%LPD*%
G01*
G04 APERTURE LIST*
%TA.AperFunction,Profile*%
%ADD10C,0.050000*%
%TD*%
%TA.AperFunction,Profile*%
%ADD11C,0.100000*%
%TD*%
G04 APERTURE END LIST*
D10*
X77000000Y-97000000D02*
X77000000Y-102922000D01*
X81000000Y-137000000D02*
G75*
G02*
X79000000Y-135000000I0J2000000D01*
G01*
X51000000Y-115000000D02*
X51000000Y-97000000D01*
X79000000Y-109422000D02*
X79000000Y-135000000D01*
X77000000Y-115000000D02*
G75*
G02*
X75000000Y-117000000I-2000000J0D01*
G01*
X134000000Y-78000000D02*
X81000000Y-78000000D01*
X79000000Y-80000000D02*
G75*
G02*
X81000000Y-78000000I2000000J0D01*
G01*
X79000000Y-80000000D02*
X79000000Y-102922000D01*
X53000000Y-117000000D02*
G75*
G02*
X51000000Y-115000000I0J2000000D01*
G01*
X75000000Y-117000000D02*
X53000000Y-117000000D01*
X51000000Y-97000000D02*
G75*
G02*
X53000000Y-95000000I2000000J0D01*
G01*
X136000000Y-135000000D02*
X136000000Y-80000000D01*
X81000000Y-137000000D02*
X134000000Y-137000000D01*
X136000000Y-135000000D02*
G75*
G02*
X134000000Y-137000000I-2000000J0D01*
G01*
X77000000Y-109422000D02*
X77000000Y-115000000D01*
X134000000Y-78000000D02*
G75*
G02*
X136000000Y-80000000I0J-2000000D01*
G01*
X75000000Y-95000000D02*
G75*
G02*
X77000000Y-97000000I0J-2000000D01*
G01*
X53000000Y-95000000D02*
X75000000Y-95000000D01*
D11*
%TO.C,REF\u002A\u002A*%
X77000000Y-109422000D02*
G75*
G02*
X79000000Y-109422000I1000000J0D01*
G01*
X79000000Y-102922000D02*
G75*
G02*
X77000000Y-102922000I-1000000J0D01*
G01*
%TD*%
M02*
